999
dxflib 3.3.4.0
  0
SECTION
  2
HEADER
  9
$ACADVER
  1
AC1015
  9
$HANDSEED
  5
FFFF
  9
$DIMADEC
 70
0
  9
$DIMASZ
 40
4.0
  9
$DIMAUNIT
 70
0
  9
$DIMAZIN
 70
2
  9
$DIMDEC
 70
4
  9
$DIMEXE
 40
2.0
  9
$DIMEXO
 40
1.0
  9
$DIMGAP
 40
1.0
  9
$DIMLUNIT
 70
2
  9
$DIMSCALE
 40
1.0
  9
$DIMTSZ
 40
0.0
  9
$DIMTXT
 40
4.0
  9
$DIMZIN
 70
8
  9
$DWGCODEPAGE
  3
ANSI_1252
  9
$INSUNITS
 70
4
  9
$LTSCALE
 40
1.0
  0
ENDSEC
  0
SECTION
  2
TABLES
  0
TABLE
  2
VPORT
  5
8
100
AcDbSymbolTable
 70
1
  0
VPORT
  5
30
100
AcDbSymbolTableRecord
100
AcDbViewportTableRecord
  2
*Active
 70
0
 10
0.0
 20
0.0
 11
1.0
 21
1.0
 12
286.3055555555554861
 22
148.5
 13
0.0
 23
0.0
 14
10.0
 24
10.0
 15
10.0
 25
10.0
 16
0.0
 26
0.0
 36
1.0
 17
0.0
 27
0.0
 37
0.0
 40
297.0
 41
1.92798353909465
 42
50.0
 43
0.0
 44
0.0
 50
0.0
 51
0.0
 71
0
 72
100
 73
1
 74
3
 75
1
 76
1
 77
0
 78
0
281
0
 65
1
110
0.0
120
0.0
130
0.0
111
1.0
121
0.0
131
0.0
112
0.0
122
1.0
132
0.0
 79
0
146
0.0
  0
ENDTAB
  0
TABLE
  2
LTYPE
  5
5
100
AcDbSymbolTable
 70
21
  0
LTYPE
  5
16
100
AcDbSymbolTableRecord
100
AcDbLinetypeTableRecord
  2
CONTINUOUS
 70
0
  3
Solid line
 72
65
 73
0
 40
0.0
  0
LTYPE
  5
31
100
AcDbSymbolTableRecord
100
AcDbLinetypeTableRecord
  2
CENTER2
 70
0
  3
Center (.5x) ___ _ ___ _ ___ _ ___ _ ___ _ ___
 72
65
 73
4
 40
28.5749999999999993
 49
19.0500000000000007
 74
0
 49
-3.1749999999999998
 74
0
 49
3.1749999999999998
 74
0
 49
-3.1749999999999998
 74
0
  0
LTYPE
  5
32
100
AcDbSymbolTableRecord
100
AcDbLinetypeTableRecord
  2
DIVIDEX2
 70
0
  3
Divide (2x) ________  .  .  ________  .  .  _
 72
65
 73
6
 40
63.5
 49
25.3999999999999986
 74
0
 49
-12.6999999999999993
 74
0
 49
0.0
 74
0
 49
-12.6999999999999993
 74
0
 49
0.0
 74
0
 49
-12.6999999999999993
 74
0
  0
LTYPE
  5
33
100
AcDbSymbolTableRecord
100
AcDbLinetypeTableRecord
  2
DOT2
 70
0
  3
Dot (.5x) .....................................
 72
65
 73
2
 40
3.1749999999999998
 49
0.0
 74
0
 49
-3.1749999999999998
 74
0
  0
LTYPE
  5
34
100
AcDbSymbolTableRecord
100
AcDbLinetypeTableRecord
  2
DASHDOT2
 70
0
  3
Dash dot (.5x) _._._._._._._._._._._._._._._.
 72
65
 73
4
 40
12.6999999999999993
 49
6.3499999999999996
 74
0
 49
-3.1749999999999998
 74
0
 49
0.0
 74
0
 49
-3.1749999999999998
 74
0
  0
LTYPE
  5
35
100
AcDbSymbolTableRecord
100
AcDbLinetypeTableRecord
  2
DIVIDE
 70
0
  3
Divide ____ . . ____ . . ____ . . ____ . . ____
 72
65
 73
6
 40
31.75
 49
12.6999999999999993
 74
0
 49
-6.3499999999999996
 74
0
 49
0.0
 74
0
 49
-6.3499999999999996
 74
0
 49
0.0
 74
0
 49
-6.3499999999999996
 74
0
  0
LTYPE
  5
36
100
AcDbSymbolTableRecord
100
AcDbLinetypeTableRecord
  2
DASHDOT
 70
0
  3
Dash dot __ . __ . __ . __ . __ . __ . __ . __
 72
65
 73
4
 40
25.3999999999999986
 49
12.6999999999999993
 74
0
 49
-6.3499999999999996
 74
0
 49
0.0
 74
0
 49
-6.3499999999999996
 74
0
  0
LTYPE
  5
37
100
AcDbSymbolTableRecord
100
AcDbLinetypeTableRecord
  2
BORDER
 70
0
  3
Border __ __ . __ __ . __ __ . __ __ . __ __ .
 72
65
 73
6
 40
44.4500000000000028
 49
12.6999999999999993
 74
0
 49
-6.3499999999999996
 74
0
 49
12.6999999999999993
 74
0
 49
-6.3499999999999996
 74
0
 49
0.0
 74
0
 49
-6.3499999999999996
 74
0
  0
LTYPE
  5
38
100
AcDbSymbolTableRecord
100
AcDbLinetypeTableRecord
  2
DASHDOTX2
 70
0
  3
Dash dot (2x) ____  .  ____  .  ____  .  ___
 72
65
 73
4
 40
50.7999999999999972
 49
25.3999999999999986
 74
0
 49
-12.6999999999999993
 74
0
 49
0.0
 74
0
 49
-12.6999999999999993
 74
0
  0
LTYPE
  5
39
100
AcDbSymbolTableRecord
100
AcDbLinetypeTableRecord
  2
CENTERX2
 70
0
  3
Center (2x) ________  __  ________  __  _____
 72
65
 73
4
 40
101.5999999999999943
 49
63.5
 74
0
 49
-12.6999999999999993
 74
0
 49
12.6999999999999993
 74
0
 49
-12.6999999999999993
 74
0
  0
LTYPE
  5
3A
100
AcDbSymbolTableRecord
100
AcDbLinetypeTableRecord
  2
BORDER2
 70
0
  3
Border (.5x) __.__.__.__.__.__.__.__.__.__.__.
 72
65
 73
6
 40
22.2250000000000014
 49
6.3499999999999996
 74
0
 49
-3.1749999999999998
 74
0
 49
6.3499999999999996
 74
0
 49
-3.1749999999999998
 74
0
 49
0.0
 74
0
 49
-3.1749999999999998
 74
0
  0
LTYPE
  5
3B
100
AcDbSymbolTableRecord
100
AcDbLinetypeTableRecord
  2
BORDERX2
 70
0
  3
Border (2x) ____  ____  .  ____  ____  .  ___
 72
65
 73
6
 40
88.9000000000000057
 49
25.3999999999999986
 74
0
 49
-12.6999999999999993
 74
0
 49
25.3999999999999986
 74
0
 49
-12.6999999999999993
 74
0
 49
0.0
 74
0
 49
-12.6999999999999993
 74
0
  0
LTYPE
  5
14
100
AcDbSymbolTableRecord
100
AcDbLinetypeTableRecord
  2
BYBLOCK
 70
0
  3

 72
65
 73
0
 40
0.0
  0
LTYPE
  5
15
100
AcDbSymbolTableRecord
100
AcDbLinetypeTableRecord
  2
BYLAYER
 70
0
  3

 72
65
 73
0
 40
0.0
  0
LTYPE
  5
3C
100
AcDbSymbolTableRecord
100
AcDbLinetypeTableRecord
  2
DASHED2
 70
0
  3
Dashed (.5x) _ _ _ _ _ _ _ _ _ _ _ _ _ _ _ _ _
 72
65
 73
2
 40
9.5250000000000004
 49
6.3499999999999996
 74
0
 49
-3.1749999999999998
 74
0
  0
LTYPE
  5
3D
100
AcDbSymbolTableRecord
100
AcDbLinetypeTableRecord
  2
CENTER
 70
0
  3
Center ____ _ ____ _ ____ _ ____ _ ____ _ ____
 72
65
 73
4
 40
50.7999999999999972
 49
31.75
 74
0
 49
-6.3499999999999996
 74
0
 49
6.3499999999999996
 74
0
 49
-6.3499999999999996
 74
0
  0
LTYPE
  5
3E
100
AcDbSymbolTableRecord
100
AcDbLinetypeTableRecord
  2
DIVIDE2
 70
0
  3
Divide (.5x) __..__..__..__..__..__..__..__.._
 72
65
 73
6
 40
15.875
 49
6.3499999999999996
 74
0
 49
-3.1749999999999998
 74
0
 49
0.0
 74
0
 49
-3.1749999999999998
 74
0
 49
0.0
 74
0
 49
-3.1749999999999998
 74
0
  0
LTYPE
  5
3F
100
AcDbSymbolTableRecord
100
AcDbLinetypeTableRecord
  2
DASHED
 70
0
  3
Dashed __ __ __ __ __ __ __ __ __ __ __ __ __ _
 72
65
 73
2
 40
19.0500000000000007
 49
12.6999999999999993
 74
0
 49
-6.3499999999999996
 74
0
  0
LTYPE
  5
40
100
AcDbSymbolTableRecord
100
AcDbLinetypeTableRecord
  2
DOTX2
 70
0
  3
Dot (2x) .  .  .  .  .  .  .  .  .  .  .  .  .
 72
65
 73
2
 40
12.6999999999999993
 49
0.0
 74
0
 49
-12.6999999999999993
 74
0
  0
LTYPE
  5
41
100
AcDbSymbolTableRecord
100
AcDbLinetypeTableRecord
  2
DASHEDX2
 70
0
  3
Dashed (2x) ____  ____  ____  ____  ____  ___
 72
65
 73
2
 40
38.1000000000000014
 49
25.3999999999999986
 74
0
 49
-12.6999999999999993
 74
0
  0
LTYPE
  5
42
100
AcDbSymbolTableRecord
100
AcDbLinetypeTableRecord
  2
DOT
 70
0
  3
Dot . . . . . . . . . . . . . . . . . . . . . .
 72
65
 73
2
 40
6.3499999999999996
 49
0.0
 74
0
 49
-6.3499999999999996
 74
0
  0
ENDTAB
  0
TABLE
  2
LAYER
  5
2
100
AcDbSymbolTable
 70
1
  0
LAYER
  5
10
100
AcDbSymbolTableRecord
100
AcDbLayerTableRecord
  2
0
 70
0
 62
7
420
16777215
  6
CONTINUOUS
370
25
390
F
  0
ENDTAB
  0
TABLE
  2
STYLE
  5
3
100
AcDbSymbolTable
 70
1
  0
STYLE
  5
43
100
AcDbSymbolTableRecord
100
AcDbTextStyleTableRecord
  2
Standard
 70
0
 40
0.0
 41
1.0
 50
0.0
 71
0
 42
2.5
  3

  4

1001
ACAD
1000
txt
1071
0
  0
ENDTAB
  0
TABLE
  2
VIEW
  5
6
100
AcDbSymbolTable
 70
0
  0
ENDTAB
  0
TABLE
  2
UCS
  5
7
100
AcDbSymbolTable
 70
0
  0
ENDTAB
  0
TABLE
  2
APPID
  5
9
100
AcDbSymbolTable
 70
1
  0
APPID
  5
12
100
AcDbSymbolTableRecord
100
AcDbRegAppTableRecord
  2
ACAD
 70
0
  0
APPID
  5
44
100
AcDbSymbolTableRecord
100
AcDbRegAppTableRecord
  2
QCAD
 70
0
  0
ENDTAB
  0
TABLE
  2
DIMSTYLE
  5
A
100
AcDbSymbolTable
 70
1
100
AcDbDimStyleTable
 71
0
  0
DIMSTYLE
105
27
100
AcDbSymbolTableRecord
100
AcDbDimStyleTableRecord
  2
Standard
 41
4.0
 42
1.0
 43
3.75
 44
2.0
 70
0
 73
0
 74
0
 77
1
 78
8
140
4.0
141
2.5
143
0.03937007874016
147
1.0
171
3
172
1
271
2
272
2
274
3
278
44
283
0
284
8
340
43
  0
ENDTAB
  0
TABLE
  2
BLOCK_RECORD
  5
1
100
AcDbSymbolTable
 70
1
  0
BLOCK_RECORD
  5
1F
100
AcDbSymbolTableRecord
100
AcDbBlockTableRecord
  2
*Model_Space
340
22
  0
BLOCK_RECORD
  5
1B
100
AcDbSymbolTableRecord
100
AcDbBlockTableRecord
  2
*Paper_Space
340
1E
  0
BLOCK_RECORD
  5
23
100
AcDbSymbolTableRecord
100
AcDbBlockTableRecord
  2
*Paper_Space0
340
26
  0
ENDTAB
  0
ENDSEC
  0
SECTION
  2
BLOCKS
  0
BLOCK
  5
20
100
AcDbEntity
  8
0
100
AcDbBlockBegin
  2
*Model_Space
 70
0
 10
0.0
 20
0.0
 30
0.0
  3
*Model_Space
  1

  0
ENDBLK
  5
21
100
AcDbEntity
  8
0
100
AcDbBlockEnd
  0
BLOCK
  5
1C
100
AcDbEntity
 67
1
  8
0
100
AcDbBlockBegin
  2
*Paper_Space
 70
0
 10
0.0
 20
0.0
 30
0.0
  3
*Paper_Space
  1

  0
ENDBLK
  5
1D
100
AcDbEntity
 67
1
  8
0
100
AcDbBlockEnd
  0
BLOCK
  5
24
100
AcDbEntity
  8
0
100
AcDbBlockBegin
  2
*Paper_Space0
 70
0
 10
0.0
 20
0.0
 30
0.0
  3
*Paper_Space0
  1

  0
ENDBLK
  5
25
100
AcDbEntity
  8
0
100
AcDbBlockEnd
  0
ENDSEC
  0
SECTION
  2
ENTITIES
  0
LINE
  5
45
100
AcDbEntity
100
AcDbLine
  8
0
 62
256
370
-1
  6
BYLAYER
 10
20.0500000000000007
 20
33.0499999999999972
 30
0.0
 11
33.9500000000000028
 21
33.0499999999999972
 31
0.0
  0
LINE
  5
46
100
AcDbEntity
100
AcDbLine
  8
0
 62
256
370
-1
  6
BYLAYER
 10
33.9500000000000028
 20
33.0499999999999972
 30
0.0
 11
33.9500000000000028
 21
46.9500000000000028
 31
0.0
  0
LINE
  5
47
100
AcDbEntity
100
AcDbLine
  8
0
 62
256
370
-1
  6
BYLAYER
 10
33.9500000000000028
 20
46.9500000000000028
 30
0.0
 11
20.0500000000000007
 21
46.9500000000000028
 31
0.0
  0
LINE
  5
48
100
AcDbEntity
100
AcDbLine
  8
0
 62
256
370
-1
  6
BYLAYER
 10
20.0500000000000007
 20
46.9500000000000028
 30
0.0
 11
20.0500000000000007
 21
33.0499999999999972
 31
0.0
  0
LINE
  5
49
100
AcDbEntity
100
AcDbLine
  8
0
 62
256
370
-1
  6
BYLAYER
 10
36.9500000000000028
 20
33.0499999999999972
 30
0.0
 11
36.9500000000000028
 21
46.9500000000000028
 31
0.0
  0
LINE
  5
4A
100
AcDbEntity
100
AcDbLine
  8
0
 62
256
370
-1
  6
BYLAYER
 10
33.9500000000000099
 20
49.9500000000000028
 30
0.0
 11
20.0500000000000043
 21
49.9500000000000028
 31
0.0
  0
LINE
  5
4B
100
AcDbEntity
100
AcDbLine
  8
0
 62
256
370
-1
  6
BYLAYER
 10
17.0500000000000007
 20
46.9500000000000028
 30
0.0
 11
17.0500000000000007
 21
33.0499999999999972
 31
0.0
  0
ARC
  5
4C
100
AcDbEntity
  8
0
 62
256
370
-1
  6
BYLAYER
100
AcDbCircle
 10
20.0500000000000007
 20
46.9500000000000028
 30
0.0
 40
3.0
100
AcDbArc
 50
89.9999999999999432
 51
180.0
  0
ARC
  5
4D
100
AcDbEntity
  8
0
 62
256
370
-1
  6
BYLAYER
100
AcDbCircle
 10
33.9500000000000099
 20
46.9500000000000028
 30
0.0
 40
3.0
100
AcDbArc
 50
0.0
 51
90.0
  0
LINE
  5
4E
100
AcDbEntity
100
AcDbLine
  8
0
 62
256
370
-1
  6
BYLAYER
 10
24.0
 20
-59.9500000000000028
 30
0.0
 11
30.0
 21
-59.9500000000000028
 31
0.0
  0
LINE
  5
4F
100
AcDbEntity
100
AcDbLine
  8
0
 62
256
370
-1
  6
BYLAYER
 10
30.0
 20
-59.9500000000000028
 30
0.0
 11
30.0
 21
27.0499999999999972
 31
0.0
  0
LINE
  5
50
100
AcDbEntity
100
AcDbLine
  8
0
 62
256
370
-1
  6
BYLAYER
 10
24.0
 20
27.0500000000000007
 30
0.0
 11
24.0
 21
-59.9500000000000028
 31
0.0
  0
LINE
  5
51
100
AcDbEntity
100
AcDbLine
  8
0
 62
256
370
-1
  6
BYLAYER
 10
20.0500000000000007
 20
30.0500000000000007
 30
0.0
 11
21.0
 21
30.0500000000000007
 31
0.0
  0
LINE
  5
52
100
AcDbEntity
100
AcDbLine
  8
0
 62
256
370
-1
  6
BYLAYER
 10
33.0000000000000071
 20
30.0500000000000007
 30
0.0
 11
33.9500000000000028
 21
30.0500000000000007
 31
0.0
  0
ARC
  5
53
100
AcDbEntity
  8
0
 62
256
370
-1
  6
BYLAYER
100
AcDbCircle
 10
21.0
 20
27.0500000000000007
 30
0.0
 40
3.0
100
AcDbArc
 50
0.0
 51
90.0
  0
ARC
  5
54
100
AcDbEntity
  8
0
 62
256
370
-1
  6
BYLAYER
100
AcDbCircle
 10
33.0000000000000071
 20
27.0500000000000043
 30
0.0
 40
3.0
100
AcDbArc
 50
90.0
 51
180.0
  0
ARC
  5
55
100
AcDbEntity
  8
0
 62
256
370
-1
  6
BYLAYER
100
AcDbCircle
 10
33.9500000000000028
 20
33.0499999999999972
 30
0.0
 40
3.0
100
AcDbArc
 50
270.0
 51
0.0
  0
ARC
  5
56
100
AcDbEntity
  8
0
 62
256
370
-1
  6
BYLAYER
100
AcDbCircle
 10
20.0500000000000007
 20
33.0499999999999972
 30
0.0
 40
3.0
100
AcDbArc
 50
180.0
 51
270.0
  0
LINE
  5
57
100
AcDbEntity
100
AcDbLine
  8
0
 62
256
370
-1
  6
BYLAYER
 10
32.5
 20
-60.0
 30
0.0
 11
33.5
 21
-60.0
 31
0.0
  0
LINE
  5
58
100
AcDbEntity
100
AcDbLine
  8
0
 62
256
370
-1
  6
BYLAYER
 10
35.5
 20
-58.0
 30
0.0
 11
35.5
 21
26.0
 31
0.0
  0
LINE
  5
59
100
AcDbEntity
100
AcDbLine
  8
0
 62
256
370
-1
  6
BYLAYER
 10
33.5
 20
28.0
 30
0.0
 11
32.5
 21
28.0
 31
0.0
  0
LINE
  5
5A
100
AcDbEntity
100
AcDbLine
  8
0
 62
256
370
-1
  6
BYLAYER
 10
32.5
 20
28.0
 30
0.0
 11
32.5
 21
-60.0
 31
0.0
  0
ARC
  5
5B
100
AcDbEntity
  8
0
 62
256
370
-1
  6
BYLAYER
100
AcDbCircle
 10
33.5
 20
26.0
 30
0.0
 40
2.0
100
AcDbArc
 50
0.0
 51
90.0
  0
ARC
  5
5C
100
AcDbEntity
  8
0
 62
256
370
-1
  6
BYLAYER
100
AcDbCircle
 10
33.5
 20
-58.0
 30
0.0
 40
2.0
100
AcDbArc
 50
270.0
 51
0.0
  0
LINE
  5
5D
100
AcDbEntity
100
AcDbLine
  8
0
 62
256
370
-1
  6
BYLAYER
 10
43.0499999999999972
 20
-43.0499999999999972
 30
0.0
 11
56.9500000000000028
 21
-43.0499999999999901
 31
0.0
  0
LINE
  5
5E
100
AcDbEntity
100
AcDbLine
  8
0
 62
256
370
-1
  6
BYLAYER
 10
56.9500000000000028
 20
-43.0499999999999901
 30
0.0
 11
56.9500000000000028
 21
-56.9500000000000028
 31
0.0
  0
LINE
  5
5F
100
AcDbEntity
100
AcDbLine
  8
0
 62
256
370
-1
  6
BYLAYER
 10
56.9500000000000028
 20
-56.9500000000000028
 30
0.0
 11
43.0499999999999972
 21
-56.9500000000000028
 31
0.0
  0
LINE
  5
60
100
AcDbEntity
100
AcDbLine
  8
0
 62
256
370
-1
  6
BYLAYER
 10
43.0499999999999972
 20
-56.9500000000000028
 30
0.0
 11
43.0499999999999972
 21
-43.0499999999999972
 31
0.0
  0
LINE
  5
61
100
AcDbEntity
100
AcDbLine
  8
0
 62
256
370
-1
  6
BYLAYER
 10
59.9500000000000028
 20
-43.0499999999999829
 30
0.0
 11
59.9500000000000028
 21
-56.9500000000000099
 31
0.0
  0
LINE
  5
62
100
AcDbEntity
100
AcDbLine
  8
0
 62
256
370
-1
  6
BYLAYER
 10
56.9500000000000099
 20
-59.9500000000000028
 30
0.0
 11
43.0500000000000043
 21
-59.9500000000000028
 31
0.0
  0
LINE
  5
63
100
AcDbEntity
100
AcDbLine
  8
0
 62
256
370
-1
  6
BYLAYER
 10
40.0499999999999972
 20
-56.9500000000000028
 30
0.0
 11
40.0499999999999972
 21
-43.0499999999999972
 31
0.0
  0
ARC
  5
64
100
AcDbEntity
  8
0
 62
256
370
-1
  6
BYLAYER
100
AcDbCircle
 10
43.0499999999999972
 20
-56.9500000000000028
 30
0.0
 40
3.0
100
AcDbArc
 50
180.0
 51
270.0000000000000568
  0
ARC
  5
65
100
AcDbEntity
  8
0
 62
256
370
-1
  6
BYLAYER
100
AcDbCircle
 10
56.9500000000000099
 20
-56.9500000000000028
 30
0.0
 40
3.0
100
AcDbArc
 50
270.0
 51
0.0
  0
LINE
  5
66
100
AcDbEntity
100
AcDbLine
  8
0
 62
256
370
-1
  6
BYLAYER
 10
46.9999999999999716
 20
49.9499999999999886
 30
0.0
 11
52.9999999999999858
 21
49.9499999999999886
 31
0.0
  0
LINE
  5
67
100
AcDbEntity
100
AcDbLine
  8
0
 62
256
370
-1
  6
BYLAYER
 10
52.9999999999999858
 20
49.9499999999999886
 30
0.0
 11
53.0
 21
-37.0499999999999972
 31
0.0
  0
LINE
  5
68
100
AcDbEntity
100
AcDbLine
  8
0
 62
256
370
-1
  6
BYLAYER
 10
47.0
 20
-37.0499999999999972
 30
0.0
 11
46.9999999999999716
 21
49.9499999999999886
 31
0.0
  0
LINE
  5
69
100
AcDbEntity
100
AcDbLine
  8
0
 62
256
370
-1
  6
BYLAYER
 10
43.0499999999999972
 20
-40.0500000000000043
 30
0.0
 11
44.0
 21
-40.0499999999999972
 31
0.0
  0
LINE
  5
6A
100
AcDbEntity
100
AcDbLine
  8
0
 62
256
370
-1
  6
BYLAYER
 10
56.0
 20
-40.0499999999999972
 30
0.0
 11
56.9500000000000028
 21
-40.0499999999999972
 31
0.0
  0
ARC
  5
6B
100
AcDbEntity
  8
0
 62
256
370
-1
  6
BYLAYER
100
AcDbCircle
 10
43.9999999999999929
 20
-37.0499999999999972
 30
0.0
 40
3.0
100
AcDbArc
 50
270.0
 51
0.0
  0
ARC
  5
6C
100
AcDbEntity
  8
0
 62
256
370
-1
  6
BYLAYER
100
AcDbCircle
 10
56.0
 20
-37.0499999999999972
 30
0.0
 40
3.0
100
AcDbArc
 50
180.0
 51
270.0
  0
ARC
  5
6D
100
AcDbEntity
  8
0
 62
256
370
-1
  6
BYLAYER
100
AcDbCircle
 10
56.9500000000000028
 20
-43.0499999999999901
 30
0.0
 40
3.0
100
AcDbArc
 50
0.0
 51
90.0000000000000142
  0
ARC
  5
6E
100
AcDbEntity
  8
0
 62
256
370
-1
  6
BYLAYER
100
AcDbCircle
 10
43.0499999999999972
 20
-43.0499999999999972
 30
0.0
 40
3.0
100
AcDbArc
 50
90.0000000000000142
 51
180.0
  0
LINE
  5
6F
100
AcDbEntity
100
AcDbLine
  8
0
 62
256
370
-1
  6
BYLAYER
 10
55.5000000000000213
 20
50.0
 30
0.0
 11
56.5000000000000284
 21
50.0
 31
0.0
  0
LINE
  5
70
100
AcDbEntity
100
AcDbLine
  8
0
 62
256
370
-1
  6
BYLAYER
 10
58.4999999999999432
 20
48.0
 30
0.0
 11
58.4999999999999858
 21
-35.9999999999999858
 31
0.0
  0
LINE
  5
71
100
AcDbEntity
100
AcDbLine
  8
0
 62
256
370
-1
  6
BYLAYER
 10
56.5
 20
-37.9999999999999929
 30
0.0
 11
55.4999999999999929
 21
-37.9999999999999929
 31
0.0
  0
LINE
  5
72
100
AcDbEntity
100
AcDbLine
  8
0
 62
256
370
-1
  6
BYLAYER
 10
55.4999999999999929
 20
-37.9999999999999929
 30
0.0
 11
55.5000000000000213
 21
50.0
 31
0.0
  0
ARC
  5
73
100
AcDbEntity
  8
0
 62
256
370
-1
  6
BYLAYER
100
AcDbCircle
 10
56.4999999999999929
 20
-35.9999999999999858
 30
0.0
 40
2.0
100
AcDbArc
 50
270.0
 51
0.0
  0
ARC
  5
74
100
AcDbEntity
  8
0
 62
256
370
-1
  6
BYLAYER
100
AcDbCircle
 10
56.5000000000000142
 20
48.0
 30
0.0
 40
2.0
100
AcDbArc
 50
0.0
 51
90.0000000000000142
  0
LINE
  5
75
100
AcDbEntity
100
AcDbLine
  8
0
 62
256
370
-1
  6
BYLAYER
 10
65.4473201991000764
 20
33.0499999999999972
 30
0.0
 11
79.347320199100082
 21
33.0499999999999972
 31
0.0
  0
LINE
  5
76
100
AcDbEntity
100
AcDbLine
  8
0
 62
256
370
-1
  6
BYLAYER
 10
79.347320199100082
 20
33.0499999999999972
 30
0.0
 11
79.347320199100082
 21
46.9500000000000028
 31
0.0
  0
LINE
  5
77
100
AcDbEntity
100
AcDbLine
  8
0
 62
256
370
-1
  6
BYLAYER
 10
79.347320199100082
 20
46.9500000000000028
 30
0.0
 11
65.4473201991000764
 21
46.9500000000000028
 31
0.0
  0
LINE
  5
78
100
AcDbEntity
100
AcDbLine
  8
0
 62
256
370
-1
  6
BYLAYER
 10
65.4473201991000764
 20
46.9500000000000028
 30
0.0
 11
65.4473201991000764
 21
33.0499999999999972
 31
0.0
  0
LINE
  5
79
100
AcDbEntity
100
AcDbLine
  8
0
 62
256
370
-1
  6
BYLAYER
 10
82.347320199100082
 20
33.0499999999999972
 30
0.0
 11
82.347320199100082
 21
46.9500000000000028
 31
0.0
  0
LINE
  5
7A
100
AcDbEntity
100
AcDbLine
  8
0
 62
256
370
-1
  6
BYLAYER
 10
79.3473201991000963
 20
49.9500000000000028
 30
0.0
 11
65.4473201991000906
 21
49.9500000000000028
 31
0.0
  0
LINE
  5
7B
100
AcDbEntity
100
AcDbLine
  8
0
 62
256
370
-1
  6
BYLAYER
 10
62.4473201991000764
 20
46.9500000000000028
 30
0.0
 11
62.4473201991000764
 21
33.0499999999999972
 31
0.0
  0
ARC
  5
7C
100
AcDbEntity
  8
0
 62
256
370
-1
  6
BYLAYER
100
AcDbCircle
 10
65.4473201991000764
 20
46.9500000000000028
 30
0.0
 40
3.0
100
AcDbArc
 50
89.9999999999999432
 51
180.0
  0
ARC
  5
7D
100
AcDbEntity
  8
0
 62
256
370
-1
  6
BYLAYER
100
AcDbCircle
 10
79.3473201991000963
 20
46.9500000000000028
 30
0.0
 40
3.0
100
AcDbArc
 50
0.0
 51
90.0
  0
LINE
  5
7E
100
AcDbEntity
100
AcDbLine
  8
0
 62
256
370
-1
  6
BYLAYER
 10
69.3973201991000792
 20
-59.9500000000000028
 30
0.0
 11
75.3973201991000792
 21
-59.9500000000000028
 31
0.0
  0
LINE
  5
7F
100
AcDbEntity
100
AcDbLine
  8
0
 62
256
370
-1
  6
BYLAYER
 10
75.3973201991000792
 20
-59.9500000000000028
 30
0.0
 11
75.3973201991000792
 21
27.0499999999999972
 31
0.0
  0
LINE
  5
80
100
AcDbEntity
100
AcDbLine
  8
0
 62
256
370
-1
  6
BYLAYER
 10
69.3973201991000792
 20
27.0500000000000007
 30
0.0
 11
69.3973201991000792
 21
-59.9500000000000028
 31
0.0
  0
LINE
  5
81
100
AcDbEntity
100
AcDbLine
  8
0
 62
256
370
-1
  6
BYLAYER
 10
65.4473201991000764
 20
30.0500000000000007
 30
0.0
 11
66.3973201991000792
 21
30.0500000000000007
 31
0.0
  0
LINE
  5
82
100
AcDbEntity
100
AcDbLine
  8
0
 62
256
370
-1
  6
BYLAYER
 10
78.3973201991000792
 20
30.0500000000000007
 30
0.0
 11
79.347320199100082
 21
30.0500000000000007
 31
0.0
  0
ARC
  5
83
100
AcDbEntity
  8
0
 62
256
370
-1
  6
BYLAYER
100
AcDbCircle
 10
66.3973201991000792
 20
27.0500000000000007
 30
0.0
 40
3.0
100
AcDbArc
 50
0.0
 51
90.0
  0
ARC
  5
84
100
AcDbEntity
  8
0
 62
256
370
-1
  6
BYLAYER
100
AcDbCircle
 10
78.3973201991000792
 20
27.0500000000000043
 30
0.0
 40
3.0
100
AcDbArc
 50
90.0
 51
180.0
  0
ARC
  5
85
100
AcDbEntity
  8
0
 62
256
370
-1
  6
BYLAYER
100
AcDbCircle
 10
79.347320199100082
 20
33.0499999999999972
 30
0.0
 40
3.0
100
AcDbArc
 50
270.0
 51
0.0
  0
ARC
  5
86
100
AcDbEntity
  8
0
 62
256
370
-1
  6
BYLAYER
100
AcDbCircle
 10
65.4473201991000764
 20
33.0499999999999972
 30
0.0
 40
3.0
100
AcDbArc
 50
180.0
 51
270.0
  0
LINE
  5
87
100
AcDbEntity
100
AcDbLine
  8
0
 62
256
370
-1
  6
BYLAYER
 10
77.8973201991000792
 20
-60.0
 30
0.0
 11
78.8973201991000792
 21
-60.0
 31
0.0
  0
LINE
  5
88
100
AcDbEntity
100
AcDbLine
  8
0
 62
256
370
-1
  6
BYLAYER
 10
80.8973201991000792
 20
-58.0
 30
0.0
 11
80.8973201991000792
 21
26.0
 31
0.0
  0
LINE
  5
89
100
AcDbEntity
100
AcDbLine
  8
0
 62
256
370
-1
  6
BYLAYER
 10
78.8973201991000792
 20
28.0
 30
0.0
 11
77.8973201991000792
 21
28.0
 31
0.0
  0
LINE
  5
8A
100
AcDbEntity
100
AcDbLine
  8
0
 62
256
370
-1
  6
BYLAYER
 10
77.8973201991000792
 20
28.0
 30
0.0
 11
77.8973201991000792
 21
-60.0
 31
0.0
  0
ARC
  5
8B
100
AcDbEntity
  8
0
 62
256
370
-1
  6
BYLAYER
100
AcDbCircle
 10
78.8973201991000792
 20
26.0
 30
0.0
 40
2.0
100
AcDbArc
 50
0.0
 51
90.0
  0
ARC
  5
8C
100
AcDbEntity
  8
0
 62
256
370
-1
  6
BYLAYER
100
AcDbCircle
 10
78.8973201991000792
 20
-58.0
 30
0.0
 40
2.0
100
AcDbArc
 50
270.0
 51
0.0
  0
LINE
  5
8D
100
AcDbEntity
100
AcDbLine
  8
0
 62
256
370
-1
  6
BYLAYER
 10
88.4473201991000764
 20
-43.0499999999999972
 30
0.0
 11
102.347320199100082
 21
-43.0499999999999901
 31
0.0
  0
LINE
  5
8E
100
AcDbEntity
100
AcDbLine
  8
0
 62
256
370
-1
  6
BYLAYER
 10
102.347320199100082
 20
-43.0499999999999901
 30
0.0
 11
102.347320199100082
 21
-56.9500000000000028
 31
0.0
  0
LINE
  5
8F
100
AcDbEntity
100
AcDbLine
  8
0
 62
256
370
-1
  6
BYLAYER
 10
102.347320199100082
 20
-56.9500000000000028
 30
0.0
 11
88.4473201991000764
 21
-56.9500000000000028
 31
0.0
  0
LINE
  5
90
100
AcDbEntity
100
AcDbLine
  8
0
 62
256
370
-1
  6
BYLAYER
 10
88.4473201991000764
 20
-56.9500000000000028
 30
0.0
 11
88.4473201991000764
 21
-43.0499999999999972
 31
0.0
  0
LINE
  5
91
100
AcDbEntity
100
AcDbLine
  8
0
 62
256
370
-1
  6
BYLAYER
 10
105.347320199100082
 20
-43.0499999999999829
 30
0.0
 11
105.347320199100082
 21
-56.9500000000000099
 31
0.0
  0
LINE
  5
92
100
AcDbEntity
100
AcDbLine
  8
0
 62
256
370
-1
  6
BYLAYER
 10
102.3473201991000963
 20
-59.9500000000000028
 30
0.0
 11
88.4473201991000906
 21
-59.9500000000000028
 31
0.0
  0
LINE
  5
93
100
AcDbEntity
100
AcDbLine
  8
0
 62
256
370
-1
  6
BYLAYER
 10
85.4473201991000764
 20
-56.9500000000000028
 30
0.0
 11
85.4473201991000764
 21
-43.0499999999999972
 31
0.0
  0
ARC
  5
94
100
AcDbEntity
  8
0
 62
256
370
-1
  6
BYLAYER
100
AcDbCircle
 10
88.4473201991000764
 20
-56.9500000000000028
 30
0.0
 40
3.0
100
AcDbArc
 50
180.0
 51
270.0000000000000568
  0
ARC
  5
95
100
AcDbEntity
  8
0
 62
256
370
-1
  6
BYLAYER
100
AcDbCircle
 10
102.3473201991000963
 20
-56.9500000000000028
 30
0.0
 40
3.0
100
AcDbArc
 50
270.0
 51
0.0
  0
LINE
  5
96
100
AcDbEntity
100
AcDbLine
  8
0
 62
256
370
-1
  6
BYLAYER
 10
92.3973201991000508
 20
49.9499999999999886
 30
0.0
 11
98.397320199100065
 21
49.9499999999999886
 31
0.0
  0
LINE
  5
97
100
AcDbEntity
100
AcDbLine
  8
0
 62
256
370
-1
  6
BYLAYER
 10
98.397320199100065
 20
49.9499999999999886
 30
0.0
 11
98.3973201991000792
 21
-37.0499999999999972
 31
0.0
  0
LINE
  5
98
100
AcDbEntity
100
AcDbLine
  8
0
 62
256
370
-1
  6
BYLAYER
 10
92.3973201991000792
 20
-37.0499999999999972
 30
0.0
 11
92.3973201991000508
 21
49.9499999999999886
 31
0.0
  0
LINE
  5
99
100
AcDbEntity
100
AcDbLine
  8
0
 62
256
370
-1
  6
BYLAYER
 10
88.4473201991000764
 20
-40.0500000000000043
 30
0.0
 11
89.3973201991000792
 21
-40.0499999999999972
 31
0.0
  0
LINE
  5
9A
100
AcDbEntity
100
AcDbLine
  8
0
 62
256
370
-1
  6
BYLAYER
 10
101.3973201991000792
 20
-40.0499999999999972
 30
0.0
 11
102.347320199100082
 21
-40.0499999999999972
 31
0.0
  0
ARC
  5
9B
100
AcDbEntity
  8
0
 62
256
370
-1
  6
BYLAYER
100
AcDbCircle
 10
89.3973201991000792
 20
-37.0499999999999972
 30
0.0
 40
3.0
100
AcDbArc
 50
270.0
 51
0.0
  0
ARC
  5
9C
100
AcDbEntity
  8
0
 62
256
370
-1
  6
BYLAYER
100
AcDbCircle
 10
101.3973201991000792
 20
-37.0499999999999972
 30
0.0
 40
3.0
100
AcDbArc
 50
180.0
 51
270.0
  0
ARC
  5
9D
100
AcDbEntity
  8
0
 62
256
370
-1
  6
BYLAYER
100
AcDbCircle
 10
102.347320199100082
 20
-43.0499999999999901
 30
0.0
 40
3.0
100
AcDbArc
 50
0.0
 51
90.0000000000000142
  0
ARC
  5
9E
100
AcDbEntity
  8
0
 62
256
370
-1
  6
BYLAYER
100
AcDbCircle
 10
88.4473201991000764
 20
-43.0499999999999972
 30
0.0
 40
3.0
100
AcDbArc
 50
90.0000000000000142
 51
180.0
  0
LINE
  5
9F
100
AcDbEntity
100
AcDbLine
  8
0
 62
256
370
-1
  6
BYLAYER
 10
100.8973201991001076
 20
50.0
 30
0.0
 11
101.8973201991001076
 21
50.0
 31
0.0
  0
LINE
  5
A0
100
AcDbEntity
100
AcDbLine
  8
0
 62
256
370
-1
  6
BYLAYER
 10
103.8973201991000224
 20
48.0
 30
0.0
 11
103.897320199100065
 21
-35.9999999999999858
 31
0.0
  0
LINE
  5
A1
100
AcDbEntity
100
AcDbLine
  8
0
 62
256
370
-1
  6
BYLAYER
 10
101.8973201991000792
 20
-37.9999999999999929
 30
0.0
 11
100.8973201991000792
 21
-37.9999999999999929
 31
0.0
  0
LINE
  5
A2
100
AcDbEntity
100
AcDbLine
  8
0
 62
256
370
-1
  6
BYLAYER
 10
100.8973201991000792
 20
-37.9999999999999929
 30
0.0
 11
100.8973201991001076
 21
50.0
 31
0.0
  0
ARC
  5
A3
100
AcDbEntity
  8
0
 62
256
370
-1
  6
BYLAYER
100
AcDbCircle
 10
101.8973201991000792
 20
-35.9999999999999858
 30
0.0
 40
2.0
100
AcDbArc
 50
270.0
 51
0.0
  0
ARC
  5
A4
100
AcDbEntity
  8
0
 62
256
370
-1
  6
BYLAYER
100
AcDbCircle
 10
101.8973201991000934
 20
48.0
 30
0.0
 40
2.0
100
AcDbArc
 50
0.0
 51
90.0000000000000142
  0
LINE
  5
A5
100
AcDbEntity
100
AcDbLine
  8
0
 62
256
370
-1
  6
BYLAYER
 10
110.8446403982001556
 20
33.0499999999999972
 30
0.0
 11
124.7446403982001613
 21
33.0499999999999972
 31
0.0
  0
LINE
  5
A6
100
AcDbEntity
100
AcDbLine
  8
0
 62
256
370
-1
  6
BYLAYER
 10
124.7446403982001613
 20
33.0499999999999972
 30
0.0
 11
124.7446403982001613
 21
46.9500000000000028
 31
0.0
  0
LINE
  5
A7
100
AcDbEntity
100
AcDbLine
  8
0
 62
256
370
-1
  6
BYLAYER
 10
124.7446403982001613
 20
46.9500000000000028
 30
0.0
 11
110.8446403982001556
 21
46.9500000000000028
 31
0.0
  0
LINE
  5
A8
100
AcDbEntity
100
AcDbLine
  8
0
 62
256
370
-1
  6
BYLAYER
 10
110.8446403982001556
 20
46.9500000000000028
 30
0.0
 11
110.8446403982001556
 21
33.0499999999999972
 31
0.0
  0
LINE
  5
A9
100
AcDbEntity
100
AcDbLine
  8
0
 62
256
370
-1
  6
BYLAYER
 10
127.7446403982001613
 20
33.0499999999999972
 30
0.0
 11
127.7446403982001613
 21
46.9500000000000028
 31
0.0
  0
LINE
  5
AA
100
AcDbEntity
100
AcDbLine
  8
0
 62
256
370
-1
  6
BYLAYER
 10
124.7446403982001755
 20
49.9500000000000028
 30
0.0
 11
110.8446403982001698
 21
49.9500000000000028
 31
0.0
  0
LINE
  5
AB
100
AcDbEntity
100
AcDbLine
  8
0
 62
256
370
-1
  6
BYLAYER
 10
107.8446403982001556
 20
46.9500000000000028
 30
0.0
 11
107.8446403982001556
 21
33.0499999999999972
 31
0.0
  0
ARC
  5
AC
100
AcDbEntity
  8
0
 62
256
370
-1
  6
BYLAYER
100
AcDbCircle
 10
110.8446403982001556
 20
46.9500000000000028
 30
0.0
 40
3.0
100
AcDbArc
 50
89.9999999999999432
 51
180.0
  0
ARC
  5
AD
100
AcDbEntity
  8
0
 62
256
370
-1
  6
BYLAYER
100
AcDbCircle
 10
124.7446403982001755
 20
46.9500000000000028
 30
0.0
 40
3.0
100
AcDbArc
 50
0.0
 51
90.0
  0
LINE
  5
AE
100
AcDbEntity
100
AcDbLine
  8
0
 62
256
370
-1
  6
BYLAYER
 10
114.7946403982001584
 20
-59.9500000000000028
 30
0.0
 11
120.7946403982001584
 21
-59.9500000000000028
 31
0.0
  0
LINE
  5
AF
100
AcDbEntity
100
AcDbLine
  8
0
 62
256
370
-1
  6
BYLAYER
 10
120.7946403982001584
 20
-59.9500000000000028
 30
0.0
 11
120.7946403982001584
 21
27.0499999999999972
 31
0.0
  0
LINE
  5
B0
100
AcDbEntity
100
AcDbLine
  8
0
 62
256
370
-1
  6
BYLAYER
 10
114.7946403982001584
 20
27.0500000000000007
 30
0.0
 11
114.7946403982001584
 21
-59.9500000000000028
 31
0.0
  0
LINE
  5
B1
100
AcDbEntity
100
AcDbLine
  8
0
 62
256
370
-1
  6
BYLAYER
 10
110.8446403982001556
 20
30.0500000000000007
 30
0.0
 11
111.7946403982001584
 21
30.0500000000000007
 31
0.0
  0
LINE
  5
B2
100
AcDbEntity
100
AcDbLine
  8
0
 62
256
370
-1
  6
BYLAYER
 10
123.7946403982001584
 20
30.0500000000000007
 30
0.0
 11
124.7446403982001613
 21
30.0500000000000007
 31
0.0
  0
ARC
  5
B3
100
AcDbEntity
  8
0
 62
256
370
-1
  6
BYLAYER
100
AcDbCircle
 10
111.7946403982001584
 20
27.0500000000000007
 30
0.0
 40
3.0
100
AcDbArc
 50
0.0
 51
90.0
  0
ARC
  5
B4
100
AcDbEntity
  8
0
 62
256
370
-1
  6
BYLAYER
100
AcDbCircle
 10
123.7946403982001584
 20
27.0500000000000043
 30
0.0
 40
3.0
100
AcDbArc
 50
90.0
 51
180.0
  0
ARC
  5
B5
100
AcDbEntity
  8
0
 62
256
370
-1
  6
BYLAYER
100
AcDbCircle
 10
124.7446403982001613
 20
33.0499999999999972
 30
0.0
 40
3.0
100
AcDbArc
 50
270.0
 51
0.0
  0
ARC
  5
B6
100
AcDbEntity
  8
0
 62
256
370
-1
  6
BYLAYER
100
AcDbCircle
 10
110.8446403982001556
 20
33.0499999999999972
 30
0.0
 40
3.0
100
AcDbArc
 50
180.0
 51
270.0
  0
LINE
  5
B7
100
AcDbEntity
100
AcDbLine
  8
0
 62
256
370
-1
  6
BYLAYER
 10
123.2946403982001584
 20
-60.0
 30
0.0
 11
124.2946403982001584
 21
-60.0
 31
0.0
  0
LINE
  5
B8
100
AcDbEntity
100
AcDbLine
  8
0
 62
256
370
-1
  6
BYLAYER
 10
126.2946403982001584
 20
-58.0
 30
0.0
 11
126.2946403982001584
 21
26.0
 31
0.0
  0
LINE
  5
B9
100
AcDbEntity
100
AcDbLine
  8
0
 62
256
370
-1
  6
BYLAYER
 10
124.2946403982001584
 20
28.0
 30
0.0
 11
123.2946403982001584
 21
28.0
 31
0.0
  0
LINE
  5
BA
100
AcDbEntity
100
AcDbLine
  8
0
 62
256
370
-1
  6
BYLAYER
 10
123.2946403982001584
 20
28.0
 30
0.0
 11
123.2946403982001584
 21
-60.0
 31
0.0
  0
ARC
  5
BB
100
AcDbEntity
  8
0
 62
256
370
-1
  6
BYLAYER
100
AcDbCircle
 10
124.2946403982001584
 20
26.0
 30
0.0
 40
2.0
100
AcDbArc
 50
0.0
 51
90.0
  0
ARC
  5
BC
100
AcDbEntity
  8
0
 62
256
370
-1
  6
BYLAYER
100
AcDbCircle
 10
124.2946403982001584
 20
-58.0
 30
0.0
 40
2.0
100
AcDbArc
 50
270.0
 51
0.0
  0
LINE
  5
BD
100
AcDbEntity
100
AcDbLine
  8
0
 62
256
370
-1
  6
BYLAYER
 10
133.8446403982001698
 20
-43.0499999999999972
 30
0.0
 11
147.744640398200147
 21
-43.0499999999999901
 31
0.0
  0
LINE
  5
BE
100
AcDbEntity
100
AcDbLine
  8
0
 62
256
370
-1
  6
BYLAYER
 10
147.744640398200147
 20
-43.0499999999999901
 30
0.0
 11
147.744640398200147
 21
-56.9500000000000028
 31
0.0
  0
LINE
  5
BF
100
AcDbEntity
100
AcDbLine
  8
0
 62
256
370
-1
  6
BYLAYER
 10
147.744640398200147
 20
-56.9500000000000028
 30
0.0
 11
133.8446403982001698
 21
-56.9500000000000028
 31
0.0
  0
LINE
  5
C0
100
AcDbEntity
100
AcDbLine
  8
0
 62
256
370
-1
  6
BYLAYER
 10
133.8446403982001698
 20
-56.9500000000000028
 30
0.0
 11
133.8446403982001698
 21
-43.0499999999999972
 31
0.0
  0
LINE
  5
C1
100
AcDbEntity
100
AcDbLine
  8
0
 62
256
370
-1
  6
BYLAYER
 10
150.744640398200147
 20
-43.0499999999999829
 30
0.0
 11
150.744640398200147
 21
-56.9500000000000099
 31
0.0
  0
LINE
  5
C2
100
AcDbEntity
100
AcDbLine
  8
0
 62
256
370
-1
  6
BYLAYER
 10
147.7446403982001755
 20
-59.9500000000000028
 30
0.0
 11
133.8446403982001698
 21
-59.9500000000000028
 31
0.0
  0
LINE
  5
C3
100
AcDbEntity
100
AcDbLine
  8
0
 62
256
370
-1
  6
BYLAYER
 10
130.8446403982001698
 20
-56.9500000000000028
 30
0.0
 11
130.8446403982001698
 21
-43.0499999999999972
 31
0.0
  0
ARC
  5
C4
100
AcDbEntity
  8
0
 62
256
370
-1
  6
BYLAYER
100
AcDbCircle
 10
133.8446403982001698
 20
-56.9500000000000028
 30
0.0
 40
3.0
100
AcDbArc
 50
180.0
 51
270.0000000000000568
  0
ARC
  5
C5
100
AcDbEntity
  8
0
 62
256
370
-1
  6
BYLAYER
100
AcDbCircle
 10
147.7446403982001755
 20
-56.9500000000000028
 30
0.0
 40
3.0
100
AcDbArc
 50
270.0
 51
0.0
  0
LINE
  5
C6
100
AcDbEntity
100
AcDbLine
  8
0
 62
256
370
-1
  6
BYLAYER
 10
137.79464039820013
 20
49.9499999999999886
 30
0.0
 11
143.7946403982001584
 21
49.9499999999999886
 31
0.0
  0
LINE
  5
C7
100
AcDbEntity
100
AcDbLine
  8
0
 62
256
370
-1
  6
BYLAYER
 10
143.7946403982001584
 20
49.9499999999999886
 30
0.0
 11
143.7946403982001584
 21
-37.0499999999999972
 31
0.0
  0
LINE
  5
C8
100
AcDbEntity
100
AcDbLine
  8
0
 62
256
370
-1
  6
BYLAYER
 10
137.7946403982001584
 20
-37.0499999999999972
 30
0.0
 11
137.79464039820013
 21
49.9499999999999886
 31
0.0
  0
LINE
  5
C9
100
AcDbEntity
100
AcDbLine
  8
0
 62
256
370
-1
  6
BYLAYER
 10
133.8446403982001698
 20
-40.0500000000000043
 30
0.0
 11
134.7946403982001584
 21
-40.0499999999999972
 31
0.0
  0
LINE
  5
CA
100
AcDbEntity
100
AcDbLine
  8
0
 62
256
370
-1
  6
BYLAYER
 10
146.7946403982001584
 20
-40.0499999999999972
 30
0.0
 11
147.744640398200147
 21
-40.0499999999999972
 31
0.0
  0
ARC
  5
CB
100
AcDbEntity
  8
0
 62
256
370
-1
  6
BYLAYER
100
AcDbCircle
 10
134.7946403982001584
 20
-37.0499999999999972
 30
0.0
 40
3.0
100
AcDbArc
 50
270.0
 51
0.0
  0
ARC
  5
CC
100
AcDbEntity
  8
0
 62
256
370
-1
  6
BYLAYER
100
AcDbCircle
 10
146.7946403982001584
 20
-37.0499999999999972
 30
0.0
 40
3.0
100
AcDbArc
 50
180.0
 51
270.0
  0
ARC
  5
CD
100
AcDbEntity
  8
0
 62
256
370
-1
  6
BYLAYER
100
AcDbCircle
 10
147.744640398200147
 20
-43.0499999999999901
 30
0.0
 40
3.0
100
AcDbArc
 50
0.0
 51
90.0000000000000142
  0
ARC
  5
CE
100
AcDbEntity
  8
0
 62
256
370
-1
  6
BYLAYER
100
AcDbCircle
 10
133.8446403982001698
 20
-43.0499999999999972
 30
0.0
 40
3.0
100
AcDbArc
 50
90.0000000000000142
 51
180.0
  0
LINE
  5
CF
100
AcDbEntity
100
AcDbLine
  8
0
 62
256
370
-1
  6
BYLAYER
 10
146.2946403982001868
 20
50.0
 30
0.0
 11
147.2946403982001868
 21
50.0
 31
0.0
  0
LINE
  5
D0
100
AcDbEntity
100
AcDbLine
  8
0
 62
256
370
-1
  6
BYLAYER
 10
149.2946403982001016
 20
48.0
 30
0.0
 11
149.2946403982001584
 21
-35.9999999999999858
 31
0.0
  0
LINE
  5
D1
100
AcDbEntity
100
AcDbLine
  8
0
 62
256
370
-1
  6
BYLAYER
 10
147.2946403982001584
 20
-37.9999999999999929
 30
0.0
 11
146.2946403982001584
 21
-37.9999999999999929
 31
0.0
  0
LINE
  5
D2
100
AcDbEntity
100
AcDbLine
  8
0
 62
256
370
-1
  6
BYLAYER
 10
146.2946403982001584
 20
-37.9999999999999929
 30
0.0
 11
146.2946403982001868
 21
50.0
 31
0.0
  0
ARC
  5
D3
100
AcDbEntity
  8
0
 62
256
370
-1
  6
BYLAYER
100
AcDbCircle
 10
147.2946403982001584
 20
-35.9999999999999858
 30
0.0
 40
2.0
100
AcDbArc
 50
270.0
 51
0.0
  0
ARC
  5
D4
100
AcDbEntity
  8
0
 62
256
370
-1
  6
BYLAYER
100
AcDbCircle
 10
147.2946403982001584
 20
48.0
 30
0.0
 40
2.0
100
AcDbArc
 50
0.0
 51
90.0000000000000142
  0
LINE
  5
D5
100
AcDbEntity
100
AcDbLine
  8
0
 62
256
370
-1
  6
BYLAYER
 10
20.0500000000000007
 20
-83.3999999999999915
 30
0.0
 11
33.9500000000000028
 21
-83.3999999999999915
 31
0.0
  0
LINE
  5
D6
100
AcDbEntity
100
AcDbLine
  8
0
 62
256
370
-1
  6
BYLAYER
 10
33.9500000000000028
 20
-83.3999999999999915
 30
0.0
 11
33.9500000000000028
 21
-69.4999999999999858
 31
0.0
  0
LINE
  5
D7
100
AcDbEntity
100
AcDbLine
  8
0
 62
256
370
-1
  6
BYLAYER
 10
33.9500000000000028
 20
-69.4999999999999858
 30
0.0
 11
20.0500000000000007
 21
-69.4999999999999858
 31
0.0
  0
LINE
  5
D8
100
AcDbEntity
100
AcDbLine
  8
0
 62
256
370
-1
  6
BYLAYER
 10
20.0500000000000007
 20
-69.4999999999999858
 30
0.0
 11
20.0500000000000007
 21
-83.3999999999999915
 31
0.0
  0
LINE
  5
D9
100
AcDbEntity
100
AcDbLine
  8
0
 62
256
370
-1
  6
BYLAYER
 10
36.9500000000000028
 20
-83.3999999999999915
 30
0.0
 11
36.9500000000000028
 21
-69.4999999999999858
 31
0.0
  0
LINE
  5
DA
100
AcDbEntity
100
AcDbLine
  8
0
 62
256
370
-1
  6
BYLAYER
 10
33.9500000000000099
 20
-66.4999999999999858
 30
0.0
 11
20.0500000000000043
 21
-66.4999999999999858
 31
0.0
  0
LINE
  5
DB
100
AcDbEntity
100
AcDbLine
  8
0
 62
256
370
-1
  6
BYLAYER
 10
17.0500000000000007
 20
-69.4999999999999858
 30
0.0
 11
17.0500000000000007
 21
-83.3999999999999915
 31
0.0
  0
ARC
  5
DC
100
AcDbEntity
  8
0
 62
256
370
-1
  6
BYLAYER
100
AcDbCircle
 10
20.0500000000000007
 20
-69.4999999999999858
 30
0.0
 40
3.0
100
AcDbArc
 50
89.9999999999999432
 51
180.0
  0
ARC
  5
DD
100
AcDbEntity
  8
0
 62
256
370
-1
  6
BYLAYER
100
AcDbCircle
 10
33.9500000000000099
 20
-69.4999999999999858
 30
0.0
 40
3.0
100
AcDbArc
 50
0.0
 51
90.0
  0
LINE
  5
DE
100
AcDbEntity
100
AcDbLine
  8
0
 62
256
370
-1
  6
BYLAYER
 10
24.0
 20
-176.3999999999999773
 30
0.0
 11
30.0
 21
-176.3999999999999773
 31
0.0
  0
LINE
  5
DF
100
AcDbEntity
100
AcDbLine
  8
0
 62
256
370
-1
  6
BYLAYER
 10
30.0
 20
-176.3999999999999773
 30
0.0
 11
30.0
 21
-89.3999999999999915
 31
0.0
  0
LINE
  5
E0
100
AcDbEntity
100
AcDbLine
  8
0
 62
256
370
-1
  6
BYLAYER
 10
24.0
 20
-89.3999999999999915
 30
0.0
 11
24.0
 21
-176.3999999999999773
 31
0.0
  0
LINE
  5
E1
100
AcDbEntity
100
AcDbLine
  8
0
 62
256
370
-1
  6
BYLAYER
 10
20.0500000000000007
 20
-86.3999999999999915
 30
0.0
 11
21.0
 21
-86.3999999999999915
 31
0.0
  0
LINE
  5
E2
100
AcDbEntity
100
AcDbLine
  8
0
 62
256
370
-1
  6
BYLAYER
 10
33.0000000000000071
 20
-86.3999999999999915
 30
0.0
 11
33.9500000000000028
 21
-86.3999999999999915
 31
0.0
  0
ARC
  5
E3
100
AcDbEntity
  8
0
 62
256
370
-1
  6
BYLAYER
100
AcDbCircle
 10
21.0
 20
-89.3999999999999915
 30
0.0
 40
3.0
100
AcDbArc
 50
0.0
 51
90.0
  0
ARC
  5
E4
100
AcDbEntity
  8
0
 62
256
370
-1
  6
BYLAYER
100
AcDbCircle
 10
33.0000000000000071
 20
-89.3999999999999773
 30
0.0
 40
3.0
100
AcDbArc
 50
90.0
 51
180.0
  0
ARC
  5
E5
100
AcDbEntity
  8
0
 62
256
370
-1
  6
BYLAYER
100
AcDbCircle
 10
33.9500000000000028
 20
-83.3999999999999915
 30
0.0
 40
3.0
100
AcDbArc
 50
270.0
 51
0.0
  0
ARC
  5
E6
100
AcDbEntity
  8
0
 62
256
370
-1
  6
BYLAYER
100
AcDbCircle
 10
20.0500000000000007
 20
-83.3999999999999915
 30
0.0
 40
3.0
100
AcDbArc
 50
180.0
 51
270.0
  0
LINE
  5
E7
100
AcDbEntity
100
AcDbLine
  8
0
 62
256
370
-1
  6
BYLAYER
 10
32.5
 20
-176.4499999999999886
 30
0.0
 11
33.5
 21
-176.4499999999999886
 31
0.0
  0
LINE
  5
E8
100
AcDbEntity
100
AcDbLine
  8
0
 62
256
370
-1
  6
BYLAYER
 10
35.5
 20
-174.4499999999999886
 30
0.0
 11
35.5
 21
-90.4499999999999886
 31
0.0
  0
LINE
  5
E9
100
AcDbEntity
100
AcDbLine
  8
0
 62
256
370
-1
  6
BYLAYER
 10
33.5
 20
-88.4499999999999886
 30
0.0
 11
32.5
 21
-88.4499999999999886
 31
0.0
  0
LINE
  5
EA
100
AcDbEntity
100
AcDbLine
  8
0
 62
256
370
-1
  6
BYLAYER
 10
32.5
 20
-88.4499999999999886
 30
0.0
 11
32.5
 21
-176.4499999999999886
 31
0.0
  0
ARC
  5
EB
100
AcDbEntity
  8
0
 62
256
370
-1
  6
BYLAYER
100
AcDbCircle
 10
33.5
 20
-90.4499999999999886
 30
0.0
 40
2.0
100
AcDbArc
 50
0.0
 51
90.0
  0
ARC
  5
EC
100
AcDbEntity
  8
0
 62
256
370
-1
  6
BYLAYER
100
AcDbCircle
 10
33.5
 20
-174.4499999999999886
 30
0.0
 40
2.0
100
AcDbArc
 50
270.0
 51
0.0
  0
LINE
  5
ED
100
AcDbEntity
100
AcDbLine
  8
0
 62
256
370
-1
  6
BYLAYER
 10
43.0499999999999972
 20
-159.5
 30
0.0
 11
56.9500000000000028
 21
-159.4999999999999716
 31
0.0
  0
LINE
  5
EE
100
AcDbEntity
100
AcDbLine
  8
0
 62
256
370
-1
  6
BYLAYER
 10
56.9500000000000028
 20
-159.4999999999999716
 30
0.0
 11
56.9500000000000028
 21
-173.3999999999999773
 31
0.0
  0
LINE
  5
EF
100
AcDbEntity
100
AcDbLine
  8
0
 62
256
370
-1
  6
BYLAYER
 10
56.9500000000000028
 20
-173.3999999999999773
 30
0.0
 11
43.0499999999999972
 21
-173.3999999999999773
 31
0.0
  0
LINE
  5
F0
100
AcDbEntity
100
AcDbLine
  8
0
 62
256
370
-1
  6
BYLAYER
 10
43.0499999999999972
 20
-173.3999999999999773
 30
0.0
 11
43.0499999999999972
 21
-159.5
 31
0.0
  0
LINE
  5
F1
100
AcDbEntity
100
AcDbLine
  8
0
 62
256
370
-1
  6
BYLAYER
 10
59.9500000000000028
 20
-159.4999999999999716
 30
0.0
 11
59.9500000000000028
 21
-173.4000000000000057
 31
0.0
  0
LINE
  5
F2
100
AcDbEntity
100
AcDbLine
  8
0
 62
256
370
-1
  6
BYLAYER
 10
56.9500000000000099
 20
-176.3999999999999773
 30
0.0
 11
43.0500000000000043
 21
-176.3999999999999773
 31
0.0
  0
LINE
  5
F3
100
AcDbEntity
100
AcDbLine
  8
0
 62
256
370
-1
  6
BYLAYER
 10
40.0499999999999972
 20
-173.3999999999999773
 30
0.0
 11
40.0499999999999972
 21
-159.5
 31
0.0
  0
ARC
  5
F4
100
AcDbEntity
  8
0
 62
256
370
-1
  6
BYLAYER
100
AcDbCircle
 10
43.0499999999999972
 20
-173.3999999999999773
 30
0.0
 40
3.0
100
AcDbArc
 50
180.0
 51
270.0000000000000568
  0
ARC
  5
F5
100
AcDbEntity
  8
0
 62
256
370
-1
  6
BYLAYER
100
AcDbCircle
 10
56.9500000000000099
 20
-173.3999999999999773
 30
0.0
 40
3.0
100
AcDbArc
 50
270.0
 51
0.0
  0
LINE
  5
F6
100
AcDbEntity
100
AcDbLine
  8
0
 62
256
370
-1
  6
BYLAYER
 10
46.9999999999999716
 20
-66.5
 30
0.0
 11
52.9999999999999858
 21
-66.5
 31
0.0
  0
LINE
  5
F7
100
AcDbEntity
100
AcDbLine
  8
0
 62
256
370
-1
  6
BYLAYER
 10
52.9999999999999858
 20
-66.5
 30
0.0
 11
53.0
 21
-153.5
 31
0.0
  0
LINE
  5
F8
100
AcDbEntity
100
AcDbLine
  8
0
 62
256
370
-1
  6
BYLAYER
 10
47.0
 20
-153.5
 30
0.0
 11
46.9999999999999716
 21
-66.5
 31
0.0
  0
LINE
  5
F9
100
AcDbEntity
100
AcDbLine
  8
0
 62
256
370
-1
  6
BYLAYER
 10
43.0499999999999972
 20
-156.5
 30
0.0
 11
44.0
 21
-156.5
 31
0.0
  0
LINE
  5
FA
100
AcDbEntity
100
AcDbLine
  8
0
 62
256
370
-1
  6
BYLAYER
 10
56.0
 20
-156.5
 30
0.0
 11
56.9500000000000028
 21
-156.5
 31
0.0
  0
ARC
  5
FB
100
AcDbEntity
  8
0
 62
256
370
-1
  6
BYLAYER
100
AcDbCircle
 10
43.9999999999999929
 20
-153.5
 30
0.0
 40
3.0
100
AcDbArc
 50
270.0
 51
0.0
  0
ARC
  5
FC
100
AcDbEntity
  8
0
 62
256
370
-1
  6
BYLAYER
100
AcDbCircle
 10
56.0
 20
-153.5
 30
0.0
 40
3.0
100
AcDbArc
 50
180.0
 51
270.0
  0
ARC
  5
FD
100
AcDbEntity
  8
0
 62
256
370
-1
  6
BYLAYER
100
AcDbCircle
 10
56.9500000000000028
 20
-159.4999999999999716
 30
0.0
 40
3.0
100
AcDbArc
 50
0.0
 51
90.0000000000000142
  0
ARC
  5
FE
100
AcDbEntity
  8
0
 62
256
370
-1
  6
BYLAYER
100
AcDbCircle
 10
43.0499999999999972
 20
-159.5
 30
0.0
 40
3.0
100
AcDbArc
 50
90.0000000000000142
 51
180.0
  0
LINE
  5
FF
100
AcDbEntity
100
AcDbLine
  8
0
 62
256
370
-1
  6
BYLAYER
 10
55.5000000000000213
 20
-66.4499999999999886
 30
0.0
 11
56.5000000000000284
 21
-66.4499999999999886
 31
0.0
  0
LINE
  5
100
100
AcDbEntity
100
AcDbLine
  8
0
 62
256
370
-1
  6
BYLAYER
 10
58.4999999999999432
 20
-68.4499999999999886
 30
0.0
 11
58.4999999999999858
 21
-152.4499999999999886
 31
0.0
  0
LINE
  5
101
100
AcDbEntity
100
AcDbLine
  8
0
 62
256
370
-1
  6
BYLAYER
 10
56.5
 20
-154.4499999999999886
 30
0.0
 11
55.4999999999999929
 21
-154.4499999999999886
 31
0.0
  0
LINE
  5
102
100
AcDbEntity
100
AcDbLine
  8
0
 62
256
370
-1
  6
BYLAYER
 10
55.4999999999999929
 20
-154.4499999999999886
 30
0.0
 11
55.5000000000000213
 21
-66.4499999999999886
 31
0.0
  0
ARC
  5
103
100
AcDbEntity
  8
0
 62
256
370
-1
  6
BYLAYER
100
AcDbCircle
 10
56.4999999999999929
 20
-152.4499999999999886
 30
0.0
 40
2.0
100
AcDbArc
 50
270.0
 51
0.0
  0
ARC
  5
104
100
AcDbEntity
  8
0
 62
256
370
-1
  6
BYLAYER
100
AcDbCircle
 10
56.5000000000000142
 20
-68.4499999999999886
 30
0.0
 40
2.0
100
AcDbArc
 50
0.0
 51
90.0000000000000142
  0
LINE
  5
105
100
AcDbEntity
100
AcDbLine
  8
0
 62
256
370
-1
  6
BYLAYER
 10
65.4473201991000764
 20
-83.3999999999999915
 30
0.0
 11
79.347320199100082
 21
-83.3999999999999915
 31
0.0
  0
LINE
  5
106
100
AcDbEntity
100
AcDbLine
  8
0
 62
256
370
-1
  6
BYLAYER
 10
79.347320199100082
 20
-83.3999999999999915
 30
0.0
 11
79.347320199100082
 21
-69.4999999999999858
 31
0.0
  0
LINE
  5
107
100
AcDbEntity
100
AcDbLine
  8
0
 62
256
370
-1
  6
BYLAYER
 10
79.347320199100082
 20
-69.4999999999999858
 30
0.0
 11
65.4473201991000764
 21
-69.4999999999999858
 31
0.0
  0
LINE
  5
108
100
AcDbEntity
100
AcDbLine
  8
0
 62
256
370
-1
  6
BYLAYER
 10
65.4473201991000764
 20
-69.4999999999999858
 30
0.0
 11
65.4473201991000764
 21
-83.3999999999999915
 31
0.0
  0
LINE
  5
109
100
AcDbEntity
100
AcDbLine
  8
0
 62
256
370
-1
  6
BYLAYER
 10
82.347320199100082
 20
-83.3999999999999915
 30
0.0
 11
82.347320199100082
 21
-69.4999999999999858
 31
0.0
  0
LINE
  5
10A
100
AcDbEntity
100
AcDbLine
  8
0
 62
256
370
-1
  6
BYLAYER
 10
79.3473201991000963
 20
-66.4999999999999858
 30
0.0
 11
65.4473201991000906
 21
-66.4999999999999858
 31
0.0
  0
LINE
  5
10B
100
AcDbEntity
100
AcDbLine
  8
0
 62
256
370
-1
  6
BYLAYER
 10
62.4473201991000764
 20
-69.4999999999999858
 30
0.0
 11
62.4473201991000764
 21
-83.3999999999999915
 31
0.0
  0
ARC
  5
10C
100
AcDbEntity
  8
0
 62
256
370
-1
  6
BYLAYER
100
AcDbCircle
 10
65.4473201991000764
 20
-69.4999999999999858
 30
0.0
 40
3.0
100
AcDbArc
 50
89.9999999999999432
 51
180.0
  0
ARC
  5
10D
100
AcDbEntity
  8
0
 62
256
370
-1
  6
BYLAYER
100
AcDbCircle
 10
79.3473201991000963
 20
-69.4999999999999858
 30
0.0
 40
3.0
100
AcDbArc
 50
0.0
 51
90.0
  0
LINE
  5
10E
100
AcDbEntity
100
AcDbLine
  8
0
 62
256
370
-1
  6
BYLAYER
 10
69.3973201991000792
 20
-176.3999999999999773
 30
0.0
 11
75.3973201991000792
 21
-176.3999999999999773
 31
0.0
  0
LINE
  5
10F
100
AcDbEntity
100
AcDbLine
  8
0
 62
256
370
-1
  6
BYLAYER
 10
75.3973201991000792
 20
-176.3999999999999773
 30
0.0
 11
75.3973201991000792
 21
-89.3999999999999915
 31
0.0
  0
LINE
  5
110
100
AcDbEntity
100
AcDbLine
  8
0
 62
256
370
-1
  6
BYLAYER
 10
69.3973201991000792
 20
-89.3999999999999915
 30
0.0
 11
69.3973201991000792
 21
-176.3999999999999773
 31
0.0
  0
LINE
  5
111
100
AcDbEntity
100
AcDbLine
  8
0
 62
256
370
-1
  6
BYLAYER
 10
65.4473201991000764
 20
-86.3999999999999915
 30
0.0
 11
66.3973201991000792
 21
-86.3999999999999915
 31
0.0
  0
LINE
  5
112
100
AcDbEntity
100
AcDbLine
  8
0
 62
256
370
-1
  6
BYLAYER
 10
78.3973201991000792
 20
-86.3999999999999915
 30
0.0
 11
79.347320199100082
 21
-86.3999999999999915
 31
0.0
  0
ARC
  5
113
100
AcDbEntity
  8
0
 62
256
370
-1
  6
BYLAYER
100
AcDbCircle
 10
66.3973201991000792
 20
-89.3999999999999915
 30
0.0
 40
3.0
100
AcDbArc
 50
0.0
 51
90.0
  0
ARC
  5
114
100
AcDbEntity
  8
0
 62
256
370
-1
  6
BYLAYER
100
AcDbCircle
 10
78.3973201991000792
 20
-89.3999999999999773
 30
0.0
 40
3.0
100
AcDbArc
 50
90.0
 51
180.0
  0
ARC
  5
115
100
AcDbEntity
  8
0
 62
256
370
-1
  6
BYLAYER
100
AcDbCircle
 10
79.347320199100082
 20
-83.3999999999999915
 30
0.0
 40
3.0
100
AcDbArc
 50
270.0
 51
0.0
  0
ARC
  5
116
100
AcDbEntity
  8
0
 62
256
370
-1
  6
BYLAYER
100
AcDbCircle
 10
65.4473201991000764
 20
-83.3999999999999915
 30
0.0
 40
3.0
100
AcDbArc
 50
180.0
 51
270.0
  0
LINE
  5
117
100
AcDbEntity
100
AcDbLine
  8
0
 62
256
370
-1
  6
BYLAYER
 10
77.8973201991000792
 20
-176.4499999999999886
 30
0.0
 11
78.8973201991000792
 21
-176.4499999999999886
 31
0.0
  0
LINE
  5
118
100
AcDbEntity
100
AcDbLine
  8
0
 62
256
370
-1
  6
BYLAYER
 10
80.8973201991000792
 20
-174.4499999999999886
 30
0.0
 11
80.8973201991000792
 21
-90.4499999999999886
 31
0.0
  0
LINE
  5
119
100
AcDbEntity
100
AcDbLine
  8
0
 62
256
370
-1
  6
BYLAYER
 10
78.8973201991000792
 20
-88.4499999999999886
 30
0.0
 11
77.8973201991000792
 21
-88.4499999999999886
 31
0.0
  0
LINE
  5
11A
100
AcDbEntity
100
AcDbLine
  8
0
 62
256
370
-1
  6
BYLAYER
 10
77.8973201991000792
 20
-88.4499999999999886
 30
0.0
 11
77.8973201991000792
 21
-176.4499999999999886
 31
0.0
  0
ARC
  5
11B
100
AcDbEntity
  8
0
 62
256
370
-1
  6
BYLAYER
100
AcDbCircle
 10
78.8973201991000792
 20
-90.4499999999999886
 30
0.0
 40
2.0
100
AcDbArc
 50
0.0
 51
90.0
  0
ARC
  5
11C
100
AcDbEntity
  8
0
 62
256
370
-1
  6
BYLAYER
100
AcDbCircle
 10
78.8973201991000792
 20
-174.4499999999999886
 30
0.0
 40
2.0
100
AcDbArc
 50
270.0
 51
0.0
  0
LINE
  5
11D
100
AcDbEntity
100
AcDbLine
  8
0
 62
256
370
-1
  6
BYLAYER
 10
88.4473201991000764
 20
-159.5
 30
0.0
 11
102.347320199100082
 21
-159.4999999999999716
 31
0.0
  0
LINE
  5
11E
100
AcDbEntity
100
AcDbLine
  8
0
 62
256
370
-1
  6
BYLAYER
 10
102.347320199100082
 20
-159.4999999999999716
 30
0.0
 11
102.347320199100082
 21
-173.3999999999999773
 31
0.0
  0
LINE
  5
11F
100
AcDbEntity
100
AcDbLine
  8
0
 62
256
370
-1
  6
BYLAYER
 10
102.347320199100082
 20
-173.3999999999999773
 30
0.0
 11
88.4473201991000764
 21
-173.3999999999999773
 31
0.0
  0
LINE
  5
120
100
AcDbEntity
100
AcDbLine
  8
0
 62
256
370
-1
  6
BYLAYER
 10
88.4473201991000764
 20
-173.3999999999999773
 30
0.0
 11
88.4473201991000764
 21
-159.5
 31
0.0
  0
LINE
  5
121
100
AcDbEntity
100
AcDbLine
  8
0
 62
256
370
-1
  6
BYLAYER
 10
105.347320199100082
 20
-159.4999999999999716
 30
0.0
 11
105.347320199100082
 21
-173.4000000000000057
 31
0.0
  0
LINE
  5
122
100
AcDbEntity
100
AcDbLine
  8
0
 62
256
370
-1
  6
BYLAYER
 10
102.3473201991000963
 20
-176.3999999999999773
 30
0.0
 11
88.4473201991000906
 21
-176.3999999999999773
 31
0.0
  0
LINE
  5
123
100
AcDbEntity
100
AcDbLine
  8
0
 62
256
370
-1
  6
BYLAYER
 10
85.4473201991000764
 20
-173.3999999999999773
 30
0.0
 11
85.4473201991000764
 21
-159.5
 31
0.0
  0
ARC
  5
124
100
AcDbEntity
  8
0
 62
256
370
-1
  6
BYLAYER
100
AcDbCircle
 10
88.4473201991000764
 20
-173.3999999999999773
 30
0.0
 40
3.0
100
AcDbArc
 50
180.0
 51
270.0000000000000568
  0
ARC
  5
125
100
AcDbEntity
  8
0
 62
256
370
-1
  6
BYLAYER
100
AcDbCircle
 10
102.3473201991000963
 20
-173.3999999999999773
 30
0.0
 40
3.0
100
AcDbArc
 50
270.0
 51
0.0
  0
LINE
  5
126
100
AcDbEntity
100
AcDbLine
  8
0
 62
256
370
-1
  6
BYLAYER
 10
92.3973201991000508
 20
-66.5
 30
0.0
 11
98.397320199100065
 21
-66.5
 31
0.0
  0
LINE
  5
127
100
AcDbEntity
100
AcDbLine
  8
0
 62
256
370
-1
  6
BYLAYER
 10
98.397320199100065
 20
-66.5
 30
0.0
 11
98.3973201991000792
 21
-153.5
 31
0.0
  0
LINE
  5
128
100
AcDbEntity
100
AcDbLine
  8
0
 62
256
370
-1
  6
BYLAYER
 10
92.3973201991000792
 20
-153.5
 30
0.0
 11
92.3973201991000508
 21
-66.5
 31
0.0
  0
LINE
  5
129
100
AcDbEntity
100
AcDbLine
  8
0
 62
256
370
-1
  6
BYLAYER
 10
88.4473201991000764
 20
-156.5
 30
0.0
 11
89.3973201991000792
 21
-156.5
 31
0.0
  0
LINE
  5
12A
100
AcDbEntity
100
AcDbLine
  8
0
 62
256
370
-1
  6
BYLAYER
 10
101.3973201991000792
 20
-156.5
 30
0.0
 11
102.347320199100082
 21
-156.5
 31
0.0
  0
ARC
  5
12B
100
AcDbEntity
  8
0
 62
256
370
-1
  6
BYLAYER
100
AcDbCircle
 10
89.3973201991000792
 20
-153.5
 30
0.0
 40
3.0
100
AcDbArc
 50
270.0
 51
0.0
  0
ARC
  5
12C
100
AcDbEntity
  8
0
 62
256
370
-1
  6
BYLAYER
100
AcDbCircle
 10
101.3973201991000792
 20
-153.5
 30
0.0
 40
3.0
100
AcDbArc
 50
180.0
 51
270.0
  0
ARC
  5
12D
100
AcDbEntity
  8
0
 62
256
370
-1
  6
BYLAYER
100
AcDbCircle
 10
102.347320199100082
 20
-159.4999999999999716
 30
0.0
 40
3.0
100
AcDbArc
 50
0.0
 51
90.0000000000000142
  0
ARC
  5
12E
100
AcDbEntity
  8
0
 62
256
370
-1
  6
BYLAYER
100
AcDbCircle
 10
88.4473201991000764
 20
-159.5
 30
0.0
 40
3.0
100
AcDbArc
 50
90.0000000000000142
 51
180.0
  0
LINE
  5
12F
100
AcDbEntity
100
AcDbLine
  8
0
 62
256
370
-1
  6
BYLAYER
 10
100.8973201991001076
 20
-66.4499999999999886
 30
0.0
 11
101.8973201991001076
 21
-66.4499999999999886
 31
0.0
  0
LINE
  5
130
100
AcDbEntity
100
AcDbLine
  8
0
 62
256
370
-1
  6
BYLAYER
 10
103.8973201991000224
 20
-68.4499999999999886
 30
0.0
 11
103.897320199100065
 21
-152.4499999999999886
 31
0.0
  0
LINE
  5
131
100
AcDbEntity
100
AcDbLine
  8
0
 62
256
370
-1
  6
BYLAYER
 10
101.8973201991000792
 20
-154.4499999999999886
 30
0.0
 11
100.8973201991000792
 21
-154.4499999999999886
 31
0.0
  0
LINE
  5
132
100
AcDbEntity
100
AcDbLine
  8
0
 62
256
370
-1
  6
BYLAYER
 10
100.8973201991000792
 20
-154.4499999999999886
 30
0.0
 11
100.8973201991001076
 21
-66.4499999999999886
 31
0.0
  0
ARC
  5
133
100
AcDbEntity
  8
0
 62
256
370
-1
  6
BYLAYER
100
AcDbCircle
 10
101.8973201991000792
 20
-152.4499999999999886
 30
0.0
 40
2.0
100
AcDbArc
 50
270.0
 51
0.0
  0
ARC
  5
134
100
AcDbEntity
  8
0
 62
256
370
-1
  6
BYLAYER
100
AcDbCircle
 10
101.8973201991000934
 20
-68.4499999999999886
 30
0.0
 40
2.0
100
AcDbArc
 50
0.0
 51
90.0000000000000142
  0
LINE
  5
135
100
AcDbEntity
100
AcDbLine
  8
0
 62
256
370
-1
  6
BYLAYER
 10
110.8446403982001556
 20
-83.3999999999999915
 30
0.0
 11
124.7446403982001613
 21
-83.3999999999999915
 31
0.0
  0
LINE
  5
136
100
AcDbEntity
100
AcDbLine
  8
0
 62
256
370
-1
  6
BYLAYER
 10
124.7446403982001613
 20
-83.3999999999999915
 30
0.0
 11
124.7446403982001613
 21
-69.4999999999999858
 31
0.0
  0
LINE
  5
137
100
AcDbEntity
100
AcDbLine
  8
0
 62
256
370
-1
  6
BYLAYER
 10
124.7446403982001613
 20
-69.4999999999999858
 30
0.0
 11
110.8446403982001556
 21
-69.4999999999999858
 31
0.0
  0
LINE
  5
138
100
AcDbEntity
100
AcDbLine
  8
0
 62
256
370
-1
  6
BYLAYER
 10
110.8446403982001556
 20
-69.4999999999999858
 30
0.0
 11
110.8446403982001556
 21
-83.3999999999999915
 31
0.0
  0
LINE
  5
139
100
AcDbEntity
100
AcDbLine
  8
0
 62
256
370
-1
  6
BYLAYER
 10
127.7446403982001613
 20
-83.3999999999999915
 30
0.0
 11
127.7446403982001613
 21
-69.4999999999999858
 31
0.0
  0
LINE
  5
13A
100
AcDbEntity
100
AcDbLine
  8
0
 62
256
370
-1
  6
BYLAYER
 10
124.7446403982001755
 20
-66.4999999999999858
 30
0.0
 11
110.8446403982001698
 21
-66.4999999999999858
 31
0.0
  0
LINE
  5
13B
100
AcDbEntity
100
AcDbLine
  8
0
 62
256
370
-1
  6
BYLAYER
 10
107.8446403982001556
 20
-69.4999999999999858
 30
0.0
 11
107.8446403982001556
 21
-83.3999999999999915
 31
0.0
  0
ARC
  5
13C
100
AcDbEntity
  8
0
 62
256
370
-1
  6
BYLAYER
100
AcDbCircle
 10
110.8446403982001556
 20
-69.4999999999999858
 30
0.0
 40
3.0
100
AcDbArc
 50
89.9999999999999432
 51
180.0
  0
ARC
  5
13D
100
AcDbEntity
  8
0
 62
256
370
-1
  6
BYLAYER
100
AcDbCircle
 10
124.7446403982001755
 20
-69.4999999999999858
 30
0.0
 40
3.0
100
AcDbArc
 50
0.0
 51
90.0
  0
LINE
  5
13E
100
AcDbEntity
100
AcDbLine
  8
0
 62
256
370
-1
  6
BYLAYER
 10
114.7946403982001584
 20
-176.3999999999999773
 30
0.0
 11
120.7946403982001584
 21
-176.3999999999999773
 31
0.0
  0
LINE
  5
13F
100
AcDbEntity
100
AcDbLine
  8
0
 62
256
370
-1
  6
BYLAYER
 10
120.7946403982001584
 20
-176.3999999999999773
 30
0.0
 11
120.7946403982001584
 21
-89.3999999999999915
 31
0.0
  0
LINE
  5
140
100
AcDbEntity
100
AcDbLine
  8
0
 62
256
370
-1
  6
BYLAYER
 10
114.7946403982001584
 20
-89.3999999999999915
 30
0.0
 11
114.7946403982001584
 21
-176.3999999999999773
 31
0.0
  0
LINE
  5
141
100
AcDbEntity
100
AcDbLine
  8
0
 62
256
370
-1
  6
BYLAYER
 10
110.8446403982001556
 20
-86.3999999999999915
 30
0.0
 11
111.7946403982001584
 21
-86.3999999999999915
 31
0.0
  0
LINE
  5
142
100
AcDbEntity
100
AcDbLine
  8
0
 62
256
370
-1
  6
BYLAYER
 10
123.7946403982001584
 20
-86.3999999999999915
 30
0.0
 11
124.7446403982001613
 21
-86.3999999999999915
 31
0.0
  0
ARC
  5
143
100
AcDbEntity
  8
0
 62
256
370
-1
  6
BYLAYER
100
AcDbCircle
 10
111.7946403982001584
 20
-89.3999999999999915
 30
0.0
 40
3.0
100
AcDbArc
 50
0.0
 51
90.0
  0
ARC
  5
144
100
AcDbEntity
  8
0
 62
256
370
-1
  6
BYLAYER
100
AcDbCircle
 10
123.7946403982001584
 20
-89.3999999999999773
 30
0.0
 40
3.0
100
AcDbArc
 50
90.0
 51
180.0
  0
ARC
  5
145
100
AcDbEntity
  8
0
 62
256
370
-1
  6
BYLAYER
100
AcDbCircle
 10
124.7446403982001613
 20
-83.3999999999999915
 30
0.0
 40
3.0
100
AcDbArc
 50
270.0
 51
0.0
  0
ARC
  5
146
100
AcDbEntity
  8
0
 62
256
370
-1
  6
BYLAYER
100
AcDbCircle
 10
110.8446403982001556
 20
-83.3999999999999915
 30
0.0
 40
3.0
100
AcDbArc
 50
180.0
 51
270.0
  0
LINE
  5
147
100
AcDbEntity
100
AcDbLine
  8
0
 62
256
370
-1
  6
BYLAYER
 10
123.2946403982001584
 20
-176.4499999999999886
 30
0.0
 11
124.2946403982001584
 21
-176.4499999999999886
 31
0.0
  0
LINE
  5
148
100
AcDbEntity
100
AcDbLine
  8
0
 62
256
370
-1
  6
BYLAYER
 10
126.2946403982001584
 20
-174.4499999999999886
 30
0.0
 11
126.2946403982001584
 21
-90.4499999999999886
 31
0.0
  0
LINE
  5
149
100
AcDbEntity
100
AcDbLine
  8
0
 62
256
370
-1
  6
BYLAYER
 10
124.2946403982001584
 20
-88.4499999999999886
 30
0.0
 11
123.2946403982001584
 21
-88.4499999999999886
 31
0.0
  0
LINE
  5
14A
100
AcDbEntity
100
AcDbLine
  8
0
 62
256
370
-1
  6
BYLAYER
 10
123.2946403982001584
 20
-88.4499999999999886
 30
0.0
 11
123.2946403982001584
 21
-176.4499999999999886
 31
0.0
  0
ARC
  5
14B
100
AcDbEntity
  8
0
 62
256
370
-1
  6
BYLAYER
100
AcDbCircle
 10
124.2946403982001584
 20
-90.4499999999999886
 30
0.0
 40
2.0
100
AcDbArc
 50
0.0
 51
90.0
  0
ARC
  5
14C
100
AcDbEntity
  8
0
 62
256
370
-1
  6
BYLAYER
100
AcDbCircle
 10
124.2946403982001584
 20
-174.4499999999999886
 30
0.0
 40
2.0
100
AcDbArc
 50
270.0
 51
0.0
  0
LINE
  5
14D
100
AcDbEntity
100
AcDbLine
  8
0
 62
256
370
-1
  6
BYLAYER
 10
133.8446403982001698
 20
-159.5
 30
0.0
 11
147.744640398200147
 21
-159.4999999999999716
 31
0.0
  0
LINE
  5
14E
100
AcDbEntity
100
AcDbLine
  8
0
 62
256
370
-1
  6
BYLAYER
 10
147.744640398200147
 20
-159.4999999999999716
 30
0.0
 11
147.744640398200147
 21
-173.3999999999999773
 31
0.0
  0
LINE
  5
14F
100
AcDbEntity
100
AcDbLine
  8
0
 62
256
370
-1
  6
BYLAYER
 10
147.744640398200147
 20
-173.3999999999999773
 30
0.0
 11
133.8446403982001698
 21
-173.3999999999999773
 31
0.0
  0
LINE
  5
150
100
AcDbEntity
100
AcDbLine
  8
0
 62
256
370
-1
  6
BYLAYER
 10
133.8446403982001698
 20
-173.3999999999999773
 30
0.0
 11
133.8446403982001698
 21
-159.5
 31
0.0
  0
LINE
  5
151
100
AcDbEntity
100
AcDbLine
  8
0
 62
256
370
-1
  6
BYLAYER
 10
150.744640398200147
 20
-159.4999999999999716
 30
0.0
 11
150.744640398200147
 21
-173.4000000000000057
 31
0.0
  0
LINE
  5
152
100
AcDbEntity
100
AcDbLine
  8
0
 62
256
370
-1
  6
BYLAYER
 10
147.7446403982001755
 20
-176.3999999999999773
 30
0.0
 11
133.8446403982001698
 21
-176.3999999999999773
 31
0.0
  0
LINE
  5
153
100
AcDbEntity
100
AcDbLine
  8
0
 62
256
370
-1
  6
BYLAYER
 10
130.8446403982001698
 20
-173.3999999999999773
 30
0.0
 11
130.8446403982001698
 21
-159.5
 31
0.0
  0
ARC
  5
154
100
AcDbEntity
  8
0
 62
256
370
-1
  6
BYLAYER
100
AcDbCircle
 10
133.8446403982001698
 20
-173.3999999999999773
 30
0.0
 40
3.0
100
AcDbArc
 50
180.0
 51
270.0000000000000568
  0
ARC
  5
155
100
AcDbEntity
  8
0
 62
256
370
-1
  6
BYLAYER
100
AcDbCircle
 10
147.7446403982001755
 20
-173.3999999999999773
 30
0.0
 40
3.0
100
AcDbArc
 50
270.0
 51
0.0
  0
LINE
  5
156
100
AcDbEntity
100
AcDbLine
  8
0
 62
256
370
-1
  6
BYLAYER
 10
137.79464039820013
 20
-66.5
 30
0.0
 11
143.7946403982001584
 21
-66.5
 31
0.0
  0
LINE
  5
157
100
AcDbEntity
100
AcDbLine
  8
0
 62
256
370
-1
  6
BYLAYER
 10
143.7946403982001584
 20
-66.5
 30
0.0
 11
143.7946403982001584
 21
-153.5
 31
0.0
  0
LINE
  5
158
100
AcDbEntity
100
AcDbLine
  8
0
 62
256
370
-1
  6
BYLAYER
 10
137.7946403982001584
 20
-153.5
 30
0.0
 11
137.79464039820013
 21
-66.5
 31
0.0
  0
LINE
  5
159
100
AcDbEntity
100
AcDbLine
  8
0
 62
256
370
-1
  6
BYLAYER
 10
133.8446403982001698
 20
-156.5
 30
0.0
 11
134.7946403982001584
 21
-156.5
 31
0.0
  0
LINE
  5
15A
100
AcDbEntity
100
AcDbLine
  8
0
 62
256
370
-1
  6
BYLAYER
 10
146.7946403982001584
 20
-156.5
 30
0.0
 11
147.744640398200147
 21
-156.5
 31
0.0
  0
ARC
  5
15B
100
AcDbEntity
  8
0
 62
256
370
-1
  6
BYLAYER
100
AcDbCircle
 10
134.7946403982001584
 20
-153.5
 30
0.0
 40
3.0
100
AcDbArc
 50
270.0
 51
0.0
  0
ARC
  5
15C
100
AcDbEntity
  8
0
 62
256
370
-1
  6
BYLAYER
100
AcDbCircle
 10
146.7946403982001584
 20
-153.5
 30
0.0
 40
3.0
100
AcDbArc
 50
180.0
 51
270.0
  0
ARC
  5
15D
100
AcDbEntity
  8
0
 62
256
370
-1
  6
BYLAYER
100
AcDbCircle
 10
147.744640398200147
 20
-159.4999999999999716
 30
0.0
 40
3.0
100
AcDbArc
 50
0.0
 51
90.0000000000000142
  0
ARC
  5
15E
100
AcDbEntity
  8
0
 62
256
370
-1
  6
BYLAYER
100
AcDbCircle
 10
133.8446403982001698
 20
-159.5
 30
0.0
 40
3.0
100
AcDbArc
 50
90.0000000000000142
 51
180.0
  0
LINE
  5
15F
100
AcDbEntity
100
AcDbLine
  8
0
 62
256
370
-1
  6
BYLAYER
 10
146.2946403982001868
 20
-66.4499999999999886
 30
0.0
 11
147.2946403982001868
 21
-66.4499999999999886
 31
0.0
  0
LINE
  5
160
100
AcDbEntity
100
AcDbLine
  8
0
 62
256
370
-1
  6
BYLAYER
 10
149.2946403982001016
 20
-68.4499999999999886
 30
0.0
 11
149.2946403982001584
 21
-152.4499999999999886
 31
0.0
  0
LINE
  5
161
100
AcDbEntity
100
AcDbLine
  8
0
 62
256
370
-1
  6
BYLAYER
 10
147.2946403982001584
 20
-154.4499999999999886
 30
0.0
 11
146.2946403982001584
 21
-154.4499999999999886
 31
0.0
  0
LINE
  5
162
100
AcDbEntity
100
AcDbLine
  8
0
 62
256
370
-1
  6
BYLAYER
 10
146.2946403982001584
 20
-154.4499999999999886
 30
0.0
 11
146.2946403982001868
 21
-66.4499999999999886
 31
0.0
  0
ARC
  5
163
100
AcDbEntity
  8
0
 62
256
370
-1
  6
BYLAYER
100
AcDbCircle
 10
147.2946403982001584
 20
-152.4499999999999886
 30
0.0
 40
2.0
100
AcDbArc
 50
270.0
 51
0.0
  0
ARC
  5
164
100
AcDbEntity
  8
0
 62
256
370
-1
  6
BYLAYER
100
AcDbCircle
 10
147.2946403982001584
 20
-68.4499999999999886
 30
0.0
 40
2.0
100
AcDbArc
 50
0.0
 51
90.0000000000000142
  0
DIMENSION
  5
165
100
AcDbEntity
  8
0
 62
256
370
-1
  6
BYLAYER
100
AcDbDimension
 10
-30.0
 20
-170.0
 30
0.0
 11
-33.0
 21
-63.2249999999999943
 31
0.0
 70
0
 71
8
 72
2
 41
1.0
 42
0.0
  1

  3
Standard
100
AcDbAlignedDimension
 13
20.0500000000000007
 23
49.9500000000000028
 33
0.0
 14
24.0
 24
-176.3999999999999773
 34
0.0
 50
90.0
100
AcDbRotatedDimension
1001
ACAD
1000
DSTYLE
1002
{
1070
144
1040
1
1002
}
  0
DIMENSION
  5
166
100
AcDbEntity
  8
0
 62
256
370
-1
  6
BYLAYER
100
AcDbDimension
 10
160.0
 20
110.0
 30
0.0
 11
85.3973201991000792
 21
113.0
 31
0.0
 70
0
 71
8
 72
2
 41
1.0
 42
0.0
  1

  3
Standard
100
AcDbAlignedDimension
 13
20.0500000000000007
 23
49.9500000000000028
 33
0.0
 14
150.744640398200147
 24
-56.9500000000000028
 34
0.0
 50
0.0
100
AcDbRotatedDimension
1001
ACAD
1000
DSTYLE
1002
{
1070
144
1040
1
1002
}
  0
ENDSEC
  0
SECTION
  2
OBJECTS
  0
DICTIONARY
  5
C
100
AcDbDictionary
280
0
281
1
  3
ACAD_GROUP
350
D
  3
ACAD_LAYOUT
350
1A
  3
ACAD_MLINESTYLE
350
17
  3
ACAD_PLOTSETTINGS
350
19
  3
ACAD_PLOTSTYLENAME
350
E
  3
AcDbVariableDictionary
350
167
  3
QCAD_OBJECTS
350
168
  0
DICTIONARY
  5
D
100
AcDbDictionary
280
0
281
1
  0
ACDBDICTIONARYWDFLT
  5
E
100
AcDbDictionary
281
1
  3
Normal
350
F
100
AcDbDictionaryWithDefault
340
F
  0
ACDBPLACEHOLDER
  5
F
  0
DICTIONARY
  5
17
100
AcDbDictionary
280
0
281
1
  3
Standard
350
18
  0
MLINESTYLE
  5
18
100
AcDbMlineStyle
  2
STANDARD
 70
0
  3

 62
256
 51
90.0
 52
90.0
 71
2
 49
0.5
 62
256
  6
BYLAYER
 49
-0.5
 62
256
  6
BYLAYER
  0
DICTIONARY
  5
19
100
AcDbDictionary
280
0
281
1
  0
DICTIONARY
  5
1A
100
AcDbDictionary
281
1
  3
Layout1
350
1E
  3
Layout2
350
26
  3
Model
350
22
  0
LAYOUT
  5
1E
100
AcDbPlotSettings
  1

  2
none_device
  4

  6

 40
0.0
 41
0.0
 42
0.0
 43
0.0
 44
0.0
 45
0.0
 46
0.0
 47
0.0
 48
0.0
 49
0.0
140
0.0
141
0.0
142
1.0
143
1.0
 70
688
 72
0
 73
0
 74
5
  7

 75
16
147
1.0
148
0.0
149
0.0
100
AcDbLayout
  1
Layout1
 70
1
 71
1
 10
0.0
 20
0.0
 11
420.0
 21
297.0
 12
0.0
 22
0.0
 32
0.0
 14
100000000000000000000.0
 24
100000000000000000000.0
 34
100000000000000000000.0
 15
-100000000000000000000.0
 25
-100000000000000000000.0
 35
-100000000000000000000.0
146
0.0
 13
0.0
 23
0.0
 33
0.0
 16
1.0
 26
0.0
 36
0.0
 17
0.0
 27
1.0
 37
0.0
 76
0
330
1B
  0
LAYOUT
  5
22
100
AcDbPlotSettings
  1

  2
none_device
  4

  6

 40
0.0
 41
0.0
 42
0.0
 43
0.0
 44
0.0
 45
0.0
 46
0.0
 47
0.0
 48
0.0
 49
0.0
140
0.0
141
0.0
142
1.0
143
1.0
 70
1712
 72
0
 73
0
 74
0
  7

 75
0
147
1.0
148
0.0
149
0.0
100
AcDbLayout
  1
Model
 70
1
 71
0
 10
0.0
 20
0.0
 11
12.0
 21
9.0
 12
0.0
 22
0.0
 32
0.0
 14
0.0
 24
0.0
 34
0.0
 15
0.0
 25
0.0
 35
0.0
146
0.0
 13
0.0
 23
0.0
 33
0.0
 16
1.0
 26
0.0
 36
0.0
 17
0.0
 27
1.0
 37
0.0
 76
0
330
1F
  0
LAYOUT
  5
26
100
AcDbPlotSettings
  1

  2
none_device
  4

  6

 40
0.0
 41
0.0
 42
0.0
 43
0.0
 44
0.0
 45
0.0
 46
0.0
 47
0.0
 48
0.0
 49
0.0
140
0.0
141
0.0
142
1.0
143
1.0
 70
688
 72
0
 73
0
 74
5
  7

 75
16
147
1.0
148
0.0
149
0.0
100
AcDbLayout
  1
Layout2
 70
1
 71
2
 10
0.0
 20
0.0
 11
12.0
 21
9.0
 12
0.0
 22
0.0
 32
0.0
 14
0.0
 24
0.0
 34
0.0
 15
0.0
 25
0.0
 35
0.0
146
0.0
 13
0.0
 23
0.0
 33
0.0
 16
1.0
 26
0.0
 36
0.0
 17
0.0
 27
1.0
 37
0.0
 76
0
330
23
  0
DICTIONARY
  5
167
100
AcDbDictionary
281
1
  3
DIMASSOC
350
16A
  3
HIDETEXT
350
169
  0
DICTIONARYVAR
  5
169
100
DictionaryVariables
280
0
  1
2
  0
DICTIONARYVAR
  5
16A
100
DictionaryVariables
280
0
  1
1
  0
DICTIONARY
  5
168
100
AcDbDictionary
281
1
  3
Grid/DisplayGrid00
350
16B
  3
Grid/DisplayGrid01
350
16C
  3
Grid/DisplayGrid02
350
16D
  3
Grid/DisplayGrid03
350
16E
  3
Grid/GridSpacingX00
350
16F
  3
Grid/GridSpacingX01
350
170
  3
Grid/GridSpacingX02
350
171
  3
Grid/GridSpacingX03
350
172
  3
Grid/GridSpacingY00
350
173
  3
Grid/GridSpacingY01
350
174
  3
Grid/GridSpacingY02
350
175
  3
Grid/GridSpacingY03
350
176
  3
Grid/IsometricGrid00
350
177
  3
Grid/IsometricGrid01
350
178
  3
Grid/IsometricGrid02
350
179
  3
Grid/IsometricGrid03
350
17A
  3
Grid/IsometricProjection00
350
17B
  3
Grid/IsometricProjection01
350
17C
  3
Grid/IsometricProjection02
350
17D
  3
Grid/IsometricProjection03
350
17E
  3
Grid/MetaGridSpacingX00
350
17F
  3
Grid/MetaGridSpacingX01
350
180
  3
Grid/MetaGridSpacingX02
350
181
  3
Grid/MetaGridSpacingX03
350
182
  3
Grid/MetaGridSpacingY00
350
183
  3
Grid/MetaGridSpacingY01
350
184
  3
Grid/MetaGridSpacingY02
350
185
  3
Grid/MetaGridSpacingY03
350
186
  3
MultiPageSettings/Columns
350
187
  3
MultiPageSettings/GlueMarginsBottom
350
188
  3
MultiPageSettings/GlueMarginsLeft
350
189
  3
MultiPageSettings/GlueMarginsRight
350
18A
  3
MultiPageSettings/GlueMarginsTop
350
18B
  3
MultiPageSettings/PrintCropMarks
350
18C
  3
MultiPageSettings/Rows
350
18D
  3
PageSettings/OffsetX
350
18E
  3
PageSettings/OffsetY
350
18F
  3
PageSettings/PageOrientation
350
190
  3
PageSettings/PaperHeight
350
191
  3
PageSettings/PaperWidth
350
192
  3
PageSettings/Scale
350
193
  3
PageSettings/ShowPaperBorders
350
194
  3
UnitSettings/PaperUnit
350
195
  0
XRECORD
  5
16B
330
168
100
AcDbXrecord
280
1
290
1
  0
XRECORD
  5
16C
330
168
100
AcDbXrecord
280
1
290
1
  0
XRECORD
  5
16D
330
168
100
AcDbXrecord
280
1
290
1
  0
XRECORD
  5
16E
330
168
100
AcDbXrecord
280
1
290
1
  0
XRECORD
  5
16F
330
168
100
AcDbXrecord
280
1
1000
auto
  0
XRECORD
  5
170
330
168
100
AcDbXrecord
280
1
1000
auto
  0
XRECORD
  5
171
330
168
100
AcDbXrecord
280
1
1000
auto
  0
XRECORD
  5
172
330
168
100
AcDbXrecord
280
1
1000
auto
  0
XRECORD
  5
173
330
168
100
AcDbXrecord
280
1
1000
auto
  0
XRECORD
  5
174
330
168
100
AcDbXrecord
280
1
1000
auto
  0
XRECORD
  5
175
330
168
100
AcDbXrecord
280
1
1000
auto
  0
XRECORD
  5
176
330
168
100
AcDbXrecord
280
1
1000
auto
  0
XRECORD
  5
177
330
168
100
AcDbXrecord
280
1
290
0
  0
XRECORD
  5
178
330
168
100
AcDbXrecord
280
1
290
0
  0
XRECORD
  5
179
330
168
100
AcDbXrecord
280
1
290
0
  0
XRECORD
  5
17A
330
168
100
AcDbXrecord
280
1
290
0
  0
XRECORD
  5
17B
330
168
100
AcDbXrecord
280
1
 90
0
  0
XRECORD
  5
17C
330
168
100
AcDbXrecord
280
1
 90
0
  0
XRECORD
  5
17D
330
168
100
AcDbXrecord
280
1
 90
0
  0
XRECORD
  5
17E
330
168
100
AcDbXrecord
280
1
 90
0
  0
XRECORD
  5
17F
330
168
100
AcDbXrecord
280
1
1000
auto
  0
XRECORD
  5
180
330
168
100
AcDbXrecord
280
1
1000
auto
  0
XRECORD
  5
181
330
168
100
AcDbXrecord
280
1
1000
auto
  0
XRECORD
  5
182
330
168
100
AcDbXrecord
280
1
1000
auto
  0
XRECORD
  5
183
330
168
100
AcDbXrecord
280
1
1000
auto
  0
XRECORD
  5
184
330
168
100
AcDbXrecord
280
1
1000
auto
  0
XRECORD
  5
185
330
168
100
AcDbXrecord
280
1
1000
auto
  0
XRECORD
  5
186
330
168
100
AcDbXrecord
280
1
1000
auto
  0
XRECORD
  5
187
330
168
100
AcDbXrecord
280
1
 90
1
  0
XRECORD
  5
188
330
168
100
AcDbXrecord
280
1
 40
10.0
  0
XRECORD
  5
189
330
168
100
AcDbXrecord
280
1
 40
10.0
  0
XRECORD
  5
18A
330
168
100
AcDbXrecord
280
1
 40
10.0
  0
XRECORD
  5
18B
330
168
100
AcDbXrecord
280
1
 40
10.0
  0
XRECORD
  5
18C
330
168
100
AcDbXrecord
280
1
290
0
  0
XRECORD
  5
18D
330
168
100
AcDbXrecord
280
1
 90
1
  0
XRECORD
  5
18E
330
168
100
AcDbXrecord
280
1
 40
0.0
  0
XRECORD
  5
18F
330
168
100
AcDbXrecord
280
1
 40
0.0
  0
XRECORD
  5
190
330
168
100
AcDbXrecord
280
1
1000
Portrait
  0
XRECORD
  5
191
330
168
100
AcDbXrecord
280
1
 40
297.0
  0
XRECORD
  5
192
330
168
100
AcDbXrecord
280
1
 40
210.0
  0
XRECORD
  5
193
330
168
100
AcDbXrecord
280
1
1000
1:1
  0
XRECORD
  5
194
330
168
100
AcDbXrecord
280
1
290
1
  0
XRECORD
  5
195
330
168
100
AcDbXrecord
280
1
 90
4
  0
ENDSEC
  0
EOF
