999
dxflib 3.3.4.0
  0
SECTION
  2
HEADER
  9
$ACADVER
  1
AC1015
  9
$HANDSEED
  5
FFFF
  9
$DIMADEC
 70
0
  9
$DIMASZ
 40
4.0
  9
$DIMAUNIT
 70
0
  9
$DIMAZIN
 70
2
  9
$DIMDEC
 70
4
  9
$DIMEXE
 40
2.0
  9
$DIMEXO
 40
1.0
  9
$DIMGAP
 40
1.0
  9
$DIMLUNIT
 70
2
  9
$DIMSCALE
 40
1.0
  9
$DIMTSZ
 40
0.0
  9
$DIMTXT
 40
4.0
  9
$DIMZIN
 70
8
  9
$DWGCODEPAGE
  3
ANSI_1252
  9
$INSUNITS
 70
4
  9
$LTSCALE
 40
1.0
  0
ENDSEC
  0
SECTION
  2
TABLES
  0
TABLE
  2
VPORT
  5
8
100
AcDbSymbolTable
 70
1
  0
VPORT
  5
30
100
AcDbSymbolTableRecord
100
AcDbViewportTableRecord
  2
*Active
 70
0
 10
0.0
 20
0.0
 11
1.0
 21
1.0
 12
286.3055555555554861
 22
148.5
 13
0.0
 23
0.0
 14
10.0
 24
10.0
 15
10.0
 25
10.0
 16
0.0
 26
0.0
 36
1.0
 17
0.0
 27
0.0
 37
0.0
 40
297.0
 41
1.92798353909465
 42
50.0
 43
0.0
 44
0.0
 50
0.0
 51
0.0
 71
0
 72
100
 73
1
 74
3
 75
1
 76
1
 77
0
 78
0
281
0
 65
1
110
0.0
120
0.0
130
0.0
111
1.0
121
0.0
131
0.0
112
0.0
122
1.0
132
0.0
 79
0
146
0.0
  0
ENDTAB
  0
TABLE
  2
LTYPE
  5
5
100
AcDbSymbolTable
 70
21
  0
LTYPE
  5
16
100
AcDbSymbolTableRecord
100
AcDbLinetypeTableRecord
  2
CONTINUOUS
 70
0
  3
Solid line
 72
65
 73
0
 40
0.0
  0
LTYPE
  5
31
100
AcDbSymbolTableRecord
100
AcDbLinetypeTableRecord
  2
CENTER2
 70
0
  3
Center (.5x) ___ _ ___ _ ___ _ ___ _ ___ _ ___
 72
65
 73
4
 40
28.5749999999999993
 49
19.0500000000000007
 74
0
 49
-3.1749999999999998
 74
0
 49
3.1749999999999998
 74
0
 49
-3.1749999999999998
 74
0
  0
LTYPE
  5
32
100
AcDbSymbolTableRecord
100
AcDbLinetypeTableRecord
  2
DIVIDEX2
 70
0
  3
Divide (2x) ________  .  .  ________  .  .  _
 72
65
 73
6
 40
63.5
 49
25.3999999999999986
 74
0
 49
-12.6999999999999993
 74
0
 49
0.0
 74
0
 49
-12.6999999999999993
 74
0
 49
0.0
 74
0
 49
-12.6999999999999993
 74
0
  0
LTYPE
  5
33
100
AcDbSymbolTableRecord
100
AcDbLinetypeTableRecord
  2
DOT2
 70
0
  3
Dot (.5x) .....................................
 72
65
 73
2
 40
3.1749999999999998
 49
0.0
 74
0
 49
-3.1749999999999998
 74
0
  0
LTYPE
  5
34
100
AcDbSymbolTableRecord
100
AcDbLinetypeTableRecord
  2
DASHDOT2
 70
0
  3
Dash dot (.5x) _._._._._._._._._._._._._._._.
 72
65
 73
4
 40
12.6999999999999993
 49
6.3499999999999996
 74
0
 49
-3.1749999999999998
 74
0
 49
0.0
 74
0
 49
-3.1749999999999998
 74
0
  0
LTYPE
  5
35
100
AcDbSymbolTableRecord
100
AcDbLinetypeTableRecord
  2
DIVIDE
 70
0
  3
Divide ____ . . ____ . . ____ . . ____ . . ____
 72
65
 73
6
 40
31.75
 49
12.6999999999999993
 74
0
 49
-6.3499999999999996
 74
0
 49
0.0
 74
0
 49
-6.3499999999999996
 74
0
 49
0.0
 74
0
 49
-6.3499999999999996
 74
0
  0
LTYPE
  5
36
100
AcDbSymbolTableRecord
100
AcDbLinetypeTableRecord
  2
DASHDOT
 70
0
  3
Dash dot __ . __ . __ . __ . __ . __ . __ . __
 72
65
 73
4
 40
25.3999999999999986
 49
12.6999999999999993
 74
0
 49
-6.3499999999999996
 74
0
 49
0.0
 74
0
 49
-6.3499999999999996
 74
0
  0
LTYPE
  5
37
100
AcDbSymbolTableRecord
100
AcDbLinetypeTableRecord
  2
BORDER
 70
0
  3
Border __ __ . __ __ . __ __ . __ __ . __ __ .
 72
65
 73
6
 40
44.4500000000000028
 49
12.6999999999999993
 74
0
 49
-6.3499999999999996
 74
0
 49
12.6999999999999993
 74
0
 49
-6.3499999999999996
 74
0
 49
0.0
 74
0
 49
-6.3499999999999996
 74
0
  0
LTYPE
  5
38
100
AcDbSymbolTableRecord
100
AcDbLinetypeTableRecord
  2
DASHDOTX2
 70
0
  3
Dash dot (2x) ____  .  ____  .  ____  .  ___
 72
65
 73
4
 40
50.7999999999999972
 49
25.3999999999999986
 74
0
 49
-12.6999999999999993
 74
0
 49
0.0
 74
0
 49
-12.6999999999999993
 74
0
  0
LTYPE
  5
39
100
AcDbSymbolTableRecord
100
AcDbLinetypeTableRecord
  2
CENTERX2
 70
0
  3
Center (2x) ________  __  ________  __  _____
 72
65
 73
4
 40
101.5999999999999943
 49
63.5
 74
0
 49
-12.6999999999999993
 74
0
 49
12.6999999999999993
 74
0
 49
-12.6999999999999993
 74
0
  0
LTYPE
  5
3A
100
AcDbSymbolTableRecord
100
AcDbLinetypeTableRecord
  2
BORDER2
 70
0
  3
Border (.5x) __.__.__.__.__.__.__.__.__.__.__.
 72
65
 73
6
 40
22.2250000000000014
 49
6.3499999999999996
 74
0
 49
-3.1749999999999998
 74
0
 49
6.3499999999999996
 74
0
 49
-3.1749999999999998
 74
0
 49
0.0
 74
0
 49
-3.1749999999999998
 74
0
  0
LTYPE
  5
3B
100
AcDbSymbolTableRecord
100
AcDbLinetypeTableRecord
  2
BORDERX2
 70
0
  3
Border (2x) ____  ____  .  ____  ____  .  ___
 72
65
 73
6
 40
88.9000000000000057
 49
25.3999999999999986
 74
0
 49
-12.6999999999999993
 74
0
 49
25.3999999999999986
 74
0
 49
-12.6999999999999993
 74
0
 49
0.0
 74
0
 49
-12.6999999999999993
 74
0
  0
LTYPE
  5
14
100
AcDbSymbolTableRecord
100
AcDbLinetypeTableRecord
  2
BYBLOCK
 70
0
  3

 72
65
 73
0
 40
0.0
  0
LTYPE
  5
15
100
AcDbSymbolTableRecord
100
AcDbLinetypeTableRecord
  2
BYLAYER
 70
0
  3

 72
65
 73
0
 40
0.0
  0
LTYPE
  5
3C
100
AcDbSymbolTableRecord
100
AcDbLinetypeTableRecord
  2
DASHED2
 70
0
  3
Dashed (.5x) _ _ _ _ _ _ _ _ _ _ _ _ _ _ _ _ _
 72
65
 73
2
 40
9.5250000000000004
 49
6.3499999999999996
 74
0
 49
-3.1749999999999998
 74
0
  0
LTYPE
  5
3D
100
AcDbSymbolTableRecord
100
AcDbLinetypeTableRecord
  2
CENTER
 70
0
  3
Center ____ _ ____ _ ____ _ ____ _ ____ _ ____
 72
65
 73
4
 40
50.7999999999999972
 49
31.75
 74
0
 49
-6.3499999999999996
 74
0
 49
6.3499999999999996
 74
0
 49
-6.3499999999999996
 74
0
  0
LTYPE
  5
3E
100
AcDbSymbolTableRecord
100
AcDbLinetypeTableRecord
  2
DIVIDE2
 70
0
  3
Divide (.5x) __..__..__..__..__..__..__..__.._
 72
65
 73
6
 40
15.875
 49
6.3499999999999996
 74
0
 49
-3.1749999999999998
 74
0
 49
0.0
 74
0
 49
-3.1749999999999998
 74
0
 49
0.0
 74
0
 49
-3.1749999999999998
 74
0
  0
LTYPE
  5
3F
100
AcDbSymbolTableRecord
100
AcDbLinetypeTableRecord
  2
DASHED
 70
0
  3
Dashed __ __ __ __ __ __ __ __ __ __ __ __ __ _
 72
65
 73
2
 40
19.0500000000000007
 49
12.6999999999999993
 74
0
 49
-6.3499999999999996
 74
0
  0
LTYPE
  5
40
100
AcDbSymbolTableRecord
100
AcDbLinetypeTableRecord
  2
DOTX2
 70
0
  3
Dot (2x) .  .  .  .  .  .  .  .  .  .  .  .  .
 72
65
 73
2
 40
12.6999999999999993
 49
0.0
 74
0
 49
-12.6999999999999993
 74
0
  0
LTYPE
  5
41
100
AcDbSymbolTableRecord
100
AcDbLinetypeTableRecord
  2
DASHEDX2
 70
0
  3
Dashed (2x) ____  ____  ____  ____  ____  ___
 72
65
 73
2
 40
38.1000000000000014
 49
25.3999999999999986
 74
0
 49
-12.6999999999999993
 74
0
  0
LTYPE
  5
42
100
AcDbSymbolTableRecord
100
AcDbLinetypeTableRecord
  2
DOT
 70
0
  3
Dot . . . . . . . . . . . . . . . . . . . . . .
 72
65
 73
2
 40
6.3499999999999996
 49
0.0
 74
0
 49
-6.3499999999999996
 74
0
  0
ENDTAB
  0
TABLE
  2
LAYER
  5
2
100
AcDbSymbolTable
 70
1
  0
LAYER
  5
10
100
AcDbSymbolTableRecord
100
AcDbLayerTableRecord
  2
0
 70
0
 62
7
420
16777215
  6
CONTINUOUS
370
25
390
F
  0
ENDTAB
  0
TABLE
  2
STYLE
  5
3
100
AcDbSymbolTable
 70
1
  0
STYLE
  5
43
100
AcDbSymbolTableRecord
100
AcDbTextStyleTableRecord
  2
Standard
 70
0
 40
0.0
 41
1.0
 50
0.0
 71
0
 42
2.5
  3

  4

1001
ACAD
1000
txt
1071
0
  0
ENDTAB
  0
TABLE
  2
VIEW
  5
6
100
AcDbSymbolTable
 70
0
  0
ENDTAB
  0
TABLE
  2
UCS
  5
7
100
AcDbSymbolTable
 70
0
  0
ENDTAB
  0
TABLE
  2
APPID
  5
9
100
AcDbSymbolTable
 70
1
  0
APPID
  5
12
100
AcDbSymbolTableRecord
100
AcDbRegAppTableRecord
  2
ACAD
 70
0
  0
APPID
  5
44
100
AcDbSymbolTableRecord
100
AcDbRegAppTableRecord
  2
QCAD
 70
0
  0
ENDTAB
  0
TABLE
  2
DIMSTYLE
  5
A
100
AcDbSymbolTable
 70
1
100
AcDbDimStyleTable
 71
0
  0
DIMSTYLE
105
27
100
AcDbSymbolTableRecord
100
AcDbDimStyleTableRecord
  2
Standard
 41
4.0
 42
1.0
 43
3.75
 44
2.0
 70
0
 73
0
 74
0
 77
1
 78
8
140
4.0
141
2.5
143
0.03937007874016
147
1.0
171
3
172
1
271
2
272
2
274
3
278
44
283
0
284
8
340
43
  0
ENDTAB
  0
TABLE
  2
BLOCK_RECORD
  5
1
100
AcDbSymbolTable
 70
1
  0
BLOCK_RECORD
  5
1F
100
AcDbSymbolTableRecord
100
AcDbBlockTableRecord
  2
*Model_Space
340
22
  0
BLOCK_RECORD
  5
1B
100
AcDbSymbolTableRecord
100
AcDbBlockTableRecord
  2
*Paper_Space
340
1E
  0
BLOCK_RECORD
  5
23
100
AcDbSymbolTableRecord
100
AcDbBlockTableRecord
  2
*Paper_Space0
340
26
  0
ENDTAB
  0
ENDSEC
  0
SECTION
  2
BLOCKS
  0
BLOCK
  5
20
100
AcDbEntity
  8
0
100
AcDbBlockBegin
  2
*Model_Space
 70
0
 10
0.0
 20
0.0
 30
0.0
  3
*Model_Space
  1

  0
ENDBLK
  5
21
100
AcDbEntity
  8
0
100
AcDbBlockEnd
  0
BLOCK
  5
1C
100
AcDbEntity
 67
1
  8
0
100
AcDbBlockBegin
  2
*Paper_Space
 70
0
 10
0.0
 20
0.0
 30
0.0
  3
*Paper_Space
  1

  0
ENDBLK
  5
1D
100
AcDbEntity
 67
1
  8
0
100
AcDbBlockEnd
  0
BLOCK
  5
24
100
AcDbEntity
  8
0
100
AcDbBlockBegin
  2
*Paper_Space0
 70
0
 10
0.0
 20
0.0
 30
0.0
  3
*Paper_Space0
  1

  0
ENDBLK
  5
25
100
AcDbEntity
  8
0
100
AcDbBlockEnd
  0
ENDSEC
  0
SECTION
  2
ENTITIES
  0
LINE
  5
45
100
AcDbEntity
100
AcDbLine
  8
0
 62
256
370
-1
  6
BYLAYER
 10
83.0499999999999972
 20
-84.0
 30
0.0
 11
96.9500000000000028
 21
-84.0
 31
0.0
  0
LINE
  5
46
100
AcDbEntity
100
AcDbLine
  8
0
 62
256
370
-1
  6
BYLAYER
 10
96.9500000000000028
 20
-84.0
 30
0.0
 11
96.9500000000000028
 21
-70.0999999999999943
 31
0.0
  0
LINE
  5
47
100
AcDbEntity
100
AcDbLine
  8
0
 62
256
370
-1
  6
BYLAYER
 10
96.9500000000000028
 20
-70.0999999999999943
 30
0.0
 11
83.0499999999999972
 21
-70.0999999999999943
 31
0.0
  0
LINE
  5
48
100
AcDbEntity
100
AcDbLine
  8
0
 62
256
370
-1
  6
BYLAYER
 10
83.0499999999999972
 20
-70.0999999999999943
 30
0.0
 11
83.0499999999999972
 21
-84.0
 31
0.0
  0
LINE
  5
49
100
AcDbEntity
100
AcDbLine
  8
0
 62
256
370
-1
  6
BYLAYER
 10
99.9500000000000028
 20
-84.0
 30
0.0
 11
99.9500000000000028
 21
-70.0999999999999943
 31
0.0
  0
LINE
  5
4A
100
AcDbEntity
100
AcDbLine
  8
0
 62
256
370
-1
  6
BYLAYER
 10
96.9500000000000171
 20
-67.0999999999999943
 30
0.0
 11
83.0500000000000114
 21
-67.0999999999999943
 31
0.0
  0
LINE
  5
4B
100
AcDbEntity
100
AcDbLine
  8
0
 62
256
370
-1
  6
BYLAYER
 10
80.0499999999999972
 20
-70.0999999999999943
 30
0.0
 11
80.0499999999999972
 21
-84.0
 31
0.0
  0
ARC
  5
4C
100
AcDbEntity
  8
0
 62
256
370
-1
  6
BYLAYER
100
AcDbCircle
 10
83.0499999999999972
 20
-70.0999999999999943
 30
0.0
 40
3.0
100
AcDbArc
 50
89.9999999999999432
 51
180.0
  0
ARC
  5
4D
100
AcDbEntity
  8
0
 62
256
370
-1
  6
BYLAYER
100
AcDbCircle
 10
96.9500000000000171
 20
-70.0999999999999943
 30
0.0
 40
3.0
100
AcDbArc
 50
0.0
 51
90.0
  0
LINE
  5
4E
100
AcDbEntity
100
AcDbLine
  8
0
 62
256
370
-1
  6
BYLAYER
 10
87.0
 20
-177.0
 30
0.0
 11
93.0
 21
-177.0
 31
0.0
  0
LINE
  5
4F
100
AcDbEntity
100
AcDbLine
  8
0
 62
256
370
-1
  6
BYLAYER
 10
93.0
 20
-177.0
 30
0.0
 11
93.0
 21
-90.0
 31
0.0
  0
LINE
  5
50
100
AcDbEntity
100
AcDbLine
  8
0
 62
256
370
-1
  6
BYLAYER
 10
87.0
 20
-90.0
 30
0.0
 11
87.0
 21
-177.0
 31
0.0
  0
LINE
  5
51
100
AcDbEntity
100
AcDbLine
  8
0
 62
256
370
-1
  6
BYLAYER
 10
83.0499999999999972
 20
-87.0
 30
0.0
 11
84.0
 21
-87.0
 31
0.0
  0
LINE
  5
52
100
AcDbEntity
100
AcDbLine
  8
0
 62
256
370
-1
  6
BYLAYER
 10
96.0
 20
-87.0
 30
0.0
 11
96.9500000000000028
 21
-87.0
 31
0.0
  0
ARC
  5
53
100
AcDbEntity
  8
0
 62
256
370
-1
  6
BYLAYER
100
AcDbCircle
 10
84.0
 20
-90.0
 30
0.0
 40
3.0
100
AcDbArc
 50
0.0
 51
90.0
  0
ARC
  5
54
100
AcDbEntity
  8
0
 62
256
370
-1
  6
BYLAYER
100
AcDbCircle
 10
96.0
 20
-89.9999999999999858
 30
0.0
 40
3.0
100
AcDbArc
 50
90.0
 51
180.0
  0
ARC
  5
55
100
AcDbEntity
  8
0
 62
256
370
-1
  6
BYLAYER
100
AcDbCircle
 10
96.9500000000000028
 20
-84.0
 30
0.0
 40
3.0
100
AcDbArc
 50
270.0
 51
0.0
  0
ARC
  5
56
100
AcDbEntity
  8
0
 62
256
370
-1
  6
BYLAYER
100
AcDbCircle
 10
83.0499999999999972
 20
-84.0
 30
0.0
 40
3.0
100
AcDbArc
 50
180.0
 51
270.0
  0
LINE
  5
57
100
AcDbEntity
100
AcDbLine
  8
0
 62
256
370
-1
  6
BYLAYER
 10
95.5
 20
-177.0500000000000114
 30
0.0
 11
96.5
 21
-177.0500000000000114
 31
0.0
  0
LINE
  5
58
100
AcDbEntity
100
AcDbLine
  8
0
 62
256
370
-1
  6
BYLAYER
 10
98.5
 20
-175.0500000000000114
 30
0.0
 11
98.5
 21
-91.0499999999999972
 31
0.0
  0
LINE
  5
59
100
AcDbEntity
100
AcDbLine
  8
0
 62
256
370
-1
  6
BYLAYER
 10
96.5
 20
-89.0499999999999972
 30
0.0
 11
95.5
 21
-89.0499999999999972
 31
0.0
  0
LINE
  5
5A
100
AcDbEntity
100
AcDbLine
  8
0
 62
256
370
-1
  6
BYLAYER
 10
95.5
 20
-89.0499999999999972
 30
0.0
 11
95.5
 21
-177.0500000000000114
 31
0.0
  0
ARC
  5
5B
100
AcDbEntity
  8
0
 62
256
370
-1
  6
BYLAYER
100
AcDbCircle
 10
96.5
 20
-91.0499999999999972
 30
0.0
 40
2.0
100
AcDbArc
 50
0.0
 51
90.0
  0
ARC
  5
5C
100
AcDbEntity
  8
0
 62
256
370
-1
  6
BYLAYER
100
AcDbCircle
 10
96.5
 20
-175.0500000000000114
 30
0.0
 40
2.0
100
AcDbArc
 50
270.0
 51
0.0
  0
LINE
  5
5D
100
AcDbEntity
100
AcDbLine
  8
0
 62
256
370
-1
  6
BYLAYER
 10
96.5499999999999687
 20
-182.0500000000000114
 30
0.0
 11
110.4499999999999744
 21
-182.0499999999999829
 31
0.0
  0
LINE
  5
5E
100
AcDbEntity
100
AcDbLine
  8
0
 62
256
370
-1
  6
BYLAYER
 10
110.4499999999999744
 20
-182.0499999999999829
 30
0.0
 11
110.4499999999999744
 21
-195.9499999999999886
 31
0.0
  0
LINE
  5
5F
100
AcDbEntity
100
AcDbLine
  8
0
 62
256
370
-1
  6
BYLAYER
 10
110.4499999999999744
 20
-195.9499999999999886
 30
0.0
 11
96.5499999999999687
 21
-195.9499999999999886
 31
0.0
  0
LINE
  5
60
100
AcDbEntity
100
AcDbLine
  8
0
 62
256
370
-1
  6
BYLAYER
 10
96.5499999999999687
 20
-195.9499999999999886
 30
0.0
 11
96.5499999999999687
 21
-182.0500000000000114
 31
0.0
  0
LINE
  5
61
100
AcDbEntity
100
AcDbLine
  8
0
 62
256
370
-1
  6
BYLAYER
 10
113.4499999999999744
 20
-182.0499999999999829
 30
0.0
 11
113.4499999999999744
 21
-195.9500000000000171
 31
0.0
  0
LINE
  5
62
100
AcDbEntity
100
AcDbLine
  8
0
 62
256
370
-1
  6
BYLAYER
 10
110.4499999999999886
 20
-198.9499999999999886
 30
0.0
 11
96.5499999999999829
 21
-198.9499999999999886
 31
0.0
  0
LINE
  5
63
100
AcDbEntity
100
AcDbLine
  8
0
 62
256
370
-1
  6
BYLAYER
 10
93.5499999999999687
 20
-195.9499999999999886
 30
0.0
 11
93.5499999999999687
 21
-182.0500000000000114
 31
0.0
  0
ARC
  5
64
100
AcDbEntity
  8
0
 62
256
370
-1
  6
BYLAYER
100
AcDbCircle
 10
96.5499999999999687
 20
-195.9499999999999886
 30
0.0
 40
3.0
100
AcDbArc
 50
180.0
 51
270.0000000000000568
  0
ARC
  5
65
100
AcDbEntity
  8
0
 62
256
370
-1
  6
BYLAYER
100
AcDbCircle
 10
110.4499999999999886
 20
-195.9499999999999886
 30
0.0
 40
3.0
100
AcDbArc
 50
270.0
 51
0.0
  0
LINE
  5
66
100
AcDbEntity
100
AcDbLine
  8
0
 62
256
370
-1
  6
BYLAYER
 10
100.4999999999999432
 20
-89.0500000000000114
 30
0.0
 11
106.4999999999999574
 21
-89.0500000000000114
 31
0.0
  0
LINE
  5
67
100
AcDbEntity
100
AcDbLine
  8
0
 62
256
370
-1
  6
BYLAYER
 10
106.4999999999999574
 20
-89.0500000000000114
 30
0.0
 11
106.4999999999999716
 21
-176.0500000000000114
 31
0.0
  0
LINE
  5
68
100
AcDbEntity
100
AcDbLine
  8
0
 62
256
370
-1
  6
BYLAYER
 10
100.4999999999999716
 20
-176.0500000000000114
 30
0.0
 11
100.4999999999999432
 21
-89.0500000000000114
 31
0.0
  0
LINE
  5
69
100
AcDbEntity
100
AcDbLine
  8
0
 62
256
370
-1
  6
BYLAYER
 10
96.5499999999999687
 20
-179.0500000000000114
 30
0.0
 11
97.4999999999999716
 21
-179.0500000000000114
 31
0.0
  0
LINE
  5
6A
100
AcDbEntity
100
AcDbLine
  8
0
 62
256
370
-1
  6
BYLAYER
 10
109.4999999999999716
 20
-179.0500000000000114
 30
0.0
 11
110.4499999999999744
 21
-179.0500000000000114
 31
0.0
  0
ARC
  5
6B
100
AcDbEntity
  8
0
 62
256
370
-1
  6
BYLAYER
100
AcDbCircle
 10
97.4999999999999716
 20
-176.0500000000000114
 30
0.0
 40
3.0
100
AcDbArc
 50
270.0
 51
0.0
  0
ARC
  5
6C
100
AcDbEntity
  8
0
 62
256
370
-1
  6
BYLAYER
100
AcDbCircle
 10
109.4999999999999716
 20
-176.0500000000000114
 30
0.0
 40
3.0
100
AcDbArc
 50
180.0
 51
270.0
  0
ARC
  5
6D
100
AcDbEntity
  8
0
 62
256
370
-1
  6
BYLAYER
100
AcDbCircle
 10
110.4499999999999744
 20
-182.0499999999999829
 30
0.0
 40
3.0
100
AcDbArc
 50
0.0
 51
90.0000000000000142
  0
ARC
  5
6E
100
AcDbEntity
  8
0
 62
256
370
-1
  6
BYLAYER
100
AcDbCircle
 10
96.5499999999999687
 20
-182.0500000000000114
 30
0.0
 40
3.0
100
AcDbArc
 50
90.0000000000000142
 51
180.0
  0
LINE
  5
6F
100
AcDbEntity
100
AcDbLine
  8
0
 62
256
370
-1
  6
BYLAYER
 10
109.0
 20
-89.0
 30
0.0
 11
110.0
 21
-89.0
 31
0.0
  0
LINE
  5
70
100
AcDbEntity
100
AcDbLine
  8
0
 62
256
370
-1
  6
BYLAYER
 10
111.9999999999999147
 20
-91.0
 30
0.0
 11
111.9999999999999574
 21
-175.0
 31
0.0
  0
LINE
  5
71
100
AcDbEntity
100
AcDbLine
  8
0
 62
256
370
-1
  6
BYLAYER
 10
109.9999999999999716
 20
-177.0
 30
0.0
 11
108.9999999999999716
 21
-177.0
 31
0.0
  0
LINE
  5
72
100
AcDbEntity
100
AcDbLine
  8
0
 62
256
370
-1
  6
BYLAYER
 10
108.9999999999999716
 20
-177.0
 30
0.0
 11
109.0
 21
-89.0
 31
0.0
  0
ARC
  5
73
100
AcDbEntity
  8
0
 62
256
370
-1
  6
BYLAYER
100
AcDbCircle
 10
109.9999999999999716
 20
-175.0
 30
0.0
 40
2.0
100
AcDbArc
 50
270.0
 51
0.0
  0
ARC
  5
74
100
AcDbEntity
  8
0
 62
256
370
-1
  6
BYLAYER
100
AcDbCircle
 10
109.9999999999999858
 20
-91.0
 30
0.0
 40
2.0
100
AcDbArc
 50
0.0
 51
90.0000000000000142
  0
LINE
  5
75
100
AcDbEntity
100
AcDbLine
  8
0
 62
256
370
-1
  6
BYLAYER
 10
110.8446403982001556
 20
-83.3999999999999915
 30
0.0
 11
124.7446403982001613
 21
-83.3999999999999915
 31
0.0
  0
LINE
  5
76
100
AcDbEntity
100
AcDbLine
  8
0
 62
256
370
-1
  6
BYLAYER
 10
124.7446403982001613
 20
-83.3999999999999915
 30
0.0
 11
124.7446403982001613
 21
-69.4999999999999858
 31
0.0
  0
LINE
  5
77
100
AcDbEntity
100
AcDbLine
  8
0
 62
256
370
-1
  6
BYLAYER
 10
124.7446403982001613
 20
-69.4999999999999858
 30
0.0
 11
110.8446403982001556
 21
-69.4999999999999858
 31
0.0
  0
LINE
  5
78
100
AcDbEntity
100
AcDbLine
  8
0
 62
256
370
-1
  6
BYLAYER
 10
110.8446403982001556
 20
-69.4999999999999858
 30
0.0
 11
110.8446403982001556
 21
-83.3999999999999915
 31
0.0
  0
LINE
  5
79
100
AcDbEntity
100
AcDbLine
  8
0
 62
256
370
-1
  6
BYLAYER
 10
127.7446403982001613
 20
-83.3999999999999915
 30
0.0
 11
127.7446403982001613
 21
-69.4999999999999858
 31
0.0
  0
LINE
  5
7A
100
AcDbEntity
100
AcDbLine
  8
0
 62
256
370
-1
  6
BYLAYER
 10
124.7446403982001755
 20
-66.4999999999999858
 30
0.0
 11
110.8446403982001698
 21
-66.4999999999999858
 31
0.0
  0
LINE
  5
7B
100
AcDbEntity
100
AcDbLine
  8
0
 62
256
370
-1
  6
BYLAYER
 10
107.8446403982001556
 20
-69.4999999999999858
 30
0.0
 11
107.8446403982001556
 21
-83.3999999999999915
 31
0.0
  0
ARC
  5
7C
100
AcDbEntity
  8
0
 62
256
370
-1
  6
BYLAYER
100
AcDbCircle
 10
110.8446403982001556
 20
-69.4999999999999858
 30
0.0
 40
3.0
100
AcDbArc
 50
89.9999999999999432
 51
180.0
  0
ARC
  5
7D
100
AcDbEntity
  8
0
 62
256
370
-1
  6
BYLAYER
100
AcDbCircle
 10
124.7446403982001755
 20
-69.4999999999999858
 30
0.0
 40
3.0
100
AcDbArc
 50
0.0
 51
90.0
  0
LINE
  5
7E
100
AcDbEntity
100
AcDbLine
  8
0
 62
256
370
-1
  6
BYLAYER
 10
114.7946403982001584
 20
-176.3999999999999773
 30
0.0
 11
120.7946403982001584
 21
-176.3999999999999773
 31
0.0
  0
LINE
  5
7F
100
AcDbEntity
100
AcDbLine
  8
0
 62
256
370
-1
  6
BYLAYER
 10
120.7946403982001584
 20
-176.3999999999999773
 30
0.0
 11
120.7946403982001584
 21
-89.3999999999999915
 31
0.0
  0
LINE
  5
80
100
AcDbEntity
100
AcDbLine
  8
0
 62
256
370
-1
  6
BYLAYER
 10
114.7946403982001584
 20
-89.3999999999999915
 30
0.0
 11
114.7946403982001584
 21
-176.3999999999999773
 31
0.0
  0
LINE
  5
81
100
AcDbEntity
100
AcDbLine
  8
0
 62
256
370
-1
  6
BYLAYER
 10
110.8446403982001556
 20
-86.3999999999999915
 30
0.0
 11
111.7946403982001584
 21
-86.3999999999999915
 31
0.0
  0
LINE
  5
82
100
AcDbEntity
100
AcDbLine
  8
0
 62
256
370
-1
  6
BYLAYER
 10
123.7946403982001584
 20
-86.3999999999999915
 30
0.0
 11
124.7446403982001613
 21
-86.3999999999999915
 31
0.0
  0
ARC
  5
83
100
AcDbEntity
  8
0
 62
256
370
-1
  6
BYLAYER
100
AcDbCircle
 10
111.7946403982001584
 20
-89.3999999999999915
 30
0.0
 40
3.0
100
AcDbArc
 50
0.0
 51
90.0
  0
ARC
  5
84
100
AcDbEntity
  8
0
 62
256
370
-1
  6
BYLAYER
100
AcDbCircle
 10
123.7946403982001584
 20
-89.3999999999999773
 30
0.0
 40
3.0
100
AcDbArc
 50
90.0
 51
180.0
  0
ARC
  5
85
100
AcDbEntity
  8
0
 62
256
370
-1
  6
BYLAYER
100
AcDbCircle
 10
124.7446403982001613
 20
-83.3999999999999915
 30
0.0
 40
3.0
100
AcDbArc
 50
270.0
 51
0.0
  0
ARC
  5
86
100
AcDbEntity
  8
0
 62
256
370
-1
  6
BYLAYER
100
AcDbCircle
 10
110.8446403982001556
 20
-83.3999999999999915
 30
0.0
 40
3.0
100
AcDbArc
 50
180.0
 51
270.0
  0
LINE
  5
87
100
AcDbEntity
100
AcDbLine
  8
0
 62
256
370
-1
  6
BYLAYER
 10
123.2946403982001584
 20
-176.4499999999999886
 30
0.0
 11
124.2946403982001584
 21
-176.4499999999999886
 31
0.0
  0
LINE
  5
88
100
AcDbEntity
100
AcDbLine
  8
0
 62
256
370
-1
  6
BYLAYER
 10
126.2946403982001584
 20
-174.4499999999999886
 30
0.0
 11
126.2946403982001584
 21
-90.4499999999999886
 31
0.0
  0
LINE
  5
89
100
AcDbEntity
100
AcDbLine
  8
0
 62
256
370
-1
  6
BYLAYER
 10
124.2946403982001584
 20
-88.4499999999999886
 30
0.0
 11
123.2946403982001584
 21
-88.4499999999999886
 31
0.0
  0
LINE
  5
8A
100
AcDbEntity
100
AcDbLine
  8
0
 62
256
370
-1
  6
BYLAYER
 10
123.2946403982001584
 20
-88.4499999999999886
 30
0.0
 11
123.2946403982001584
 21
-176.4499999999999886
 31
0.0
  0
ARC
  5
8B
100
AcDbEntity
  8
0
 62
256
370
-1
  6
BYLAYER
100
AcDbCircle
 10
124.2946403982001584
 20
-90.4499999999999886
 30
0.0
 40
2.0
100
AcDbArc
 50
0.0
 51
90.0
  0
ARC
  5
8C
100
AcDbEntity
  8
0
 62
256
370
-1
  6
BYLAYER
100
AcDbCircle
 10
124.2946403982001584
 20
-174.4499999999999886
 30
0.0
 40
2.0
100
AcDbArc
 50
270.0
 51
0.0
  0
LINE
  5
8D
100
AcDbEntity
100
AcDbLine
  8
0
 62
256
370
-1
  6
BYLAYER
 10
124.8455825783356659
 20
-181.8058976654860999
 30
0.0
 11
138.7455825783356431
 21
-181.8058976654860999
 31
0.0
  0
LINE
  5
8E
100
AcDbEntity
100
AcDbLine
  8
0
 62
256
370
-1
  6
BYLAYER
 10
138.7455825783356431
 20
-181.8058976654860999
 30
0.0
 11
138.7455825783356431
 21
-195.7058976654860771
 31
0.0
  0
LINE
  5
8F
100
AcDbEntity
100
AcDbLine
  8
0
 62
256
370
-1
  6
BYLAYER
 10
138.7455825783356431
 20
-195.7058976654860771
 30
0.0
 11
124.8455825783356659
 21
-195.7058976654860771
 31
0.0
  0
LINE
  5
90
100
AcDbEntity
100
AcDbLine
  8
0
 62
256
370
-1
  6
BYLAYER
 10
124.8455825783356659
 20
-195.7058976654860771
 30
0.0
 11
124.8455825783356659
 21
-181.8058976654860999
 31
0.0
  0
LINE
  5
91
100
AcDbEntity
100
AcDbLine
  8
0
 62
256
370
-1
  6
BYLAYER
 10
141.7455825783356431
 20
-181.8058976654860999
 30
0.0
 11
141.7455825783356431
 21
-195.705897665486134
 31
0.0
  0
LINE
  5
92
100
AcDbEntity
100
AcDbLine
  8
0
 62
256
370
-1
  6
BYLAYER
 10
138.7455825783356715
 20
-198.7058976654860771
 30
0.0
 11
124.8455825783356659
 21
-198.7058976654860771
 31
0.0
  0
LINE
  5
93
100
AcDbEntity
100
AcDbLine
  8
0
 62
256
370
-1
  6
BYLAYER
 10
121.8455825783356659
 20
-195.7058976654860771
 30
0.0
 11
121.8455825783356659
 21
-181.8058976654860999
 31
0.0
  0
ARC
  5
94
100
AcDbEntity
  8
0
 62
256
370
-1
  6
BYLAYER
100
AcDbCircle
 10
124.8455825783356659
 20
-195.7058976654860771
 30
0.0
 40
3.0
100
AcDbArc
 50
180.0
 51
270.0000000000000568
  0
ARC
  5
95
100
AcDbEntity
  8
0
 62
256
370
-1
  6
BYLAYER
100
AcDbCircle
 10
138.7455825783356715
 20
-195.7058976654860771
 30
0.0
 40
3.0
100
AcDbArc
 50
270.0
 51
0.0
  0
LINE
  5
96
100
AcDbEntity
100
AcDbLine
  8
0
 62
256
370
-1
  6
BYLAYER
 10
128.7955825783356261
 20
-88.8058976654861141
 30
0.0
 11
134.7955825783356545
 21
-88.8058976654861141
 31
0.0
  0
LINE
  5
97
100
AcDbEntity
100
AcDbLine
  8
0
 62
256
370
-1
  6
BYLAYER
 10
134.7955825783356545
 20
-88.8058976654861141
 30
0.0
 11
134.7955825783356545
 21
-175.8058976654860999
 31
0.0
  0
LINE
  5
98
100
AcDbEntity
100
AcDbLine
  8
0
 62
256
370
-1
  6
BYLAYER
 10
128.7955825783356545
 20
-175.8058976654860999
 30
0.0
 11
128.7955825783356261
 21
-88.8058976654861141
 31
0.0
  0
LINE
  5
99
100
AcDbEntity
100
AcDbLine
  8
0
 62
256
370
-1
  6
BYLAYER
 10
124.8455825783356659
 20
-178.8058976654860999
 30
0.0
 11
125.7955825783356545
 21
-178.8058976654860999
 31
0.0
  0
LINE
  5
9A
100
AcDbEntity
100
AcDbLine
  8
0
 62
256
370
-1
  6
BYLAYER
 10
137.7955825783356545
 20
-178.8058976654860999
 30
0.0
 11
138.7455825783356431
 21
-178.8058976654860999
 31
0.0
  0
ARC
  5
9B
100
AcDbEntity
  8
0
 62
256
370
-1
  6
BYLAYER
100
AcDbCircle
 10
125.7955825783356545
 20
-175.8058976654860999
 30
0.0
 40
3.0
100
AcDbArc
 50
270.0
 51
0.0
  0
ARC
  5
9C
100
AcDbEntity
  8
0
 62
256
370
-1
  6
BYLAYER
100
AcDbCircle
 10
137.7955825783356545
 20
-175.8058976654860999
 30
0.0
 40
3.0
100
AcDbArc
 50
180.0
 51
270.0
  0
ARC
  5
9D
100
AcDbEntity
  8
0
 62
256
370
-1
  6
BYLAYER
100
AcDbCircle
 10
138.7455825783356431
 20
-181.8058976654860999
 30
0.0
 40
3.0
100
AcDbArc
 50
0.0
 51
90.0000000000000142
  0
ARC
  5
9E
100
AcDbEntity
  8
0
 62
256
370
-1
  6
BYLAYER
100
AcDbCircle
 10
124.8455825783356659
 20
-181.8058976654860999
 30
0.0
 40
3.0
100
AcDbArc
 50
90.0000000000000142
 51
180.0
  0
LINE
  5
9F
100
AcDbEntity
100
AcDbLine
  8
0
 62
256
370
-1
  6
BYLAYER
 10
137.2955825783356829
 20
-88.7558976654861027
 30
0.0
 11
138.2955825783356829
 21
-88.7558976654861027
 31
0.0
  0
LINE
  5
A0
100
AcDbEntity
100
AcDbLine
  8
0
 62
256
370
-1
  6
BYLAYER
 10
140.2955825783355976
 20
-90.7558976654861027
 30
0.0
 11
140.2955825783356545
 21
-174.7558976654860885
 31
0.0
  0
LINE
  5
A1
100
AcDbEntity
100
AcDbLine
  8
0
 62
256
370
-1
  6
BYLAYER
 10
138.2955825783356545
 20
-176.7558976654860885
 30
0.0
 11
137.2955825783356545
 21
-176.7558976654860885
 31
0.0
  0
LINE
  5
A2
100
AcDbEntity
100
AcDbLine
  8
0
 62
256
370
-1
  6
BYLAYER
 10
137.2955825783356545
 20
-176.7558976654860885
 30
0.0
 11
137.2955825783356829
 21
-88.7558976654861027
 31
0.0
  0
ARC
  5
A3
100
AcDbEntity
  8
0
 62
256
370
-1
  6
BYLAYER
100
AcDbCircle
 10
138.2955825783356545
 20
-174.7558976654860885
 30
0.0
 40
2.0
100
AcDbArc
 50
270.0
 51
0.0
  0
ARC
  5
A4
100
AcDbEntity
  8
0
 62
256
370
-1
  6
BYLAYER
100
AcDbCircle
 10
138.2955825783356545
 20
-90.7558976654861027
 30
0.0
 40
2.0
100
AcDbArc
 50
0.0
 51
90.0000000000000142
  0
LINE
  5
A5
100
AcDbEntity
100
AcDbLine
  8
0
 62
256
370
-1
  6
BYLAYER
 10
139.255359601799853
 20
-84.0
 30
0.0
 11
153.1553596017998302
 21
-84.0
 31
0.0
  0
LINE
  5
A6
100
AcDbEntity
100
AcDbLine
  8
0
 62
256
370
-1
  6
BYLAYER
 10
153.1553596017998302
 20
-84.0
 30
0.0
 11
153.1553596017998302
 21
-70.0999999999999943
 31
0.0
  0
LINE
  5
A7
100
AcDbEntity
100
AcDbLine
  8
0
 62
256
370
-1
  6
BYLAYER
 10
153.1553596017998302
 20
-70.0999999999999943
 30
0.0
 11
139.255359601799853
 21
-70.0999999999999943
 31
0.0
  0
LINE
  5
A8
100
AcDbEntity
100
AcDbLine
  8
0
 62
256
370
-1
  6
BYLAYER
 10
139.255359601799853
 20
-70.0999999999999943
 30
0.0
 11
139.255359601799853
 21
-84.0
 31
0.0
  0
LINE
  5
A9
100
AcDbEntity
100
AcDbLine
  8
0
 62
256
370
-1
  6
BYLAYER
 10
156.1553596017998302
 20
-84.0
 30
0.0
 11
156.1553596017998302
 21
-70.0999999999999943
 31
0.0
  0
LINE
  5
AA
100
AcDbEntity
100
AcDbLine
  8
0
 62
256
370
-1
  6
BYLAYER
 10
153.1553596017998586
 20
-67.0999999999999943
 30
0.0
 11
139.255359601799853
 21
-67.0999999999999943
 31
0.0
  0
LINE
  5
AB
100
AcDbEntity
100
AcDbLine
  8
0
 62
256
370
-1
  6
BYLAYER
 10
136.255359601799853
 20
-70.0999999999999943
 30
0.0
 11
136.255359601799853
 21
-84.0
 31
0.0
  0
ARC
  5
AC
100
AcDbEntity
  8
0
 62
256
370
-1
  6
BYLAYER
100
AcDbCircle
 10
139.255359601799853
 20
-70.0999999999999943
 30
0.0
 40
3.0
100
AcDbArc
 50
89.9999999999999432
 51
180.0
  0
ARC
  5
AD
100
AcDbEntity
  8
0
 62
256
370
-1
  6
BYLAYER
100
AcDbCircle
 10
153.1553596017998586
 20
-70.0999999999999943
 30
0.0
 40
3.0
100
AcDbArc
 50
0.0
 51
90.0
  0
LINE
  5
AE
100
AcDbEntity
100
AcDbLine
  8
0
 62
256
370
-1
  6
BYLAYER
 10
143.2053596017998416
 20
-177.0
 30
0.0
 11
149.2053596017998416
 21
-177.0
 31
0.0
  0
LINE
  5
AF
100
AcDbEntity
100
AcDbLine
  8
0
 62
256
370
-1
  6
BYLAYER
 10
149.2053596017998416
 20
-177.0
 30
0.0
 11
149.2053596017998416
 21
-90.0
 31
0.0
  0
LINE
  5
B0
100
AcDbEntity
100
AcDbLine
  8
0
 62
256
370
-1
  6
BYLAYER
 10
143.2053596017998416
 20
-90.0
 30
0.0
 11
143.2053596017998416
 21
-177.0
 31
0.0
  0
LINE
  5
B1
100
AcDbEntity
100
AcDbLine
  8
0
 62
256
370
-1
  6
BYLAYER
 10
139.255359601799853
 20
-87.0
 30
0.0
 11
140.2053596017998416
 21
-87.0
 31
0.0
  0
LINE
  5
B2
100
AcDbEntity
100
AcDbLine
  8
0
 62
256
370
-1
  6
BYLAYER
 10
152.2053596017998416
 20
-87.0
 30
0.0
 11
153.1553596017998302
 21
-87.0
 31
0.0
  0
ARC
  5
B3
100
AcDbEntity
  8
0
 62
256
370
-1
  6
BYLAYER
100
AcDbCircle
 10
140.2053596017998416
 20
-90.0
 30
0.0
 40
3.0
100
AcDbArc
 50
0.0
 51
90.0
  0
ARC
  5
B4
100
AcDbEntity
  8
0
 62
256
370
-1
  6
BYLAYER
100
AcDbCircle
 10
152.2053596017998416
 20
-89.9999999999999858
 30
0.0
 40
3.0
100
AcDbArc
 50
90.0
 51
180.0
  0
ARC
  5
B5
100
AcDbEntity
  8
0
 62
256
370
-1
  6
BYLAYER
100
AcDbCircle
 10
153.1553596017998302
 20
-84.0
 30
0.0
 40
3.0
100
AcDbArc
 50
270.0
 51
0.0
  0
ARC
  5
B6
100
AcDbEntity
  8
0
 62
256
370
-1
  6
BYLAYER
100
AcDbCircle
 10
139.255359601799853
 20
-84.0
 30
0.0
 40
3.0
100
AcDbArc
 50
180.0
 51
270.0
  0
LINE
  5
B7
100
AcDbEntity
100
AcDbLine
  8
0
 62
256
370
-1
  6
BYLAYER
 10
151.7053596017998416
 20
-177.0500000000000114
 30
0.0
 11
152.7053596017998416
 21
-177.0500000000000114
 31
0.0
  0
LINE
  5
B8
100
AcDbEntity
100
AcDbLine
  8
0
 62
256
370
-1
  6
BYLAYER
 10
154.7053596017998416
 20
-175.0500000000000114
 30
0.0
 11
154.7053596017998416
 21
-91.0499999999999972
 31
0.0
  0
LINE
  5
B9
100
AcDbEntity
100
AcDbLine
  8
0
 62
256
370
-1
  6
BYLAYER
 10
152.7053596017998416
 20
-89.0499999999999972
 30
0.0
 11
151.7053596017998416
 21
-89.0499999999999972
 31
0.0
  0
LINE
  5
BA
100
AcDbEntity
100
AcDbLine
  8
0
 62
256
370
-1
  6
BYLAYER
 10
151.7053596017998416
 20
-89.0499999999999972
 30
0.0
 11
151.7053596017998416
 21
-177.0500000000000114
 31
0.0
  0
ARC
  5
BB
100
AcDbEntity
  8
0
 62
256
370
-1
  6
BYLAYER
100
AcDbCircle
 10
152.7053596017998416
 20
-91.0499999999999972
 30
0.0
 40
2.0
100
AcDbArc
 50
0.0
 51
90.0
  0
ARC
  5
BC
100
AcDbEntity
  8
0
 62
256
370
-1
  6
BYLAYER
100
AcDbCircle
 10
152.7053596017998416
 20
-175.0500000000000114
 30
0.0
 40
2.0
100
AcDbArc
 50
270.0
 51
0.0
  0
LINE
  5
BD
100
AcDbEntity
100
AcDbLine
  8
0
 62
256
370
-1
  6
BYLAYER
 10
152.7553596017997961
 20
-182.0500000000000114
 30
0.0
 11
166.6553596017998302
 21
-182.0499999999999829
 31
0.0
  0
LINE
  5
BE
100
AcDbEntity
100
AcDbLine
  8
0
 62
256
370
-1
  6
BYLAYER
 10
166.6553596017998302
 20
-182.0499999999999829
 30
0.0
 11
166.6553596017998302
 21
-195.9499999999999886
 31
0.0
  0
LINE
  5
BF
100
AcDbEntity
100
AcDbLine
  8
0
 62
256
370
-1
  6
BYLAYER
 10
166.6553596017998302
 20
-195.9499999999999886
 30
0.0
 11
152.7553596017997961
 21
-195.9499999999999886
 31
0.0
  0
LINE
  5
C0
100
AcDbEntity
100
AcDbLine
  8
0
 62
256
370
-1
  6
BYLAYER
 10
152.7553596017997961
 20
-195.9499999999999886
 30
0.0
 11
152.7553596017997961
 21
-182.0500000000000114
 31
0.0
  0
LINE
  5
C1
100
AcDbEntity
100
AcDbLine
  8
0
 62
256
370
-1
  6
BYLAYER
 10
169.6553596017998302
 20
-182.0499999999999829
 30
0.0
 11
169.6553596017998302
 21
-195.9500000000000171
 31
0.0
  0
LINE
  5
C2
100
AcDbEntity
100
AcDbLine
  8
0
 62
256
370
-1
  6
BYLAYER
 10
166.6553596017998302
 20
-198.9499999999999886
 30
0.0
 11
152.7553596017998245
 21
-198.9499999999999886
 31
0.0
  0
LINE
  5
C3
100
AcDbEntity
100
AcDbLine
  8
0
 62
256
370
-1
  6
BYLAYER
 10
149.7553596017997961
 20
-195.9499999999999886
 30
0.0
 11
149.7553596017997961
 21
-182.0500000000000114
 31
0.0
  0
ARC
  5
C4
100
AcDbEntity
  8
0
 62
256
370
-1
  6
BYLAYER
100
AcDbCircle
 10
152.7553596017997961
 20
-195.9499999999999886
 30
0.0
 40
3.0
100
AcDbArc
 50
180.0
 51
270.0000000000000568
  0
ARC
  5
C5
100
AcDbEntity
  8
0
 62
256
370
-1
  6
BYLAYER
100
AcDbCircle
 10
166.6553596017998302
 20
-195.9499999999999886
 30
0.0
 40
3.0
100
AcDbArc
 50
270.0
 51
0.0
  0
LINE
  5
C6
100
AcDbEntity
100
AcDbLine
  8
0
 62
256
370
-1
  6
BYLAYER
 10
156.7053596017997847
 20
-89.0500000000000114
 30
0.0
 11
162.7053596017997847
 21
-89.0500000000000114
 31
0.0
  0
LINE
  5
C7
100
AcDbEntity
100
AcDbLine
  8
0
 62
256
370
-1
  6
BYLAYER
 10
162.7053596017997847
 20
-89.0500000000000114
 30
0.0
 11
162.7053596017998132
 21
-176.0500000000000114
 31
0.0
  0
LINE
  5
C8
100
AcDbEntity
100
AcDbLine
  8
0
 62
256
370
-1
  6
BYLAYER
 10
156.7053596017998132
 20
-176.0500000000000114
 30
0.0
 11
156.7053596017997847
 21
-89.0500000000000114
 31
0.0
  0
LINE
  5
C9
100
AcDbEntity
100
AcDbLine
  8
0
 62
256
370
-1
  6
BYLAYER
 10
152.7553596017997961
 20
-179.0500000000000114
 30
0.0
 11
153.7053596017998132
 21
-179.0500000000000114
 31
0.0
  0
LINE
  5
CA
100
AcDbEntity
100
AcDbLine
  8
0
 62
256
370
-1
  6
BYLAYER
 10
165.7053596017998132
 20
-179.0500000000000114
 30
0.0
 11
166.6553596017998302
 21
-179.0500000000000114
 31
0.0
  0
ARC
  5
CB
100
AcDbEntity
  8
0
 62
256
370
-1
  6
BYLAYER
100
AcDbCircle
 10
153.7053596017998132
 20
-176.0500000000000114
 30
0.0
 40
3.0
100
AcDbArc
 50
270.0
 51
0.0
  0
ARC
  5
CC
100
AcDbEntity
  8
0
 62
256
370
-1
  6
BYLAYER
100
AcDbCircle
 10
165.7053596017998132
 20
-176.0500000000000114
 30
0.0
 40
3.0
100
AcDbArc
 50
180.0
 51
270.0
  0
ARC
  5
CD
100
AcDbEntity
  8
0
 62
256
370
-1
  6
BYLAYER
100
AcDbCircle
 10
166.6553596017998302
 20
-182.0499999999999829
 30
0.0
 40
3.0
100
AcDbArc
 50
0.0
 51
90.0000000000000142
  0
ARC
  5
CE
100
AcDbEntity
  8
0
 62
256
370
-1
  6
BYLAYER
100
AcDbCircle
 10
152.7553596017997961
 20
-182.0500000000000114
 30
0.0
 40
3.0
100
AcDbArc
 50
90.0000000000000142
 51
180.0
  0
LINE
  5
CF
100
AcDbEntity
100
AcDbLine
  8
0
 62
256
370
-1
  6
BYLAYER
 10
165.2053596017998416
 20
-89.0
 30
0.0
 11
166.2053596017998416
 21
-89.0
 31
0.0
  0
LINE
  5
D0
100
AcDbEntity
100
AcDbLine
  8
0
 62
256
370
-1
  6
BYLAYER
 10
168.2053596017997563
 20
-91.0
 30
0.0
 11
168.2053596017997847
 21
-175.0
 31
0.0
  0
LINE
  5
D1
100
AcDbEntity
100
AcDbLine
  8
0
 62
256
370
-1
  6
BYLAYER
 10
166.2053596017998132
 20
-177.0
 30
0.0
 11
165.2053596017998132
 21
-177.0
 31
0.0
  0
LINE
  5
D2
100
AcDbEntity
100
AcDbLine
  8
0
 62
256
370
-1
  6
BYLAYER
 10
165.2053596017998132
 20
-177.0
 30
0.0
 11
165.2053596017998416
 21
-89.0
 31
0.0
  0
ARC
  5
D3
100
AcDbEntity
  8
0
 62
256
370
-1
  6
BYLAYER
100
AcDbCircle
 10
166.2053596017998132
 20
-175.0
 30
0.0
 40
2.0
100
AcDbArc
 50
270.0
 51
0.0
  0
ARC
  5
D4
100
AcDbEntity
  8
0
 62
256
370
-1
  6
BYLAYER
100
AcDbCircle
 10
166.2053596017998416
 20
-91.0
 30
0.0
 40
2.0
100
AcDbArc
 50
0.0
 51
90.0000000000000142
  0
LINE
  5
D5
100
AcDbEntity
100
AcDbLine
  8
0
 62
256
370
-1
  6
BYLAYER
 10
167.0500000000000114
 20
-83.3999999999999915
 30
0.0
 11
180.9499999999999886
 21
-83.3999999999999915
 31
0.0
  0
LINE
  5
D6
100
AcDbEntity
100
AcDbLine
  8
0
 62
256
370
-1
  6
BYLAYER
 10
180.9499999999999886
 20
-83.3999999999999915
 30
0.0
 11
180.9499999999999886
 21
-69.4999999999999858
 31
0.0
  0
LINE
  5
D7
100
AcDbEntity
100
AcDbLine
  8
0
 62
256
370
-1
  6
BYLAYER
 10
180.9499999999999886
 20
-69.4999999999999858
 30
0.0
 11
167.0500000000000114
 21
-69.4999999999999858
 31
0.0
  0
LINE
  5
D8
100
AcDbEntity
100
AcDbLine
  8
0
 62
256
370
-1
  6
BYLAYER
 10
167.0500000000000114
 20
-69.4999999999999858
 30
0.0
 11
167.0500000000000114
 21
-83.3999999999999915
 31
0.0
  0
LINE
  5
D9
100
AcDbEntity
100
AcDbLine
  8
0
 62
256
370
-1
  6
BYLAYER
 10
183.9499999999999886
 20
-83.3999999999999915
 30
0.0
 11
183.9499999999999886
 21
-69.4999999999999858
 31
0.0
  0
LINE
  5
DA
100
AcDbEntity
100
AcDbLine
  8
0
 62
256
370
-1
  6
BYLAYER
 10
180.9500000000000171
 20
-66.4999999999999858
 30
0.0
 11
167.0500000000000114
 21
-66.4999999999999858
 31
0.0
  0
LINE
  5
DB
100
AcDbEntity
100
AcDbLine
  8
0
 62
256
370
-1
  6
BYLAYER
 10
164.0500000000000114
 20
-69.4999999999999858
 30
0.0
 11
164.0500000000000114
 21
-83.3999999999999915
 31
0.0
  0
ARC
  5
DC
100
AcDbEntity
  8
0
 62
256
370
-1
  6
BYLAYER
100
AcDbCircle
 10
167.0500000000000114
 20
-69.4999999999999858
 30
0.0
 40
3.0
100
AcDbArc
 50
89.9999999999999432
 51
180.0
  0
ARC
  5
DD
100
AcDbEntity
  8
0
 62
256
370
-1
  6
BYLAYER
100
AcDbCircle
 10
180.9500000000000171
 20
-69.4999999999999858
 30
0.0
 40
3.0
100
AcDbArc
 50
0.0
 51
90.0
  0
LINE
  5
DE
100
AcDbEntity
100
AcDbLine
  8
0
 62
256
370
-1
  6
BYLAYER
 10
171.0
 20
-176.3999999999999773
 30
0.0
 11
177.0
 21
-176.3999999999999773
 31
0.0
  0
LINE
  5
DF
100
AcDbEntity
100
AcDbLine
  8
0
 62
256
370
-1
  6
BYLAYER
 10
177.0
 20
-176.3999999999999773
 30
0.0
 11
177.0
 21
-89.3999999999999915
 31
0.0
  0
LINE
  5
E0
100
AcDbEntity
100
AcDbLine
  8
0
 62
256
370
-1
  6
BYLAYER
 10
171.0
 20
-89.3999999999999915
 30
0.0
 11
171.0
 21
-176.3999999999999773
 31
0.0
  0
LINE
  5
E1
100
AcDbEntity
100
AcDbLine
  8
0
 62
256
370
-1
  6
BYLAYER
 10
167.0500000000000114
 20
-86.3999999999999915
 30
0.0
 11
168.0
 21
-86.3999999999999915
 31
0.0
  0
LINE
  5
E2
100
AcDbEntity
100
AcDbLine
  8
0
 62
256
370
-1
  6
BYLAYER
 10
180.0
 20
-86.3999999999999915
 30
0.0
 11
180.9499999999999886
 21
-86.3999999999999915
 31
0.0
  0
ARC
  5
E3
100
AcDbEntity
  8
0
 62
256
370
-1
  6
BYLAYER
100
AcDbCircle
 10
168.0
 20
-89.3999999999999915
 30
0.0
 40
3.0
100
AcDbArc
 50
0.0
 51
90.0
  0
ARC
  5
E4
100
AcDbEntity
  8
0
 62
256
370
-1
  6
BYLAYER
100
AcDbCircle
 10
180.0
 20
-89.3999999999999773
 30
0.0
 40
3.0
100
AcDbArc
 50
90.0
 51
180.0
  0
ARC
  5
E5
100
AcDbEntity
  8
0
 62
256
370
-1
  6
BYLAYER
100
AcDbCircle
 10
180.9499999999999886
 20
-83.3999999999999915
 30
0.0
 40
3.0
100
AcDbArc
 50
270.0
 51
0.0
  0
ARC
  5
E6
100
AcDbEntity
  8
0
 62
256
370
-1
  6
BYLAYER
100
AcDbCircle
 10
167.0500000000000114
 20
-83.3999999999999915
 30
0.0
 40
3.0
100
AcDbArc
 50
180.0
 51
270.0
  0
LINE
  5
E7
100
AcDbEntity
100
AcDbLine
  8
0
 62
256
370
-1
  6
BYLAYER
 10
179.5
 20
-176.4499999999999886
 30
0.0
 11
180.5
 21
-176.4499999999999886
 31
0.0
  0
LINE
  5
E8
100
AcDbEntity
100
AcDbLine
  8
0
 62
256
370
-1
  6
BYLAYER
 10
182.5
 20
-174.4499999999999886
 30
0.0
 11
182.5
 21
-90.4499999999999886
 31
0.0
  0
LINE
  5
E9
100
AcDbEntity
100
AcDbLine
  8
0
 62
256
370
-1
  6
BYLAYER
 10
180.5
 20
-88.4499999999999886
 30
0.0
 11
179.5
 21
-88.4499999999999886
 31
0.0
  0
LINE
  5
EA
100
AcDbEntity
100
AcDbLine
  8
0
 62
256
370
-1
  6
BYLAYER
 10
179.5
 20
-88.4499999999999886
 30
0.0
 11
179.5
 21
-176.4499999999999886
 31
0.0
  0
ARC
  5
EB
100
AcDbEntity
  8
0
 62
256
370
-1
  6
BYLAYER
100
AcDbCircle
 10
180.5
 20
-90.4499999999999886
 30
0.0
 40
2.0
100
AcDbArc
 50
0.0
 51
90.0
  0
ARC
  5
EC
100
AcDbEntity
  8
0
 62
256
370
-1
  6
BYLAYER
100
AcDbCircle
 10
180.5
 20
-174.4499999999999886
 30
0.0
 40
2.0
100
AcDbArc
 50
270.0
 51
0.0
  0
LINE
  5
ED
100
AcDbEntity
100
AcDbLine
  8
0
 62
256
370
-1
  6
BYLAYER
 10
181.0509421801355074
 20
-181.8058976654860999
 30
0.0
 11
194.9509421801354847
 21
-181.8058976654860999
 31
0.0
  0
LINE
  5
EE
100
AcDbEntity
100
AcDbLine
  8
0
 62
256
370
-1
  6
BYLAYER
 10
194.9509421801354847
 20
-181.8058976654860999
 30
0.0
 11
194.9509421801354847
 21
-195.7058976654860771
 31
0.0
  0
LINE
  5
EF
100
AcDbEntity
100
AcDbLine
  8
0
 62
256
370
-1
  6
BYLAYER
 10
194.9509421801354847
 20
-195.7058976654860771
 30
0.0
 11
181.0509421801355074
 21
-195.7058976654860771
 31
0.0
  0
LINE
  5
F0
100
AcDbEntity
100
AcDbLine
  8
0
 62
256
370
-1
  6
BYLAYER
 10
181.0509421801355074
 20
-195.7058976654860771
 30
0.0
 11
181.0509421801355074
 21
-181.8058976654860999
 31
0.0
  0
LINE
  5
F1
100
AcDbEntity
100
AcDbLine
  8
0
 62
256
370
-1
  6
BYLAYER
 10
197.9509421801354847
 20
-181.8058976654860999
 30
0.0
 11
197.9509421801354847
 21
-195.705897665486134
 31
0.0
  0
LINE
  5
F2
100
AcDbEntity
100
AcDbLine
  8
0
 62
256
370
-1
  6
BYLAYER
 10
194.9509421801355131
 20
-198.7058976654860771
 30
0.0
 11
181.0509421801355074
 21
-198.7058976654860771
 31
0.0
  0
LINE
  5
F3
100
AcDbEntity
100
AcDbLine
  8
0
 62
256
370
-1
  6
BYLAYER
 10
178.0509421801355074
 20
-195.7058976654860771
 30
0.0
 11
178.0509421801355074
 21
-181.8058976654860999
 31
0.0
  0
ARC
  5
F4
100
AcDbEntity
  8
0
 62
256
370
-1
  6
BYLAYER
100
AcDbCircle
 10
181.0509421801355074
 20
-195.7058976654860771
 30
0.0
 40
3.0
100
AcDbArc
 50
180.0
 51
270.0000000000000568
  0
ARC
  5
F5
100
AcDbEntity
  8
0
 62
256
370
-1
  6
BYLAYER
100
AcDbCircle
 10
194.9509421801355131
 20
-195.7058976654860771
 30
0.0
 40
3.0
100
AcDbArc
 50
270.0
 51
0.0
  0
LINE
  5
F6
100
AcDbEntity
100
AcDbLine
  8
0
 62
256
370
-1
  6
BYLAYER
 10
185.0009421801354677
 20
-88.8058976654861141
 30
0.0
 11
191.0009421801354961
 21
-88.8058976654861141
 31
0.0
  0
LINE
  5
F7
100
AcDbEntity
100
AcDbLine
  8
0
 62
256
370
-1
  6
BYLAYER
 10
191.0009421801354961
 20
-88.8058976654861141
 30
0.0
 11
191.0009421801354961
 21
-175.8058976654860999
 31
0.0
  0
LINE
  5
F8
100
AcDbEntity
100
AcDbLine
  8
0
 62
256
370
-1
  6
BYLAYER
 10
185.0009421801354961
 20
-175.8058976654860999
 30
0.0
 11
185.0009421801354677
 21
-88.8058976654861141
 31
0.0
  0
LINE
  5
F9
100
AcDbEntity
100
AcDbLine
  8
0
 62
256
370
-1
  6
BYLAYER
 10
181.0509421801355074
 20
-178.8058976654860999
 30
0.0
 11
182.0009421801354961
 21
-178.8058976654860999
 31
0.0
  0
LINE
  5
FA
100
AcDbEntity
100
AcDbLine
  8
0
 62
256
370
-1
  6
BYLAYER
 10
194.0009421801354961
 20
-178.8058976654860999
 30
0.0
 11
194.9509421801354847
 21
-178.8058976654860999
 31
0.0
  0
ARC
  5
FB
100
AcDbEntity
  8
0
 62
256
370
-1
  6
BYLAYER
100
AcDbCircle
 10
182.0009421801354961
 20
-175.8058976654860999
 30
0.0
 40
3.0
100
AcDbArc
 50
270.0
 51
0.0
  0
ARC
  5
FC
100
AcDbEntity
  8
0
 62
256
370
-1
  6
BYLAYER
100
AcDbCircle
 10
194.0009421801354961
 20
-175.8058976654860999
 30
0.0
 40
3.0
100
AcDbArc
 50
180.0
 51
270.0
  0
ARC
  5
FD
100
AcDbEntity
  8
0
 62
256
370
-1
  6
BYLAYER
100
AcDbCircle
 10
194.9509421801354847
 20
-181.8058976654860999
 30
0.0
 40
3.0
100
AcDbArc
 50
0.0
 51
90.0000000000000142
  0
ARC
  5
FE
100
AcDbEntity
  8
0
 62
256
370
-1
  6
BYLAYER
100
AcDbCircle
 10
181.0509421801355074
 20
-181.8058976654860999
 30
0.0
 40
3.0
100
AcDbArc
 50
90.0000000000000142
 51
180.0
  0
LINE
  5
FF
100
AcDbEntity
100
AcDbLine
  8
0
 62
256
370
-1
  6
BYLAYER
 10
193.5009421801355245
 20
-88.7558976654861027
 30
0.0
 11
194.5009421801355245
 21
-88.7558976654861027
 31
0.0
  0
LINE
  5
100
100
AcDbEntity
100
AcDbLine
  8
0
 62
256
370
-1
  6
BYLAYER
 10
196.5009421801354392
 20
-90.7558976654861027
 30
0.0
 11
196.5009421801354961
 21
-174.7558976654860885
 31
0.0
  0
LINE
  5
101
100
AcDbEntity
100
AcDbLine
  8
0
 62
256
370
-1
  6
BYLAYER
 10
194.5009421801354961
 20
-176.7558976654860885
 30
0.0
 11
193.5009421801354961
 21
-176.7558976654860885
 31
0.0
  0
LINE
  5
102
100
AcDbEntity
100
AcDbLine
  8
0
 62
256
370
-1
  6
BYLAYER
 10
193.5009421801354961
 20
-176.7558976654860885
 30
0.0
 11
193.5009421801355245
 21
-88.7558976654861027
 31
0.0
  0
ARC
  5
103
100
AcDbEntity
  8
0
 62
256
370
-1
  6
BYLAYER
100
AcDbCircle
 10
194.5009421801354961
 20
-174.7558976654860885
 30
0.0
 40
2.0
100
AcDbArc
 50
270.0
 51
0.0
  0
ARC
  5
104
100
AcDbEntity
  8
0
 62
256
370
-1
  6
BYLAYER
100
AcDbCircle
 10
194.5009421801354961
 20
-90.7558976654861027
 30
0.0
 40
2.0
100
AcDbArc
 50
0.0
 51
90.0000000000000142
  0
LINE
  5
105
100
AcDbEntity
100
AcDbLine
  8
0
 62
256
370
-1
  6
BYLAYER
 10
195.4607192035996945
 20
-84.0
 30
0.0
 11
209.3607192035996718
 21
-84.0
 31
0.0
  0
LINE
  5
106
100
AcDbEntity
100
AcDbLine
  8
0
 62
256
370
-1
  6
BYLAYER
 10
209.3607192035996718
 20
-84.0
 30
0.0
 11
209.3607192035996718
 21
-70.0999999999999943
 31
0.0
  0
LINE
  5
107
100
AcDbEntity
100
AcDbLine
  8
0
 62
256
370
-1
  6
BYLAYER
 10
209.3607192035996718
 20
-70.0999999999999943
 30
0.0
 11
195.4607192035996945
 21
-70.0999999999999943
 31
0.0
  0
LINE
  5
108
100
AcDbEntity
100
AcDbLine
  8
0
 62
256
370
-1
  6
BYLAYER
 10
195.4607192035996945
 20
-70.0999999999999943
 30
0.0
 11
195.4607192035996945
 21
-84.0
 31
0.0
  0
LINE
  5
109
100
AcDbEntity
100
AcDbLine
  8
0
 62
256
370
-1
  6
BYLAYER
 10
212.3607192035996718
 20
-84.0
 30
0.0
 11
212.3607192035996718
 21
-70.0999999999999943
 31
0.0
  0
LINE
  5
10A
100
AcDbEntity
100
AcDbLine
  8
0
 62
256
370
-1
  6
BYLAYER
 10
209.3607192035997002
 20
-67.0999999999999943
 30
0.0
 11
195.4607192035996945
 21
-67.0999999999999943
 31
0.0
  0
LINE
  5
10B
100
AcDbEntity
100
AcDbLine
  8
0
 62
256
370
-1
  6
BYLAYER
 10
192.4607192035996945
 20
-70.0999999999999943
 30
0.0
 11
192.4607192035996945
 21
-84.0
 31
0.0
  0
ARC
  5
10C
100
AcDbEntity
  8
0
 62
256
370
-1
  6
BYLAYER
100
AcDbCircle
 10
195.4607192035996945
 20
-70.0999999999999943
 30
0.0
 40
3.0
100
AcDbArc
 50
89.9999999999999432
 51
180.0
  0
ARC
  5
10D
100
AcDbEntity
  8
0
 62
256
370
-1
  6
BYLAYER
100
AcDbCircle
 10
209.3607192035997002
 20
-70.0999999999999943
 30
0.0
 40
3.0
100
AcDbArc
 50
0.0
 51
90.0
  0
LINE
  5
10E
100
AcDbEntity
100
AcDbLine
  8
0
 62
256
370
-1
  6
BYLAYER
 10
199.4107192035996832
 20
-177.0
 30
0.0
 11
205.4107192035996832
 21
-177.0
 31
0.0
  0
LINE
  5
10F
100
AcDbEntity
100
AcDbLine
  8
0
 62
256
370
-1
  6
BYLAYER
 10
205.4107192035996832
 20
-177.0
 30
0.0
 11
205.4107192035996832
 21
-90.0
 31
0.0
  0
LINE
  5
110
100
AcDbEntity
100
AcDbLine
  8
0
 62
256
370
-1
  6
BYLAYER
 10
199.4107192035996832
 20
-90.0
 30
0.0
 11
199.4107192035996832
 21
-177.0
 31
0.0
  0
LINE
  5
111
100
AcDbEntity
100
AcDbLine
  8
0
 62
256
370
-1
  6
BYLAYER
 10
195.4607192035996945
 20
-87.0
 30
0.0
 11
196.4107192035996832
 21
-87.0
 31
0.0
  0
LINE
  5
112
100
AcDbEntity
100
AcDbLine
  8
0
 62
256
370
-1
  6
BYLAYER
 10
208.4107192035996832
 20
-87.0
 30
0.0
 11
209.3607192035996718
 21
-87.0
 31
0.0
  0
ARC
  5
113
100
AcDbEntity
  8
0
 62
256
370
-1
  6
BYLAYER
100
AcDbCircle
 10
196.4107192035996832
 20
-90.0
 30
0.0
 40
3.0
100
AcDbArc
 50
0.0
 51
90.0
  0
ARC
  5
114
100
AcDbEntity
  8
0
 62
256
370
-1
  6
BYLAYER
100
AcDbCircle
 10
208.4107192035996832
 20
-89.9999999999999858
 30
0.0
 40
3.0
100
AcDbArc
 50
90.0
 51
180.0
  0
ARC
  5
115
100
AcDbEntity
  8
0
 62
256
370
-1
  6
BYLAYER
100
AcDbCircle
 10
209.3607192035996718
 20
-84.0
 30
0.0
 40
3.0
100
AcDbArc
 50
270.0
 51
0.0
  0
ARC
  5
116
100
AcDbEntity
  8
0
 62
256
370
-1
  6
BYLAYER
100
AcDbCircle
 10
195.4607192035996945
 20
-84.0
 30
0.0
 40
3.0
100
AcDbArc
 50
180.0
 51
270.0
  0
LINE
  5
117
100
AcDbEntity
100
AcDbLine
  8
0
 62
256
370
-1
  6
BYLAYER
 10
207.9107192035996832
 20
-177.0500000000000114
 30
0.0
 11
208.9107192035996832
 21
-177.0500000000000114
 31
0.0
  0
LINE
  5
118
100
AcDbEntity
100
AcDbLine
  8
0
 62
256
370
-1
  6
BYLAYER
 10
210.9107192035996832
 20
-175.0500000000000114
 30
0.0
 11
210.9107192035996832
 21
-91.0499999999999972
 31
0.0
  0
LINE
  5
119
100
AcDbEntity
100
AcDbLine
  8
0
 62
256
370
-1
  6
BYLAYER
 10
208.9107192035996832
 20
-89.0499999999999972
 30
0.0
 11
207.9107192035996832
 21
-89.0499999999999972
 31
0.0
  0
LINE
  5
11A
100
AcDbEntity
100
AcDbLine
  8
0
 62
256
370
-1
  6
BYLAYER
 10
207.9107192035996832
 20
-89.0499999999999972
 30
0.0
 11
207.9107192035996832
 21
-177.0500000000000114
 31
0.0
  0
ARC
  5
11B
100
AcDbEntity
  8
0
 62
256
370
-1
  6
BYLAYER
100
AcDbCircle
 10
208.9107192035996832
 20
-91.0499999999999972
 30
0.0
 40
2.0
100
AcDbArc
 50
0.0
 51
90.0
  0
ARC
  5
11C
100
AcDbEntity
  8
0
 62
256
370
-1
  6
BYLAYER
100
AcDbCircle
 10
208.9107192035996832
 20
-175.0500000000000114
 30
0.0
 40
2.0
100
AcDbArc
 50
270.0
 51
0.0
  0
LINE
  5
11D
100
AcDbEntity
100
AcDbLine
  8
0
 62
256
370
-1
  6
BYLAYER
 10
208.9607192035996377
 20
-182.0500000000000114
 30
0.0
 11
222.8607192035996718
 21
-182.0499999999999829
 31
0.0
  0
LINE
  5
11E
100
AcDbEntity
100
AcDbLine
  8
0
 62
256
370
-1
  6
BYLAYER
 10
222.8607192035996718
 20
-182.0499999999999829
 30
0.0
 11
222.8607192035996718
 21
-195.9499999999999886
 31
0.0
  0
LINE
  5
11F
100
AcDbEntity
100
AcDbLine
  8
0
 62
256
370
-1
  6
BYLAYER
 10
222.8607192035996718
 20
-195.9499999999999886
 30
0.0
 11
208.9607192035996377
 21
-195.9499999999999886
 31
0.0
  0
LINE
  5
120
100
AcDbEntity
100
AcDbLine
  8
0
 62
256
370
-1
  6
BYLAYER
 10
208.9607192035996377
 20
-195.9499999999999886
 30
0.0
 11
208.9607192035996377
 21
-182.0500000000000114
 31
0.0
  0
LINE
  5
121
100
AcDbEntity
100
AcDbLine
  8
0
 62
256
370
-1
  6
BYLAYER
 10
225.8607192035996718
 20
-182.0499999999999829
 30
0.0
 11
225.8607192035996718
 21
-195.9500000000000171
 31
0.0
  0
LINE
  5
122
100
AcDbEntity
100
AcDbLine
  8
0
 62
256
370
-1
  6
BYLAYER
 10
222.8607192035996718
 20
-198.9499999999999886
 30
0.0
 11
208.9607192035996661
 21
-198.9499999999999886
 31
0.0
  0
LINE
  5
123
100
AcDbEntity
100
AcDbLine
  8
0
 62
256
370
-1
  6
BYLAYER
 10
205.9607192035996377
 20
-195.9499999999999886
 30
0.0
 11
205.9607192035996377
 21
-182.0500000000000114
 31
0.0
  0
ARC
  5
124
100
AcDbEntity
  8
0
 62
256
370
-1
  6
BYLAYER
100
AcDbCircle
 10
208.9607192035996377
 20
-195.9499999999999886
 30
0.0
 40
3.0
100
AcDbArc
 50
180.0
 51
270.0000000000000568
  0
ARC
  5
125
100
AcDbEntity
  8
0
 62
256
370
-1
  6
BYLAYER
100
AcDbCircle
 10
222.8607192035996718
 20
-195.9499999999999886
 30
0.0
 40
3.0
100
AcDbArc
 50
270.0
 51
0.0
  0
LINE
  5
126
100
AcDbEntity
100
AcDbLine
  8
0
 62
256
370
-1
  6
BYLAYER
 10
212.9107192035996263
 20
-89.0500000000000114
 30
0.0
 11
218.9107192035996263
 21
-89.0500000000000114
 31
0.0
  0
LINE
  5
127
100
AcDbEntity
100
AcDbLine
  8
0
 62
256
370
-1
  6
BYLAYER
 10
218.9107192035996263
 20
-89.0500000000000114
 30
0.0
 11
218.9107192035996547
 21
-176.0500000000000114
 31
0.0
  0
LINE
  5
128
100
AcDbEntity
100
AcDbLine
  8
0
 62
256
370
-1
  6
BYLAYER
 10
212.9107192035996547
 20
-176.0500000000000114
 30
0.0
 11
212.9107192035996263
 21
-89.0500000000000114
 31
0.0
  0
LINE
  5
129
100
AcDbEntity
100
AcDbLine
  8
0
 62
256
370
-1
  6
BYLAYER
 10
208.9607192035996377
 20
-179.0500000000000114
 30
0.0
 11
209.9107192035996547
 21
-179.0500000000000114
 31
0.0
  0
LINE
  5
12A
100
AcDbEntity
100
AcDbLine
  8
0
 62
256
370
-1
  6
BYLAYER
 10
221.9107192035996547
 20
-179.0500000000000114
 30
0.0
 11
222.8607192035996718
 21
-179.0500000000000114
 31
0.0
  0
ARC
  5
12B
100
AcDbEntity
  8
0
 62
256
370
-1
  6
BYLAYER
100
AcDbCircle
 10
209.9107192035996547
 20
-176.0500000000000114
 30
0.0
 40
3.0
100
AcDbArc
 50
270.0
 51
0.0
  0
ARC
  5
12C
100
AcDbEntity
  8
0
 62
256
370
-1
  6
BYLAYER
100
AcDbCircle
 10
221.9107192035996547
 20
-176.0500000000000114
 30
0.0
 40
3.0
100
AcDbArc
 50
180.0
 51
270.0
  0
ARC
  5
12D
100
AcDbEntity
  8
0
 62
256
370
-1
  6
BYLAYER
100
AcDbCircle
 10
222.8607192035996718
 20
-182.0499999999999829
 30
0.0
 40
3.0
100
AcDbArc
 50
0.0
 51
90.0000000000000142
  0
ARC
  5
12E
100
AcDbEntity
  8
0
 62
256
370
-1
  6
BYLAYER
100
AcDbCircle
 10
208.9607192035996377
 20
-182.0500000000000114
 30
0.0
 40
3.0
100
AcDbArc
 50
90.0000000000000142
 51
180.0
  0
LINE
  5
12F
100
AcDbEntity
100
AcDbLine
  8
0
 62
256
370
-1
  6
BYLAYER
 10
221.4107192035996832
 20
-89.0
 30
0.0
 11
222.4107192035996832
 21
-89.0
 31
0.0
  0
LINE
  5
130
100
AcDbEntity
100
AcDbLine
  8
0
 62
256
370
-1
  6
BYLAYER
 10
224.4107192035995979
 20
-91.0
 30
0.0
 11
224.4107192035996263
 21
-175.0
 31
0.0
  0
LINE
  5
131
100
AcDbEntity
100
AcDbLine
  8
0
 62
256
370
-1
  6
BYLAYER
 10
222.4107192035996547
 20
-177.0
 30
0.0
 11
221.4107192035996547
 21
-177.0
 31
0.0
  0
LINE
  5
132
100
AcDbEntity
100
AcDbLine
  8
0
 62
256
370
-1
  6
BYLAYER
 10
221.4107192035996547
 20
-177.0
 30
0.0
 11
221.4107192035996832
 21
-89.0
 31
0.0
  0
ARC
  5
133
100
AcDbEntity
  8
0
 62
256
370
-1
  6
BYLAYER
100
AcDbCircle
 10
222.4107192035996547
 20
-175.0
 30
0.0
 40
2.0
100
AcDbArc
 50
270.0
 51
0.0
  0
ARC
  5
134
100
AcDbEntity
  8
0
 62
256
370
-1
  6
BYLAYER
100
AcDbCircle
 10
222.4107192035996832
 20
-91.0
 30
0.0
 40
2.0
100
AcDbArc
 50
0.0
 51
90.0000000000000142
  0
LINE
  5
135
100
AcDbEntity
100
AcDbLine
  8
0
 62
256
370
-1
  6
BYLAYER
 10
223.255359601799853
 20
-83.3999999999999915
 30
0.0
 11
237.1553596017998302
 21
-83.3999999999999915
 31
0.0
  0
LINE
  5
136
100
AcDbEntity
100
AcDbLine
  8
0
 62
256
370
-1
  6
BYLAYER
 10
237.1553596017998302
 20
-83.3999999999999915
 30
0.0
 11
237.1553596017998302
 21
-69.4999999999999858
 31
0.0
  0
LINE
  5
137
100
AcDbEntity
100
AcDbLine
  8
0
 62
256
370
-1
  6
BYLAYER
 10
237.1553596017998302
 20
-69.4999999999999858
 30
0.0
 11
223.255359601799853
 21
-69.4999999999999858
 31
0.0
  0
LINE
  5
138
100
AcDbEntity
100
AcDbLine
  8
0
 62
256
370
-1
  6
BYLAYER
 10
223.255359601799853
 20
-69.4999999999999858
 30
0.0
 11
223.255359601799853
 21
-83.3999999999999915
 31
0.0
  0
LINE
  5
139
100
AcDbEntity
100
AcDbLine
  8
0
 62
256
370
-1
  6
BYLAYER
 10
240.1553596017998302
 20
-83.3999999999999915
 30
0.0
 11
240.1553596017998302
 21
-69.4999999999999858
 31
0.0
  0
LINE
  5
13A
100
AcDbEntity
100
AcDbLine
  8
0
 62
256
370
-1
  6
BYLAYER
 10
237.1553596017998586
 20
-66.4999999999999858
 30
0.0
 11
223.255359601799853
 21
-66.4999999999999858
 31
0.0
  0
LINE
  5
13B
100
AcDbEntity
100
AcDbLine
  8
0
 62
256
370
-1
  6
BYLAYER
 10
220.255359601799853
 20
-69.4999999999999858
 30
0.0
 11
220.255359601799853
 21
-83.3999999999999915
 31
0.0
  0
ARC
  5
13C
100
AcDbEntity
  8
0
 62
256
370
-1
  6
BYLAYER
100
AcDbCircle
 10
223.255359601799853
 20
-69.4999999999999858
 30
0.0
 40
3.0
100
AcDbArc
 50
89.9999999999999432
 51
180.0
  0
ARC
  5
13D
100
AcDbEntity
  8
0
 62
256
370
-1
  6
BYLAYER
100
AcDbCircle
 10
237.1553596017998586
 20
-69.4999999999999858
 30
0.0
 40
3.0
100
AcDbArc
 50
0.0
 51
90.0
  0
LINE
  5
13E
100
AcDbEntity
100
AcDbLine
  8
0
 62
256
370
-1
  6
BYLAYER
 10
227.2053596017998416
 20
-176.3999999999999773
 30
0.0
 11
233.2053596017998416
 21
-176.3999999999999773
 31
0.0
  0
LINE
  5
13F
100
AcDbEntity
100
AcDbLine
  8
0
 62
256
370
-1
  6
BYLAYER
 10
233.2053596017998416
 20
-176.3999999999999773
 30
0.0
 11
233.2053596017998416
 21
-89.3999999999999915
 31
0.0
  0
LINE
  5
140
100
AcDbEntity
100
AcDbLine
  8
0
 62
256
370
-1
  6
BYLAYER
 10
227.2053596017998416
 20
-89.3999999999999915
 30
0.0
 11
227.2053596017998416
 21
-176.3999999999999773
 31
0.0
  0
LINE
  5
141
100
AcDbEntity
100
AcDbLine
  8
0
 62
256
370
-1
  6
BYLAYER
 10
223.255359601799853
 20
-86.3999999999999915
 30
0.0
 11
224.2053596017998416
 21
-86.3999999999999915
 31
0.0
  0
LINE
  5
142
100
AcDbEntity
100
AcDbLine
  8
0
 62
256
370
-1
  6
BYLAYER
 10
236.2053596017998416
 20
-86.3999999999999915
 30
0.0
 11
237.1553596017998302
 21
-86.3999999999999915
 31
0.0
  0
ARC
  5
143
100
AcDbEntity
  8
0
 62
256
370
-1
  6
BYLAYER
100
AcDbCircle
 10
224.2053596017998416
 20
-89.3999999999999915
 30
0.0
 40
3.0
100
AcDbArc
 50
0.0
 51
90.0
  0
ARC
  5
144
100
AcDbEntity
  8
0
 62
256
370
-1
  6
BYLAYER
100
AcDbCircle
 10
236.2053596017998416
 20
-89.3999999999999773
 30
0.0
 40
3.0
100
AcDbArc
 50
90.0
 51
180.0
  0
ARC
  5
145
100
AcDbEntity
  8
0
 62
256
370
-1
  6
BYLAYER
100
AcDbCircle
 10
237.1553596017998302
 20
-83.3999999999999915
 30
0.0
 40
3.0
100
AcDbArc
 50
270.0
 51
0.0
  0
ARC
  5
146
100
AcDbEntity
  8
0
 62
256
370
-1
  6
BYLAYER
100
AcDbCircle
 10
223.255359601799853
 20
-83.3999999999999915
 30
0.0
 40
3.0
100
AcDbArc
 50
180.0
 51
270.0
  0
LINE
  5
147
100
AcDbEntity
100
AcDbLine
  8
0
 62
256
370
-1
  6
BYLAYER
 10
235.7053596017998416
 20
-176.4499999999999886
 30
0.0
 11
236.7053596017998416
 21
-176.4499999999999886
 31
0.0
  0
LINE
  5
148
100
AcDbEntity
100
AcDbLine
  8
0
 62
256
370
-1
  6
BYLAYER
 10
238.7053596017998416
 20
-174.4499999999999886
 30
0.0
 11
238.7053596017998416
 21
-90.4499999999999886
 31
0.0
  0
LINE
  5
149
100
AcDbEntity
100
AcDbLine
  8
0
 62
256
370
-1
  6
BYLAYER
 10
236.7053596017998416
 20
-88.4499999999999886
 30
0.0
 11
235.7053596017998416
 21
-88.4499999999999886
 31
0.0
  0
LINE
  5
14A
100
AcDbEntity
100
AcDbLine
  8
0
 62
256
370
-1
  6
BYLAYER
 10
235.7053596017998416
 20
-88.4499999999999886
 30
0.0
 11
235.7053596017998416
 21
-176.4499999999999886
 31
0.0
  0
ARC
  5
14B
100
AcDbEntity
  8
0
 62
256
370
-1
  6
BYLAYER
100
AcDbCircle
 10
236.7053596017998416
 20
-90.4499999999999886
 30
0.0
 40
2.0
100
AcDbArc
 50
0.0
 51
90.0
  0
ARC
  5
14C
100
AcDbEntity
  8
0
 62
256
370
-1
  6
BYLAYER
100
AcDbCircle
 10
236.7053596017998416
 20
-174.4499999999999886
 30
0.0
 40
2.0
100
AcDbArc
 50
270.0
 51
0.0
  0
LINE
  5
14D
100
AcDbEntity
100
AcDbLine
  8
0
 62
256
370
-1
  6
BYLAYER
 10
237.256301781935349
 20
-181.8058976654860999
 30
0.0
 11
251.1563017819353263
 21
-181.8058976654860999
 31
0.0
  0
LINE
  5
14E
100
AcDbEntity
100
AcDbLine
  8
0
 62
256
370
-1
  6
BYLAYER
 10
251.1563017819353263
 20
-181.8058976654860999
 30
0.0
 11
251.1563017819353263
 21
-195.7058976654860771
 31
0.0
  0
LINE
  5
14F
100
AcDbEntity
100
AcDbLine
  8
0
 62
256
370
-1
  6
BYLAYER
 10
251.1563017819353263
 20
-195.7058976654860771
 30
0.0
 11
237.256301781935349
 21
-195.7058976654860771
 31
0.0
  0
LINE
  5
150
100
AcDbEntity
100
AcDbLine
  8
0
 62
256
370
-1
  6
BYLAYER
 10
237.256301781935349
 20
-195.7058976654860771
 30
0.0
 11
237.256301781935349
 21
-181.8058976654860999
 31
0.0
  0
LINE
  5
151
100
AcDbEntity
100
AcDbLine
  8
0
 62
256
370
-1
  6
BYLAYER
 10
254.1563017819353263
 20
-181.8058976654860999
 30
0.0
 11
254.1563017819353263
 21
-195.705897665486134
 31
0.0
  0
LINE
  5
152
100
AcDbEntity
100
AcDbLine
  8
0
 62
256
370
-1
  6
BYLAYER
 10
251.1563017819353547
 20
-198.7058976654860771
 30
0.0
 11
237.256301781935349
 21
-198.7058976654860771
 31
0.0
  0
LINE
  5
153
100
AcDbEntity
100
AcDbLine
  8
0
 62
256
370
-1
  6
BYLAYER
 10
234.256301781935349
 20
-195.7058976654860771
 30
0.0
 11
234.256301781935349
 21
-181.8058976654860999
 31
0.0
  0
ARC
  5
154
100
AcDbEntity
  8
0
 62
256
370
-1
  6
BYLAYER
100
AcDbCircle
 10
237.256301781935349
 20
-195.7058976654860771
 30
0.0
 40
3.0
100
AcDbArc
 50
180.0
 51
270.0000000000000568
  0
ARC
  5
155
100
AcDbEntity
  8
0
 62
256
370
-1
  6
BYLAYER
100
AcDbCircle
 10
251.1563017819353547
 20
-195.7058976654860771
 30
0.0
 40
3.0
100
AcDbArc
 50
270.0
 51
0.0
  0
LINE
  5
156
100
AcDbEntity
100
AcDbLine
  8
0
 62
256
370
-1
  6
BYLAYER
 10
241.2063017819353092
 20
-88.8058976654861141
 30
0.0
 11
247.2063017819353377
 21
-88.8058976654861141
 31
0.0
  0
LINE
  5
157
100
AcDbEntity
100
AcDbLine
  8
0
 62
256
370
-1
  6
BYLAYER
 10
247.2063017819353377
 20
-88.8058976654861141
 30
0.0
 11
247.2063017819353377
 21
-175.8058976654860999
 31
0.0
  0
LINE
  5
158
100
AcDbEntity
100
AcDbLine
  8
0
 62
256
370
-1
  6
BYLAYER
 10
241.2063017819353377
 20
-175.8058976654860999
 30
0.0
 11
241.2063017819353092
 21
-88.8058976654861141
 31
0.0
  0
LINE
  5
159
100
AcDbEntity
100
AcDbLine
  8
0
 62
256
370
-1
  6
BYLAYER
 10
237.256301781935349
 20
-178.8058976654860999
 30
0.0
 11
238.2063017819353377
 21
-178.8058976654860999
 31
0.0
  0
LINE
  5
15A
100
AcDbEntity
100
AcDbLine
  8
0
 62
256
370
-1
  6
BYLAYER
 10
250.2063017819353377
 20
-178.8058976654860999
 30
0.0
 11
251.1563017819353263
 21
-178.8058976654860999
 31
0.0
  0
ARC
  5
15B
100
AcDbEntity
  8
0
 62
256
370
-1
  6
BYLAYER
100
AcDbCircle
 10
238.2063017819353377
 20
-175.8058976654860999
 30
0.0
 40
3.0
100
AcDbArc
 50
270.0
 51
0.0
  0
ARC
  5
15C
100
AcDbEntity
  8
0
 62
256
370
-1
  6
BYLAYER
100
AcDbCircle
 10
250.2063017819353377
 20
-175.8058976654860999
 30
0.0
 40
3.0
100
AcDbArc
 50
180.0
 51
270.0
  0
ARC
  5
15D
100
AcDbEntity
  8
0
 62
256
370
-1
  6
BYLAYER
100
AcDbCircle
 10
251.1563017819353263
 20
-181.8058976654860999
 30
0.0
 40
3.0
100
AcDbArc
 50
0.0
 51
90.0000000000000142
  0
ARC
  5
15E
100
AcDbEntity
  8
0
 62
256
370
-1
  6
BYLAYER
100
AcDbCircle
 10
237.256301781935349
 20
-181.8058976654860999
 30
0.0
 40
3.0
100
AcDbArc
 50
90.0000000000000142
 51
180.0
  0
LINE
  5
15F
100
AcDbEntity
100
AcDbLine
  8
0
 62
256
370
-1
  6
BYLAYER
 10
249.7063017819353661
 20
-88.7558976654861027
 30
0.0
 11
250.7063017819353661
 21
-88.7558976654861027
 31
0.0
  0
LINE
  5
160
100
AcDbEntity
100
AcDbLine
  8
0
 62
256
370
-1
  6
BYLAYER
 10
252.7063017819352808
 20
-90.7558976654861027
 30
0.0
 11
252.7063017819353377
 21
-174.7558976654860885
 31
0.0
  0
LINE
  5
161
100
AcDbEntity
100
AcDbLine
  8
0
 62
256
370
-1
  6
BYLAYER
 10
250.7063017819353377
 20
-176.7558976654860885
 30
0.0
 11
249.7063017819353377
 21
-176.7558976654860885
 31
0.0
  0
LINE
  5
162
100
AcDbEntity
100
AcDbLine
  8
0
 62
256
370
-1
  6
BYLAYER
 10
249.7063017819353377
 20
-176.7558976654860885
 30
0.0
 11
249.7063017819353661
 21
-88.7558976654861027
 31
0.0
  0
ARC
  5
163
100
AcDbEntity
  8
0
 62
256
370
-1
  6
BYLAYER
100
AcDbCircle
 10
250.7063017819353377
 20
-174.7558976654860885
 30
0.0
 40
2.0
100
AcDbArc
 50
270.0
 51
0.0
  0
ARC
  5
164
100
AcDbEntity
  8
0
 62
256
370
-1
  6
BYLAYER
100
AcDbCircle
 10
250.7063017819353377
 20
-90.7558976654861027
 30
0.0
 40
2.0
100
AcDbArc
 50
0.0
 51
90.0000000000000142
  0
DIMENSION
  5
165
100
AcDbEntity
  8
0
 62
256
370
-1
  6
BYLAYER
100
AcDbDimension
 10
300.0
 20
-190.0
 30
0.0
 11
297.0
 21
-132.6029488327430386
 31
0.0
 70
0
 71
8
 72
2
 41
1.0
 42
0.0
  1

  3
Standard
100
AcDbAlignedDimension
 13
237.1553596017998586
 23
-66.4999999999999858
 33
0.0
 14
244.2063017819353377
 24
-198.7058976654860771
 34
0.0
 50
90.0
100
AcDbRotatedDimension
1001
ACAD
1000
DSTYLE
1002
{
1070
144
1040
1
1002
}
  0
DIMENSION
  5
166
100
AcDbEntity
  8
0
 62
256
370
-1
  6
BYLAYER
100
AcDbDimension
 10
250.0
 20
-230.0
 30
0.0
 11
167.1031508909676688
 21
-227.0
 31
0.0
 70
0
 71
8
 72
2
 41
1.0
 42
0.0
  1

  3
Standard
100
AcDbAlignedDimension
 13
80.0499999999999972
 23
-77.0499999999999972
 33
0.0
 14
254.1563017819353263
 24
-188.7558976654861169
 34
0.0
 50
0.0
100
AcDbRotatedDimension
1001
ACAD
1000
DSTYLE
1002
{
1070
144
1040
1
1002
}
  0
ENDSEC
  0
SECTION
  2
OBJECTS
  0
DICTIONARY
  5
C
100
AcDbDictionary
280
0
281
1
  3
ACAD_GROUP
350
D
  3
ACAD_LAYOUT
350
1A
  3
ACAD_MLINESTYLE
350
17
  3
ACAD_PLOTSETTINGS
350
19
  3
ACAD_PLOTSTYLENAME
350
E
  3
AcDbVariableDictionary
350
167
  3
QCAD_OBJECTS
350
168
  0
DICTIONARY
  5
D
100
AcDbDictionary
280
0
281
1
  0
ACDBDICTIONARYWDFLT
  5
E
100
AcDbDictionary
281
1
  3
Normal
350
F
100
AcDbDictionaryWithDefault
340
F
  0
ACDBPLACEHOLDER
  5
F
  0
DICTIONARY
  5
17
100
AcDbDictionary
280
0
281
1
  3
Standard
350
18
  0
MLINESTYLE
  5
18
100
AcDbMlineStyle
  2
STANDARD
 70
0
  3

 62
256
 51
90.0
 52
90.0
 71
2
 49
0.5
 62
256
  6
BYLAYER
 49
-0.5
 62
256
  6
BYLAYER
  0
DICTIONARY
  5
19
100
AcDbDictionary
280
0
281
1
  0
DICTIONARY
  5
1A
100
AcDbDictionary
281
1
  3
Layout1
350
1E
  3
Layout2
350
26
  3
Model
350
22
  0
LAYOUT
  5
1E
100
AcDbPlotSettings
  1

  2
none_device
  4

  6

 40
0.0
 41
0.0
 42
0.0
 43
0.0
 44
0.0
 45
0.0
 46
0.0
 47
0.0
 48
0.0
 49
0.0
140
0.0
141
0.0
142
1.0
143
1.0
 70
688
 72
0
 73
0
 74
5
  7

 75
16
147
1.0
148
0.0
149
0.0
100
AcDbLayout
  1
Layout1
 70
1
 71
1
 10
0.0
 20
0.0
 11
420.0
 21
297.0
 12
0.0
 22
0.0
 32
0.0
 14
100000000000000000000.0
 24
100000000000000000000.0
 34
100000000000000000000.0
 15
-100000000000000000000.0
 25
-100000000000000000000.0
 35
-100000000000000000000.0
146
0.0
 13
0.0
 23
0.0
 33
0.0
 16
1.0
 26
0.0
 36
0.0
 17
0.0
 27
1.0
 37
0.0
 76
0
330
1B
  0
LAYOUT
  5
22
100
AcDbPlotSettings
  1

  2
none_device
  4

  6

 40
0.0
 41
0.0
 42
0.0
 43
0.0
 44
0.0
 45
0.0
 46
0.0
 47
0.0
 48
0.0
 49
0.0
140
0.0
141
0.0
142
1.0
143
1.0
 70
1712
 72
0
 73
0
 74
0
  7

 75
0
147
1.0
148
0.0
149
0.0
100
AcDbLayout
  1
Model
 70
1
 71
0
 10
0.0
 20
0.0
 11
12.0
 21
9.0
 12
0.0
 22
0.0
 32
0.0
 14
0.0
 24
0.0
 34
0.0
 15
0.0
 25
0.0
 35
0.0
146
0.0
 13
0.0
 23
0.0
 33
0.0
 16
1.0
 26
0.0
 36
0.0
 17
0.0
 27
1.0
 37
0.0
 76
0
330
1F
  0
LAYOUT
  5
26
100
AcDbPlotSettings
  1

  2
none_device
  4

  6

 40
0.0
 41
0.0
 42
0.0
 43
0.0
 44
0.0
 45
0.0
 46
0.0
 47
0.0
 48
0.0
 49
0.0
140
0.0
141
0.0
142
1.0
143
1.0
 70
688
 72
0
 73
0
 74
5
  7

 75
16
147
1.0
148
0.0
149
0.0
100
AcDbLayout
  1
Layout2
 70
1
 71
2
 10
0.0
 20
0.0
 11
12.0
 21
9.0
 12
0.0
 22
0.0
 32
0.0
 14
0.0
 24
0.0
 34
0.0
 15
0.0
 25
0.0
 35
0.0
146
0.0
 13
0.0
 23
0.0
 33
0.0
 16
1.0
 26
0.0
 36
0.0
 17
0.0
 27
1.0
 37
0.0
 76
0
330
23
  0
DICTIONARY
  5
167
100
AcDbDictionary
281
1
  3
DIMASSOC
350
16A
  3
HIDETEXT
350
169
  0
DICTIONARYVAR
  5
169
100
DictionaryVariables
280
0
  1
2
  0
DICTIONARYVAR
  5
16A
100
DictionaryVariables
280
0
  1
1
  0
DICTIONARY
  5
168
100
AcDbDictionary
281
1
  3
Grid/DisplayGrid00
350
16B
  3
Grid/DisplayGrid01
350
16C
  3
Grid/DisplayGrid02
350
16D
  3
Grid/DisplayGrid03
350
16E
  3
Grid/GridSpacingX00
350
16F
  3
Grid/GridSpacingX01
350
170
  3
Grid/GridSpacingX02
350
171
  3
Grid/GridSpacingX03
350
172
  3
Grid/GridSpacingY00
350
173
  3
Grid/GridSpacingY01
350
174
  3
Grid/GridSpacingY02
350
175
  3
Grid/GridSpacingY03
350
176
  3
Grid/IsometricGrid00
350
177
  3
Grid/IsometricGrid01
350
178
  3
Grid/IsometricGrid02
350
179
  3
Grid/IsometricGrid03
350
17A
  3
Grid/IsometricProjection00
350
17B
  3
Grid/IsometricProjection01
350
17C
  3
Grid/IsometricProjection02
350
17D
  3
Grid/IsometricProjection03
350
17E
  3
Grid/MetaGridSpacingX00
350
17F
  3
Grid/MetaGridSpacingX01
350
180
  3
Grid/MetaGridSpacingX02
350
181
  3
Grid/MetaGridSpacingX03
350
182
  3
Grid/MetaGridSpacingY00
350
183
  3
Grid/MetaGridSpacingY01
350
184
  3
Grid/MetaGridSpacingY02
350
185
  3
Grid/MetaGridSpacingY03
350
186
  3
MultiPageSettings/Columns
350
187
  3
MultiPageSettings/GlueMarginsBottom
350
188
  3
MultiPageSettings/GlueMarginsLeft
350
189
  3
MultiPageSettings/GlueMarginsRight
350
18A
  3
MultiPageSettings/GlueMarginsTop
350
18B
  3
MultiPageSettings/PrintCropMarks
350
18C
  3
MultiPageSettings/Rows
350
18D
  3
PageSettings/OffsetX
350
18E
  3
PageSettings/OffsetY
350
18F
  3
PageSettings/PageOrientation
350
190
  3
PageSettings/PaperHeight
350
191
  3
PageSettings/PaperWidth
350
192
  3
PageSettings/Scale
350
193
  3
PageSettings/ShowPaperBorders
350
194
  3
UnitSettings/PaperUnit
350
195
  0
XRECORD
  5
16B
330
168
100
AcDbXrecord
280
1
290
1
  0
XRECORD
  5
16C
330
168
100
AcDbXrecord
280
1
290
1
  0
XRECORD
  5
16D
330
168
100
AcDbXrecord
280
1
290
1
  0
XRECORD
  5
16E
330
168
100
AcDbXrecord
280
1
290
1
  0
XRECORD
  5
16F
330
168
100
AcDbXrecord
280
1
1000
auto
  0
XRECORD
  5
170
330
168
100
AcDbXrecord
280
1
1000
auto
  0
XRECORD
  5
171
330
168
100
AcDbXrecord
280
1
1000
auto
  0
XRECORD
  5
172
330
168
100
AcDbXrecord
280
1
1000
auto
  0
XRECORD
  5
173
330
168
100
AcDbXrecord
280
1
1000
auto
  0
XRECORD
  5
174
330
168
100
AcDbXrecord
280
1
1000
auto
  0
XRECORD
  5
175
330
168
100
AcDbXrecord
280
1
1000
auto
  0
XRECORD
  5
176
330
168
100
AcDbXrecord
280
1
1000
auto
  0
XRECORD
  5
177
330
168
100
AcDbXrecord
280
1
290
0
  0
XRECORD
  5
178
330
168
100
AcDbXrecord
280
1
290
0
  0
XRECORD
  5
179
330
168
100
AcDbXrecord
280
1
290
0
  0
XRECORD
  5
17A
330
168
100
AcDbXrecord
280
1
290
0
  0
XRECORD
  5
17B
330
168
100
AcDbXrecord
280
1
 90
0
  0
XRECORD
  5
17C
330
168
100
AcDbXrecord
280
1
 90
0
  0
XRECORD
  5
17D
330
168
100
AcDbXrecord
280
1
 90
0
  0
XRECORD
  5
17E
330
168
100
AcDbXrecord
280
1
 90
0
  0
XRECORD
  5
17F
330
168
100
AcDbXrecord
280
1
1000
auto
  0
XRECORD
  5
180
330
168
100
AcDbXrecord
280
1
1000
auto
  0
XRECORD
  5
181
330
168
100
AcDbXrecord
280
1
1000
auto
  0
XRECORD
  5
182
330
168
100
AcDbXrecord
280
1
1000
auto
  0
XRECORD
  5
183
330
168
100
AcDbXrecord
280
1
1000
auto
  0
XRECORD
  5
184
330
168
100
AcDbXrecord
280
1
1000
auto
  0
XRECORD
  5
185
330
168
100
AcDbXrecord
280
1
1000
auto
  0
XRECORD
  5
186
330
168
100
AcDbXrecord
280
1
1000
auto
  0
XRECORD
  5
187
330
168
100
AcDbXrecord
280
1
 90
1
  0
XRECORD
  5
188
330
168
100
AcDbXrecord
280
1
 40
10.0
  0
XRECORD
  5
189
330
168
100
AcDbXrecord
280
1
 40
10.0
  0
XRECORD
  5
18A
330
168
100
AcDbXrecord
280
1
 40
10.0
  0
XRECORD
  5
18B
330
168
100
AcDbXrecord
280
1
 40
10.0
  0
XRECORD
  5
18C
330
168
100
AcDbXrecord
280
1
290
0
  0
XRECORD
  5
18D
330
168
100
AcDbXrecord
280
1
 90
1
  0
XRECORD
  5
18E
330
168
100
AcDbXrecord
280
1
 40
0.0
  0
XRECORD
  5
18F
330
168
100
AcDbXrecord
280
1
 40
0.0
  0
XRECORD
  5
190
330
168
100
AcDbXrecord
280
1
1000
Portrait
  0
XRECORD
  5
191
330
168
100
AcDbXrecord
280
1
 40
297.0
  0
XRECORD
  5
192
330
168
100
AcDbXrecord
280
1
 40
210.0
  0
XRECORD
  5
193
330
168
100
AcDbXrecord
280
1
1000
1:1
  0
XRECORD
  5
194
330
168
100
AcDbXrecord
280
1
290
1
  0
XRECORD
  5
195
330
168
100
AcDbXrecord
280
1
 90
4
  0
ENDSEC
  0
EOF
